<ttFont>
    <TTGlyph name="A" xMin="20" yMin="0" xMax="756" yMax="1374">
      <contour>
        <pt x="487" y="467" on="1"/>
        <pt x="285" y="467" on="1"/>
        <pt x="236" y="113" on="1"/>
        <pt x="344" y="113" on="1"/>
        <pt x="344" y="0" on="1"/>
        <pt x="20" y="0" on="1"/>
        <pt x="20" y="113" on="1"/>
        <pt x="115" y="113" on="1"/>
        <pt x="299" y="1262" on="1"/>
        <pt x="164" y="1262" on="1"/>
        <pt x="164" y="1374" on="1"/>
        <pt x="457" y="1374" on="1"/>
        <pt x="664" y="113" on="1"/>
        <pt x="756" y="113" on="1"/>
        <pt x="756" y="0" on="1"/>
        <pt x="432" y="0" on="1"/>
        <pt x="432" y="113" on="1"/>
        <pt x="541" y="113" on="1"/>
      </contour>
      <contour>
        <pt x="299" y="573" on="1"/>
        <pt x="471" y="573" on="1"/>
        <pt x="383" y="1171" on="1"/>
      </contour>
    </TTGlyph>
    <TTGlyph name="AE" xMin="20" yMin="0" xMax="1001" yMax="1374">
      <contour>
        <pt x="879" y="963" on="1"/>
        <pt x="879" y="1262" on="1"/>
        <pt x="641" y="1262" on="1"/>
        <pt x="641" y="782" on="1"/>
        <pt x="862" y="782" on="1"/>
        <pt x="862" y="670" on="1"/>
        <pt x="641" y="670" on="1"/>
        <pt x="641" y="113" on="1"/>
        <pt x="893" y="113" on="1"/>
        <pt x="893" y="432" on="1"/>
        <pt x="1001" y="432" on="1"/>
        <pt x="1001" y="0" on="1"/>
        <pt x="383" y="0" on="1"/>
        <pt x="383" y="113" on="1"/>
        <pt x="506" y="113" on="1"/>
        <pt x="506" y="467" on="1"/>
        <pt x="293" y="467" on="1"/>
        <pt x="217" y="113" on="1"/>
        <pt x="319" y="113" on="1"/>
        <pt x="319" y="0" on="1"/>
        <pt x="20" y="0" on="1"/>
        <pt x="20" y="113" on="1"/>
        <pt x="94" y="113" on="1"/>
        <pt x="344" y="1262" on="1"/>
        <pt x="225" y="1262" on="1"/>
        <pt x="225" y="1374" on="1"/>
        <pt x="987" y="1374" on="1"/>
        <pt x="987" y="963" on="1"/>
      </contour>
      <contour>
        <pt x="461" y="1262" on="1"/>
        <pt x="315" y="573" on="1"/>
        <pt x="506" y="573" on="1"/>
        <pt x="506" y="1262" on="1"/>
      </contour>
    </TTGlyph>
    <TTGlyph name="AEacute" xMin="20" yMin="0" xMax="1001" yMax="1751">
      <component glyphName="AE" x="0" y="0" flags="0x204"/>
      <component glyphName="acute" x="313" y="395" flags="0x4"/>
    </TTGlyph>
    <TTGlyph name="Aacute" xMin="20" yMin="0" xMax="756" yMax="1751">
      <component glyphName="A" x="0" y="0" flags="0x204"/>
      <component glyphName="acute" x="61" y="395" flags="0x4"/>
    </TTGlyph>
    <TTGlyph name="Abreve" xMin="20" yMin="0" xMax="756" yMax="1706">
      <component glyphName="A" x="0" y="0" flags="0x204"/>
      <component glyphName="breve" x="61" y="395" flags="0x4"/>
    </TTGlyph>
    <TTGlyph name="Acircumflex" xMin="20" yMin="0" xMax="756" yMax="1757">
      <component glyphName="A" x="0" y="0" flags="0x204"/>
      <component glyphName="circumflex" x="61" y="395" flags="0x4"/>
    </TTGlyph>
    <TTGlyph name="Adieresis" xMin="20" yMin="0" xMax="756" yMax="1648">
      <component glyphName="A" x="0" y="0" flags="0x204"/>
      <component glyphName="dieresis" x="61" y="395" flags="0x4"/>
    </TTGlyph>
    <TTGlyph name="Agrave" xMin="20" yMin="0" xMax="756" yMax="1751">
      <component glyphName="A" x="0" y="0" flags="0x204"/>
      <component glyphName="grave" x="61" y="395" flags="0x4"/>
    </TTGlyph>
    <TTGlyph name="Amacron" xMin="20" yMin="0" xMax="756" yMax="1612">
      <component glyphName="A" x="0" y="0" flags="0x204"/>
      <component glyphName="macron" x="61" y="395" flags="0x4"/>
    </TTGlyph>
    <TTGlyph name="Aogonek" xMin="20" yMin="-356" xMax="756" yMax="1374">
      <contour>
        <pt x="487" y="467" on="1"/>
        <pt x="285" y="467" on="1"/>
        <pt x="236" y="113" on="1"/>
        <pt x="344" y="113" on="1"/>
        <pt x="344" y="0" on="1"/>
        <pt x="20" y="0" on="1"/>
        <pt x="20" y="113" on="1"/>
        <pt x="115" y="113" on="1"/>
        <pt x="299" y="1262" on="1"/>
        <pt x="164" y="1262" on="1"/>
        <pt x="164" y="1374" on="1"/>
        <pt x="457" y="1374" on="1"/>
        <pt x="664" y="113" on="1"/>
        <pt x="756" y="113" on="1"/>
        <pt x="756" y="0" on="1"/>
        <pt x="670" y="0" on="1"/>
        <pt x="635" y="-43" on="0"/>
        <pt x="586" y="-139" on="0"/>
        <pt x="586" y="-201" on="1"/>
        <pt x="586" y="-233" on="0"/>
        <pt x="616" y="-266" on="0"/>
        <pt x="641" y="-266" on="1"/>
        <pt x="660" y="-266" on="0"/>
        <pt x="688" y="-250" on="0"/>
        <pt x="700" y="-238" on="1"/>
        <pt x="733" y="-319" on="1"/>
        <pt x="707" y="-335" on="0"/>
        <pt x="645" y="-356" on="0"/>
        <pt x="610" y="-356" on="1"/>
        <pt x="545" y="-356" on="0"/>
        <pt x="477" y="-287" on="0"/>
        <pt x="477" y="-219" on="1"/>
        <pt x="477" y="-192" on="0"/>
        <pt x="492" y="-135" on="0"/>
        <pt x="517" y="-78" on="0"/>
        <pt x="552" y="-24" on="0"/>
        <pt x="573" y="0" on="1"/>
        <pt x="432" y="0" on="1"/>
        <pt x="432" y="113" on="1"/>
        <pt x="541" y="113" on="1"/>
      </contour>
      <contour>
        <pt x="299" y="573" on="1"/>
        <pt x="471" y="573" on="1"/>
        <pt x="383" y="1171" on="1"/>
      </contour>
    </TTGlyph>
    <TTGlyph name="Aring" xMin="20" yMin="0" xMax="756" yMax="1829">
      <component glyphName="A" x="0" y="0" flags="0x204"/>
      <component glyphName="ring" x="45" y="395" flags="0x4"/>
    </TTGlyph>
    <TTGlyph name="Atilde" xMin="20" yMin="0" xMax="756" yMax="1706">
      <component glyphName="A" x="0" y="0" flags="0x204"/>
      <component glyphName="tilde" x="61" y="395" flags="0x4"/>
    </TTGlyph>
    <TTGlyph name="B" xMin="33" yMin="0" xMax="692" yMax="1374">
      <contour>
        <pt x="33" y="1374" on="1"/>
        <pt x="408" y="1374" on="1"/>
        <pt x="431" y="1374" on="0"/>
        <pt x="486" y="1365" on="0"/>
        <pt x="540" y="1338" on="0"/>
        <pt x="590" y="1290" on="0"/>
        <pt x="628" y="1213" on="0"/>
        <pt x="651" y="1103" on="0"/>
        <pt x="651" y="1028" on="1"/>
        <pt x="651" y="961" on="0"/>
        <pt x="632" y="862" on="0"/>
        <pt x="595" y="791" on="0"/>
        <pt x="541" y="745" on="0"/>
        <pt x="506" y="733" on="1"/>
        <pt x="600" y="719" on="0"/>
        <pt x="692" y="535" on="0"/>
        <pt x="692" y="379" on="1"/>
        <pt x="692" y="259" on="0"/>
        <pt x="646" y="111" on="0"/>
        <pt x="571" y="28" on="0"/>
        <pt x="475" y="0" on="0"/>
        <pt x="424" y="0" on="1"/>
        <pt x="33" y="0" on="1"/>
        <pt x="33" y="113" on="1"/>
        <pt x="147" y="113" on="1"/>
        <pt x="147" y="1262" on="1"/>
        <pt x="33" y="1262" on="1"/>
      </contour>
      <contour>
        <pt x="561" y="381" on="1"/>
        <pt x="561" y="459" on="0"/>
        <pt x="541" y="569" on="0"/>
        <pt x="503" y="639" on="0"/>
        <pt x="451" y="672" on="0"/>
        <pt x="420" y="672" on="1"/>
        <pt x="272" y="672" on="1"/>
        <pt x="272" y="113" on="1"/>
        <pt x="424" y="113" on="1"/>
        <pt x="457" y="113" on="0"/>
        <pt x="508" y="142" on="0"/>
        <pt x="543" y="207" on="0"/>
        <pt x="561" y="309" on="0"/>
      </contour>
      <contour>
        <pt x="535" y="1026" on="1"/>
        <pt x="535" y="1070" on="0"/>
        <pt x="523" y="1155" on="0"/>
        <pt x="494" y="1221" on="0"/>
        <pt x="445" y="1262" on="0"/>
        <pt x="408" y="1262" on="1"/>
        <pt x="272" y="1262" on="1"/>
        <pt x="272" y="782" on="1"/>
        <pt x="408" y="782" on="1"/>
        <pt x="443" y="782" on="0"/>
        <pt x="492" y="821" on="0"/>
        <pt x="522" y="888" on="0"/>
        <pt x="535" y="977" on="0"/>
      </contour>
    </TTGlyph>
    <TTGlyph name="C" xMin="55" yMin="-27" xMax="731" yMax="1399">
      <contour>
        <pt x="410" y="-27" on="1"/>
        <pt x="331" y="-27" on="0"/>
        <pt x="200" y="58" on="0"/>
        <pt x="107" y="233" on="0"/>
        <pt x="55" y="502" on="0"/>
        <pt x="55" y="686" on="1"/>
        <pt x="55" y="863" on="0"/>
        <pt x="111" y="1131" on="0"/>
        <pt x="205" y="1309" on="0"/>
        <pt x="329" y="1399" on="0"/>
        <pt x="397" y="1399" on="1"/>
        <pt x="462" y="1399" on="0"/>
        <pt x="547" y="1342" on="0"/>
        <pt x="578" y="1300" on="1"/>
        <pt x="578" y="1374" on="1"/>
        <pt x="686" y="1374" on="1"/>
        <pt x="686" y="901" on="1"/>
        <pt x="578" y="901" on="1"/>
        <pt x="578" y="1038" on="1"/>
        <pt x="578" y="1098" on="0"/>
        <pt x="551" y="1190" on="0"/>
        <pt x="505" y="1253" on="0"/>
        <pt x="444" y="1286" on="0"/>
        <pt x="410" y="1286" on="1"/>
        <pt x="353" y="1286" on="0"/>
        <pt x="271" y="1202" on="0"/>
        <pt x="218" y="1046" on="0"/>
        <pt x="193" y="824" on="0"/>
        <pt x="193" y="686" on="1"/>
        <pt x="193" y="548" on="0"/>
        <pt x="214" y="327" on="0"/>
        <pt x="267" y="172" on="0"/>
        <pt x="354" y="88" on="0"/>
        <pt x="420" y="88" on="1"/>
        <pt x="465" y="88" on="0"/>
        <pt x="529" y="140" on="0"/>
        <pt x="575" y="219" on="0"/>
        <pt x="605" y="311" on="0"/>
        <pt x="616" y="352" on="1"/>
        <pt x="731" y="352" on="1"/>
        <pt x="713" y="263" on="0"/>
        <pt x="654" y="122" on="0"/>
        <pt x="574" y="25" on="0"/>
        <pt x="472" y="-27" on="0"/>
      </contour>
    </TTGlyph>
    <TTGlyph name="Cacute" xMin="55" yMin="-27" xMax="731" yMax="1751">
      <component glyphName="C" x="0" y="0" flags="0x204"/>
      <component glyphName="acute" x="90" y="395" flags="0x4"/>
    </TTGlyph>
    <TTGlyph name="Ccaron" xMin="55" yMin="-27" xMax="731" yMax="1757">
      <component glyphName="C" x="0" y="0" flags="0x204"/>
      <component glyphName="caron" x="111" y="395" flags="0x4"/>
    </TTGlyph>
    <TTGlyph name="Ccedilla" xMin="55" yMin="-401" xMax="731" yMax="1399">
      <contour>
        <pt x="731" y="352" on="1"/>
        <pt x="696" y="184" on="0"/>
        <pt x="551" y="-12" on="0"/>
        <pt x="438" y="-25" on="1"/>
        <pt x="422" y="-98" on="1"/>
        <pt x="443" y="-98" on="0"/>
        <pt x="493" y="-112" on="0"/>
        <pt x="537" y="-145" on="0"/>
        <pt x="567" y="-200" on="0"/>
        <pt x="567" y="-242" on="1"/>
        <pt x="567" y="-287" on="0"/>
        <pt x="534" y="-348" on="0"/>
        <pt x="481" y="-385" on="0"/>
        <pt x="416" y="-401" on="0"/>
        <pt x="385" y="-401" on="1"/>
        <pt x="322" y="-401" on="0"/>
        <pt x="232" y="-368" on="0"/>
        <pt x="207" y="-354" on="1"/>
        <pt x="256" y="-266" on="1"/>
        <pt x="279" y="-285" on="0"/>
        <pt x="339" y="-311" on="0"/>
        <pt x="373" y="-311" on="1"/>
        <pt x="416" y="-311" on="0"/>
        <pt x="465" y="-273" on="0"/>
        <pt x="465" y="-242" on="1"/>
        <pt x="465" y="-223" on="0"/>
        <pt x="449" y="-197" on="0"/>
        <pt x="422" y="-182" on="0"/>
        <pt x="389" y="-176" on="0"/>
        <pt x="371" y="-176" on="1"/>
        <pt x="341" y="-176" on="0"/>
        <pt x="313" y="-182" on="1"/>
        <pt x="352" y="-20" on="1"/>
        <pt x="284" y="-7" on="0"/>
        <pt x="175" y="92" on="0"/>
        <pt x="97" y="266" on="0"/>
        <pt x="55" y="519" on="0"/>
        <pt x="55" y="686" on="1"/>
        <pt x="55" y="863" on="0"/>
        <pt x="111" y="1131" on="0"/>
        <pt x="205" y="1309" on="0"/>
        <pt x="329" y="1399" on="0"/>
        <pt x="397" y="1399" on="1"/>
        <pt x="462" y="1399" on="0"/>
        <pt x="547" y="1342" on="0"/>
        <pt x="578" y="1300" on="1"/>
        <pt x="578" y="1374" on="1"/>
        <pt x="686" y="1374" on="1"/>
        <pt x="686" y="901" on="1"/>
        <pt x="578" y="901" on="1"/>
        <pt x="578" y="1038" on="1"/>
        <pt x="578" y="1098" on="0"/>
        <pt x="551" y="1190" on="0"/>
        <pt x="505" y="1253" on="0"/>
        <pt x="444" y="1286" on="0"/>
        <pt x="410" y="1286" on="1"/>
        <pt x="353" y="1286" on="0"/>
        <pt x="271" y="1202" on="0"/>
        <pt x="218" y="1046" on="0"/>
        <pt x="193" y="824" on="0"/>
        <pt x="193" y="686" on="1"/>
        <pt x="193" y="548" on="0"/>
        <pt x="214" y="327" on="0"/>
        <pt x="267" y="172" on="0"/>
        <pt x="354" y="88" on="0"/>
        <pt x="420" y="88" on="1"/>
        <pt x="465" y="88" on="0"/>
        <pt x="529" y="140" on="0"/>
        <pt x="575" y="219" on="0"/>
        <pt x="605" y="311" on="0"/>
        <pt x="616" y="352" on="1"/>
        <pt x="731" y="352" on="1"/>
      </contour>
    </TTGlyph>
    <TTGlyph name="Ccircumflex" xMin="55" yMin="-27" xMax="731" yMax="1757">
      <component glyphName="C" x="0" y="0" flags="0x204"/>
      <component glyphName="circumflex" x="104" y="395" flags="0x4"/>
    </TTGlyph>
    <TTGlyph name="Cdotaccent" xMin="55" yMin="-27" xMax="731" yMax="1659">
      <component glyphName="C" x="0" y="0" flags="0x204"/>
      <component glyphName="dotaccent" x="109" y="395" flags="0x4"/>
    </TTGlyph>
    <TTGlyph name="D" xMin="25" yMin="0" xMax="748" yMax="1374">
      <contour>
        <pt x="25" y="1374" on="1"/>
        <pt x="410" y="1374" on="1"/>
        <pt x="485" y="1374" on="0"/>
        <pt x="609" y="1308" on="0"/>
        <pt x="699" y="1149" on="0"/>
        <pt x="748" y="885" on="0"/>
        <pt x="748" y="688" on="1"/>
        <pt x="748" y="490" on="0"/>
        <pt x="699" y="225" on="0"/>
        <pt x="610" y="66" on="0"/>
        <pt x="486" y="0" on="0"/>
        <pt x="410" y="0" on="1"/>
        <pt x="25" y="0" on="1"/>
        <pt x="25" y="113" on="1"/>
        <pt x="147" y="113" on="1"/>
        <pt x="147" y="1262" on="1"/>
        <pt x="25" y="1262" on="1"/>
      </contour>
      <contour>
        <pt x="618" y="688" on="1"/>
        <pt x="618" y="856" on="0"/>
        <pt x="591" y="1078" on="0"/>
        <pt x="538" y="1209" on="0"/>
        <pt x="462" y="1262" on="0"/>
        <pt x="414" y="1262" on="1"/>
        <pt x="272" y="1262" on="1"/>
        <pt x="272" y="113" on="1"/>
        <pt x="414" y="113" on="1"/>
        <pt x="462" y="113" on="0"/>
        <pt x="538" y="167" on="0"/>
        <pt x="591" y="298" on="0"/>
        <pt x="618" y="520" on="0"/>
      </contour>
    </TTGlyph>
    <TTGlyph name="Dcaron" xMin="25" yMin="0" xMax="748" yMax="1757">
      <component glyphName="D" x="0" y="0" flags="0x204"/>
      <component glyphName="caron" x="49" y="395" flags="0x4"/>
    </TTGlyph>
    <TTGlyph name="Dcroat" xMin="25" yMin="0" xMax="748" yMax="1374">
      <contour>
        <pt x="25" y="1374" on="1"/>
        <pt x="410" y="1374" on="1"/>
        <pt x="485" y="1374" on="0"/>
        <pt x="609" y="1308" on="0"/>
        <pt x="699" y="1149" on="0"/>
        <pt x="748" y="885" on="0"/>
        <pt x="748" y="688" on="1"/>
        <pt x="748" y="490" on="0"/>
        <pt x="699" y="225" on="0"/>
        <pt x="610" y="66" on="0"/>
        <pt x="486" y="0" on="0"/>
        <pt x="410" y="0" on="1"/>
        <pt x="25" y="0" on="1"/>
        <pt x="25" y="113" on="1"/>
        <pt x="147" y="113" on="1"/>
        <pt x="147" y="643" on="1"/>
        <pt x="25" y="643" on="1"/>
        <pt x="25" y="752" on="1"/>
        <pt x="147" y="752" on="1"/>
        <pt x="147" y="1262" on="1"/>
        <pt x="25" y="1262" on="1"/>
      </contour>
      <contour>
        <pt x="272" y="643" on="1"/>
        <pt x="272" y="113" on="1"/>
        <pt x="414" y="113" on="1"/>
        <pt x="462" y="113" on="0"/>
        <pt x="538" y="167" on="0"/>
        <pt x="591" y="298" on="0"/>
        <pt x="618" y="520" on="0"/>
        <pt x="618" y="688" on="1"/>
        <pt x="618" y="856" on="0"/>
        <pt x="591" y="1078" on="0"/>
        <pt x="538" y="1209" on="0"/>
        <pt x="462" y="1262" on="0"/>
        <pt x="414" y="1262" on="1"/>
        <pt x="272" y="1262" on="1"/>
        <pt x="272" y="752" on="1"/>
        <pt x="451" y="752" on="1"/>
        <pt x="451" y="643" on="1"/>
      </contour>
    </TTGlyph>
    <TTGlyph name="E" xMin="25" yMin="0" xMax="643" yMax="1374">
      <contour>
        <pt x="520" y="963" on="1"/>
        <pt x="520" y="1262" on="1"/>
        <pt x="283" y="1262" on="1"/>
        <pt x="283" y="782" on="1"/>
        <pt x="504" y="782" on="1"/>
        <pt x="504" y="670" on="1"/>
        <pt x="283" y="670" on="1"/>
        <pt x="283" y="113" on="1"/>
        <pt x="535" y="113" on="1"/>
        <pt x="535" y="432" on="1"/>
        <pt x="643" y="432" on="1"/>
        <pt x="643" y="0" on="1"/>
        <pt x="25" y="0" on="1"/>
        <pt x="25" y="113" on="1"/>
        <pt x="147" y="113" on="1"/>
        <pt x="147" y="1262" on="1"/>
        <pt x="25" y="1262" on="1"/>
        <pt x="25" y="1374" on="1"/>
        <pt x="629" y="1374" on="1"/>
        <pt x="629" y="963" on="1"/>
      </contour>
    </TTGlyph>
    <TTGlyph name="Eacute" xMin="25" yMin="0" xMax="643" yMax="1751">
      <component glyphName="E" x="0" y="0" flags="0x204"/>
      <component glyphName="acute" x="31" y="395" flags="0x4"/>
    </TTGlyph>
    <TTGlyph name="Ebreve" xMin="25" yMin="0" xMax="643" yMax="1706">
      <component glyphName="E" x="0" y="0" flags="0x204"/>
      <component glyphName="breve" x="31" y="395" flags="0x4"/>
    </TTGlyph>
    <TTGlyph name="Ecaron" xMin="25" yMin="0" xMax="643" yMax="1757">
      <component glyphName="E" x="0" y="0" flags="0x204"/>
      <component glyphName="caron" x="31" y="395" flags="0x4"/>
    </TTGlyph>
    <TTGlyph name="Ecircumflex" xMin="25" yMin="0" xMax="643" yMax="1757">
      <component glyphName="E" x="0" y="0" flags="0x204"/>
      <component glyphName="circumflex" x="31" y="395" flags="0x4"/>
    </TTGlyph>
    <TTGlyph name="Edieresis" xMin="25" yMin="0" xMax="643" yMax="1648">
      <component glyphName="E" x="0" y="0" flags="0x204"/>
      <component glyphName="dieresis" x="31" y="395" flags="0x4"/>
    </TTGlyph>
    <TTGlyph name="Edotaccent" xMin="25" yMin="0" xMax="643" yMax="1659">
      <component glyphName="E" x="0" y="0" flags="0x204"/>
      <component glyphName="dotaccent" x="33" y="395" flags="0x4"/>
    </TTGlyph>
    <TTGlyph name="Egrave" xMin="25" yMin="0" xMax="643" yMax="1751">
      <component glyphName="E" x="0" y="0" flags="0x204"/>
      <component glyphName="grave" x="31" y="395" flags="0x4"/>
    </TTGlyph>
    <TTGlyph name="Emacron" xMin="25" yMin="0" xMax="643" yMax="1612">
      <component glyphName="E" x="0" y="0" flags="0x204"/>
      <component glyphName="macron" x="31" y="395" flags="0x4"/>
    </TTGlyph>
    <TTGlyph name="Eng" xMin="25" yMin="-406" xMax="852" yMax="1374">
      <contour>
        <pt x="606" y="25" on="1"/>
        <pt x="272" y="1016" on="1"/>
        <pt x="272" y="113" on="1"/>
        <pt x="395" y="113" on="1"/>
        <pt x="395" y="0" on="1"/>
        <pt x="25" y="0" on="1"/>
        <pt x="25" y="113" on="1"/>
        <pt x="147" y="113" on="1"/>
        <pt x="147" y="1262" on="1"/>
        <pt x="25" y="1262" on="1"/>
        <pt x="25" y="1374" on="1"/>
        <pt x="264" y="1374" on="1"/>
        <pt x="606" y="358" on="1"/>
        <pt x="606" y="1262" on="1"/>
        <pt x="481" y="1262" on="1"/>
        <pt x="481" y="1374" on="1"/>
        <pt x="852" y="1374" on="1"/>
        <pt x="852" y="1262" on="1"/>
        <pt x="729" y="1262" on="1"/>
        <pt x="729" y="-14" on="1"/>
        <pt x="729" y="-122" on="0"/>
        <pt x="696" y="-271" on="0"/>
        <pt x="635" y="-364" on="0"/>
        <pt x="548" y="-406" on="0"/>
        <pt x="494" y="-406" on="1"/>
        <pt x="449" y="-406" on="0"/>
        <pt x="368" y="-374" on="0"/>
        <pt x="334" y="-336" on="1"/>
        <pt x="418" y="-250" on="1"/>
        <pt x="433" y="-270" on="0"/>
        <pt x="466" y="-291" on="0"/>
        <pt x="494" y="-291" on="1"/>
        <pt x="529" y="-291" on="0"/>
        <pt x="573" y="-255" on="0"/>
        <pt x="597" y="-183" on="0"/>
        <pt x="606" y="-77" on="0"/>
        <pt x="606" y="-8" on="1"/>
      </contour>
    </TTGlyph>
    <TTGlyph name="Eogonek" xMin="25" yMin="-356" xMax="643" yMax="1374">
      <contour>
        <pt x="520" y="963" on="1"/>
        <pt x="520" y="1262" on="1"/>
        <pt x="283" y="1262" on="1"/>
        <pt x="283" y="782" on="1"/>
        <pt x="504" y="782" on="1"/>
        <pt x="504" y="670" on="1"/>
        <pt x="283" y="670" on="1"/>
        <pt x="283" y="113" on="1"/>
        <pt x="535" y="113" on="1"/>
        <pt x="535" y="432" on="1"/>
        <pt x="643" y="432" on="1"/>
        <pt x="643" y="0" on="1"/>
        <pt x="566" y="-42" on="0"/>
        <pt x="496" y="-139" on="0"/>
        <pt x="496" y="-201" on="1"/>
        <pt x="496" y="-233" on="0"/>
        <pt x="526" y="-266" on="0"/>
        <pt x="551" y="-266" on="1"/>
        <pt x="569" y="-266" on="0"/>
        <pt x="598" y="-250" on="0"/>
        <pt x="610" y="-238" on="1"/>
        <pt x="643" y="-319" on="1"/>
        <pt x="617" y="-336" on="0"/>
        <pt x="553" y="-356" on="0"/>
        <pt x="522" y="-356" on="1"/>
        <pt x="453" y="-356" on="0"/>
        <pt x="387" y="-281" on="0"/>
        <pt x="387" y="-219" on="1"/>
        <pt x="387" y="-188" on="0"/>
        <pt x="407" y="-125" on="0"/>
        <pt x="442" y="-67" on="0"/>
        <pt x="489" y="-18" on="0"/>
        <pt x="516" y="0" on="1"/>
        <pt x="25" y="0" on="1"/>
        <pt x="25" y="113" on="1"/>
        <pt x="147" y="113" on="1"/>
        <pt x="147" y="1262" on="1"/>
        <pt x="25" y="1262" on="1"/>
        <pt x="25" y="1374" on="1"/>
        <pt x="629" y="1374" on="1"/>
        <pt x="629" y="963" on="1"/>
      </contour>
    </TTGlyph>
    <TTGlyph name="Eth" xMin="25" yMin="0" xMax="748" yMax="1374">
      <contour>
        <pt x="25" y="1374" on="1"/>
        <pt x="410" y="1374" on="1"/>
        <pt x="485" y="1374" on="0"/>
        <pt x="609" y="1308" on="0"/>
        <pt x="699" y="1149" on="0"/>
        <pt x="748" y="885" on="0"/>
        <pt x="748" y="688" on="1"/>
        <pt x="748" y="490" on="0"/>
        <pt x="699" y="225" on="0"/>
        <pt x="610" y="66" on="0"/>
        <pt x="486" y="0" on="0"/>
        <pt x="410" y="0" on="1"/>
        <pt x="25" y="0" on="1"/>
        <pt x="25" y="113" on="1"/>
        <pt x="147" y="113" on="1"/>
        <pt x="147" y="643" on="1"/>
        <pt x="25" y="643" on="1"/>
        <pt x="25" y="752" on="1"/>
        <pt x="147" y="752" on="1"/>
        <pt x="147" y="1262" on="1"/>
        <pt x="25" y="1262" on="1"/>
      </contour>
      <contour>
        <pt x="272" y="643" on="1"/>
        <pt x="272" y="113" on="1"/>
        <pt x="414" y="113" on="1"/>
        <pt x="462" y="113" on="0"/>
        <pt x="538" y="167" on="0"/>
        <pt x="591" y="298" on="0"/>
        <pt x="618" y="520" on="0"/>
        <pt x="618" y="688" on="1"/>
        <pt x="618" y="856" on="0"/>
        <pt x="591" y="1078" on="0"/>
        <pt x="538" y="1209" on="0"/>
        <pt x="462" y="1262" on="0"/>
        <pt x="414" y="1262" on="1"/>
        <pt x="272" y="1262" on="1"/>
        <pt x="272" y="752" on="1"/>
        <pt x="451" y="752" on="1"/>
        <pt x="451" y="643" on="1"/>
      </contour>
    </TTGlyph>
    <TTGlyph name="Euro" xMin="8" yMin="-27" xMax="721" yMax="1399">
      <contour>
        <pt x="123" y="618" on="1"/>
        <pt x="123" y="686" on="1"/>
        <pt x="123" y="764" on="1"/>
        <pt x="8" y="764" on="1"/>
        <pt x="35" y="864" on="1"/>
        <pt x="129" y="864" on="1"/>
        <pt x="141" y="997" on="0"/>
        <pt x="197" y="1198" on="0"/>
        <pt x="275" y="1332" on="0"/>
        <pt x="372" y="1399" on="0"/>
        <pt x="424" y="1399" on="1"/>
        <pt x="481" y="1399" on="0"/>
        <pt x="554" y="1342" on="0"/>
        <pt x="582" y="1300" on="1"/>
        <pt x="582" y="1374" on="1"/>
        <pt x="690" y="1374" on="1"/>
        <pt x="690" y="983" on="1"/>
        <pt x="582" y="983" on="1"/>
        <pt x="582" y="1038" on="1"/>
        <pt x="582" y="1098" on="0"/>
        <pt x="559" y="1190" on="0"/>
        <pt x="520" y="1253" on="0"/>
        <pt x="470" y="1286" on="0"/>
        <pt x="442" y="1286" on="1"/>
        <pt x="403" y="1286" on="0"/>
        <pt x="342" y="1228" on="0"/>
        <pt x="298" y="1119" on="0"/>
        <pt x="270" y="962" on="0"/>
        <pt x="264" y="864" on="1"/>
        <pt x="561" y="864" on="1"/>
        <pt x="535" y="764" on="1"/>
        <pt x="260" y="764" on="1"/>
        <pt x="260" y="686" on="1"/>
        <pt x="260" y="618" on="1"/>
        <pt x="508" y="618" on="1"/>
        <pt x="481" y="518" on="1"/>
        <pt x="264" y="518" on="1"/>
        <pt x="270" y="417" on="0"/>
        <pt x="296" y="258" on="0"/>
        <pt x="340" y="147" on="0"/>
        <pt x="400" y="88" on="0"/>
        <pt x="440" y="88" on="1"/>
        <pt x="476" y="88" on="0"/>
        <pt x="529" y="140" on="0"/>
        <pt x="568" y="219" on="0"/>
        <pt x="595" y="311" on="0"/>
        <pt x="606" y="352" on="1"/>
        <pt x="721" y="352" on="1"/>
        <pt x="703" y="263" on="0"/>
        <pt x="648" y="122" on="0"/>
        <pt x="576" y="25" on="0"/>
        <pt x="486" y="-27" on="0"/>
        <pt x="432" y="-27" on="1"/>
        <pt x="309" y="-27" on="0"/>
        <pt x="149" y="246" on="0"/>
        <pt x="129" y="518" on="1"/>
        <pt x="8" y="518" on="1"/>
        <pt x="35" y="618" on="1"/>
      </contour>
    </TTGlyph>
    <TTGlyph name="F" xMin="25" yMin="0" xMax="610" yMax="1374">
      <contour>
        <pt x="502" y="963" on="1"/>
        <pt x="502" y="1262" on="1"/>
        <pt x="272" y="1262" on="1"/>
        <pt x="272" y="762" on="1"/>
        <pt x="506" y="762" on="1"/>
        <pt x="506" y="649" on="1"/>
        <pt x="272" y="649" on="1"/>
        <pt x="272" y="113" on="1"/>
        <pt x="422" y="113" on="1"/>
        <pt x="422" y="0" on="1"/>
        <pt x="25" y="0" on="1"/>
        <pt x="25" y="113" on="1"/>
        <pt x="147" y="113" on="1"/>
        <pt x="147" y="1262" on="1"/>
        <pt x="25" y="1262" on="1"/>
        <pt x="25" y="1374" on="1"/>
        <pt x="610" y="1374" on="1"/>
        <pt x="610" y="963" on="1"/>
      </contour>
    </TTGlyph>
    <TTGlyph name="G" xMin="55" yMin="-27" xMax="762" yMax="1399">
      <contour>
        <pt x="555" y="0" on="1"/>
        <pt x="555" y="61" on="1"/>
        <pt x="510" y="10" on="0"/>
        <pt x="419" y="-27" on="0"/>
        <pt x="371" y="-27" on="1"/>
        <pt x="303" y="-27" on="0"/>
        <pt x="187" y="60" on="0"/>
        <pt x="103" y="237" on="0"/>
        <pt x="55" y="505" on="0"/>
        <pt x="55" y="686" on="1"/>
        <pt x="55" y="867" on="0"/>
        <pt x="110" y="1135" on="0"/>
        <pt x="201" y="1312" on="0"/>
        <pt x="319" y="1399" on="0"/>
        <pt x="383" y="1399" on="1"/>
        <pt x="418" y="1399" on="0"/>
        <pt x="472" y="1383" on="0"/>
        <pt x="515" y="1355" on="0"/>
        <pt x="550" y="1318" on="0"/>
        <pt x="565" y="1296" on="1"/>
        <pt x="565" y="1374" on="1"/>
        <pt x="676" y="1374" on="1"/>
        <pt x="676" y="936" on="1"/>
        <pt x="565" y="936" on="1"/>
        <pt x="565" y="1049" on="1"/>
        <pt x="565" y="1109" on="0"/>
        <pt x="535" y="1198" on="0"/>
        <pt x="487" y="1257" on="0"/>
        <pt x="430" y="1286" on="0"/>
        <pt x="403" y="1286" on="1"/>
        <pt x="288" y="1286" on="0"/>
        <pt x="184" y="989" on="0"/>
        <pt x="184" y="686" on="1"/>
        <pt x="184" y="555" on="0"/>
        <pt x="212" y="334" on="0"/>
        <pt x="268" y="174" on="0"/>
        <pt x="352" y="84" on="0"/>
        <pt x="408" y="84" on="1"/>
        <pt x="450" y="84" on="0"/>
        <pt x="526" y="142" on="0"/>
        <pt x="555" y="188" on="1"/>
        <pt x="555" y="571" on="1"/>
        <pt x="432" y="571" on="1"/>
        <pt x="432" y="684" on="1"/>
        <pt x="762" y="684" on="1"/>
        <pt x="762" y="571" on="1"/>
        <pt x="680" y="571" on="1"/>
        <pt x="680" y="0" on="1"/>
      </contour>
    </TTGlyph>
    <TTGlyph name="Gbreve" xMin="55" yMin="-27" xMax="762" yMax="1706">
      <component glyphName="G" x="0" y="0" flags="0x204"/>
      <component glyphName="breve" x="100" y="395" flags="0x4"/>
    </TTGlyph>
    <TTGlyph name="Gcircumflex" xMin="55" yMin="-27" xMax="762" yMax="1757">
      <component glyphName="G" x="0" y="0" flags="0x204"/>
      <component glyphName="circumflex" x="100" y="395" flags="0x4"/>
    </TTGlyph>
    <TTGlyph name="Gcommaaccent" xMin="55" yMin="-416" xMax="762" yMax="1399">
      <component glyphName="G" x="0" y="0" flags="0x204"/>
      <component glyphName="commaaccent" x="104" y="0" flags="0x4"/>
    </TTGlyph>
    <TTGlyph name="Gdotaccent" xMin="55" yMin="-27" xMax="762" yMax="1659">
      <component glyphName="G" x="0" y="0" flags="0x204"/>
      <component glyphName="dotaccent" x="102" y="395" flags="0x4"/>
    </TTGlyph>
    <TTGlyph name="H" xMin="25" yMin="0" xMax="862" yMax="1374">
      <contour>
        <pt x="25" y="1374" on="1"/>
        <pt x="395" y="1374" on="1"/>
        <pt x="395" y="1262" on="1"/>
        <pt x="272" y="1262" on="1"/>
        <pt x="272" y="782" on="1"/>
        <pt x="614" y="782" on="1"/>
        <pt x="614" y="1262" on="1"/>
        <pt x="492" y="1262" on="1"/>
        <pt x="492" y="1374" on="1"/>
        <pt x="862" y="1374" on="1"/>
        <pt x="862" y="1262" on="1"/>
        <pt x="739" y="1262" on="1"/>
        <pt x="739" y="113" on="1"/>
        <pt x="862" y="113" on="1"/>
        <pt x="862" y="0" on="1"/>
        <pt x="492" y="0" on="1"/>
        <pt x="492" y="113" on="1"/>
        <pt x="614" y="113" on="1"/>
        <pt x="614" y="666" on="1"/>
        <pt x="272" y="666" on="1"/>
        <pt x="272" y="113" on="1"/>
        <pt x="395" y="113" on="1"/>
        <pt x="395" y="0" on="1"/>
        <pt x="25" y="0" on="1"/>
        <pt x="25" y="113" on="1"/>
        <pt x="147" y="113" on="1"/>
        <pt x="147" y="1262" on="1"/>
        <pt x="25" y="1262" on="1"/>
      </contour>
    </TTGlyph>
    <TTGlyph name="Hbar" xMin="25" yMin="0" xMax="862" yMax="1374">
      <contour>
        <pt x="739" y="971" on="1"/>
        <pt x="739" y="113" on="1"/>
        <pt x="862" y="113" on="1"/>
        <pt x="862" y="0" on="1"/>
        <pt x="492" y="0" on="1"/>
        <pt x="492" y="113" on="1"/>
        <pt x="614" y="113" on="1"/>
        <pt x="614" y="666" on="1"/>
        <pt x="272" y="666" on="1"/>
        <pt x="272" y="113" on="1"/>
        <pt x="395" y="113" on="1"/>
        <pt x="395" y="0" on="1"/>
        <pt x="25" y="0" on="1"/>
        <pt x="25" y="113" on="1"/>
        <pt x="147" y="113" on="1"/>
        <pt x="147" y="971" on="1"/>
        <pt x="25" y="971" on="1"/>
        <pt x="25" y="1075" on="1"/>
        <pt x="147" y="1075" on="1"/>
        <pt x="147" y="1262" on="1"/>
        <pt x="25" y="1262" on="1"/>
        <pt x="25" y="1374" on="1"/>
        <pt x="395" y="1374" on="1"/>
        <pt x="395" y="1262" on="1"/>
        <pt x="272" y="1262" on="1"/>
        <pt x="272" y="1075" on="1"/>
        <pt x="614" y="1075" on="1"/>
        <pt x="614" y="1262" on="1"/>
        <pt x="492" y="1262" on="1"/>
        <pt x="492" y="1374" on="1"/>
        <pt x="862" y="1374" on="1"/>
        <pt x="862" y="1262" on="1"/>
        <pt x="739" y="1262" on="1"/>
        <pt x="739" y="1075" on="1"/>
        <pt x="862" y="1075" on="1"/>
        <pt x="862" y="971" on="1"/>
      </contour>
      <contour>
        <pt x="614" y="782" on="1"/>
        <pt x="614" y="971" on="1"/>
        <pt x="272" y="971" on="1"/>
        <pt x="272" y="782" on="1"/>
      </contour>
    </TTGlyph>
    <TTGlyph name="Hcircumflex" xMin="25" yMin="0" xMax="862" yMax="1757">
      <component glyphName="H" x="0" y="0" flags="0x204"/>
      <component glyphName="circumflex" x="135" y="395" flags="0x4"/>
    </TTGlyph>
    <TTGlyph name="I" xMin="25" yMin="0" xMax="395" yMax="1374">
      <contour>
        <pt x="25" y="1374" on="1"/>
        <pt x="395" y="1374" on="1"/>
        <pt x="395" y="1262" on="1"/>
        <pt x="272" y="1262" on="1"/>
        <pt x="272" y="113" on="1"/>
        <pt x="395" y="113" on="1"/>
        <pt x="395" y="0" on="1"/>
        <pt x="25" y="0" on="1"/>
        <pt x="25" y="113" on="1"/>
        <pt x="147" y="113" on="1"/>
        <pt x="147" y="1262" on="1"/>
        <pt x="25" y="1262" on="1"/>
      </contour>
    </TTGlyph>
    <TTGlyph name="IJ" xMin="25" yMin="-16" xMax="1045" yMax="1374">
      <component glyphName="I" x="0" y="0" flags="0x4"/>
      <component glyphName="J" x="420" y="0" flags="0x4"/>
    </TTGlyph>
    <TTGlyph name="Iacute" xMin="25" yMin="0" xMax="421" yMax="1751">
      <component glyphName="I" x="0" y="0" flags="0x204"/>
      <component glyphName="acute" x="-95" y="395" flags="0x4"/>
    </TTGlyph>
    <TTGlyph name="Ibreve" xMin="-9" yMin="0" xMax="435" yMax="1706">
      <component glyphName="I" x="0" y="0" flags="0x204"/>
      <component glyphName="breve" x="-95" y="395" flags="0x4"/>
    </TTGlyph>
    <TTGlyph name="Icircumflex" xMin="-44" yMin="0" xMax="468" yMax="1757">
      <component glyphName="I" x="0" y="0" flags="0x204"/>
      <component glyphName="circumflex" x="-95" y="395" flags="0x4"/>
    </TTGlyph>
    <TTGlyph name="Idieresis" xMin="3" yMin="0" xMax="421" yMax="1648">
      <component glyphName="I" x="0" y="0" flags="0x204"/>
      <component glyphName="dieresis" x="-95" y="395" flags="0x4"/>
    </TTGlyph>
    <TTGlyph name="Idotaccent" xMin="25" yMin="0" xMax="395" yMax="1659">
      <component glyphName="I" x="0" y="0" flags="0x204"/>
      <component glyphName="dotaccent" x="-93" y="395" flags="0x4"/>
    </TTGlyph>
    <TTGlyph name="Igrave" xMin="3" yMin="0" xMax="395" yMax="1751">
      <component glyphName="I" x="0" y="0" flags="0x204"/>
      <component glyphName="grave" x="-95" y="395" flags="0x4"/>
    </TTGlyph>
    <TTGlyph name="Imacron" xMin="20" yMin="0" xMax="405" yMax="1612">
      <component glyphName="I" x="0" y="0" flags="0x204"/>
      <component glyphName="macron" x="-95" y="395" flags="0x4"/>
    </TTGlyph>
    <TTGlyph name="Iogonek" xMin="25" yMin="-356" xMax="395" yMax="1374">
      <contour>
        <pt x="25" y="1374" on="1"/>
        <pt x="395" y="1374" on="1"/>
        <pt x="395" y="1262" on="1"/>
        <pt x="272" y="1262" on="1"/>
        <pt x="272" y="113" on="1"/>
        <pt x="395" y="113" on="1"/>
        <pt x="395" y="0" on="1"/>
        <pt x="270" y="0" on="1"/>
        <pt x="235" y="-43" on="0"/>
        <pt x="186" y="-139" on="0"/>
        <pt x="186" y="-201" on="1"/>
        <pt x="186" y="-233" on="0"/>
        <pt x="217" y="-266" on="0"/>
        <pt x="242" y="-266" on="1"/>
        <pt x="260" y="-266" on="0"/>
        <pt x="289" y="-250" on="0"/>
        <pt x="301" y="-238" on="1"/>
        <pt x="334" y="-319" on="1"/>
        <pt x="308" y="-335" on="0"/>
        <pt x="246" y="-356" on="0"/>
        <pt x="211" y="-356" on="1"/>
        <pt x="146" y="-356" on="0"/>
        <pt x="78" y="-285" on="0"/>
        <pt x="78" y="-219" on="1"/>
        <pt x="78" y="-192" on="0"/>
        <pt x="93" y="-135" on="0"/>
        <pt x="118" y="-78" on="0"/>
        <pt x="153" y="-24" on="0"/>
        <pt x="174" y="0" on="1"/>
        <pt x="25" y="0" on="1"/>
        <pt x="25" y="113" on="1"/>
        <pt x="147" y="113" on="1"/>
        <pt x="147" y="1262" on="1"/>
        <pt x="25" y="1262" on="1"/>
      </contour>
    </TTGlyph>
    <TTGlyph name="Itilde" xMin="-21" yMin="0" xMax="446" yMax="1706">
      <component glyphName="I" x="0" y="0" flags="0x204"/>
      <component glyphName="tilde" x="-95" y="395" flags="0x4"/>
    </TTGlyph>
    <TTGlyph name="J" xMin="35" yMin="-16" xMax="625" yMax="1374">
      <contour>
        <pt x="233" y="1374" on="1"/>
        <pt x="625" y="1374" on="1"/>
        <pt x="625" y="1262" on="1"/>
        <pt x="502" y="1262" on="1"/>
        <pt x="502" y="375" on="1"/>
        <pt x="502" y="267" on="0"/>
        <pt x="469" y="118" on="0"/>
        <pt x="408" y="25" on="0"/>
        <pt x="321" y="-16" on="0"/>
        <pt x="266" y="-16" on="1"/>
        <pt x="212" y="-16" on="0"/>
        <pt x="127" y="20" on="0"/>
        <pt x="67" y="119" on="0"/>
        <pt x="35" y="295" on="0"/>
        <pt x="35" y="434" on="1"/>
        <pt x="160" y="434" on="1"/>
        <pt x="161" y="340" on="0"/>
        <pt x="168" y="212" on="0"/>
        <pt x="189" y="133" on="0"/>
        <pt x="231" y="98" on="0"/>
        <pt x="266" y="98" on="1"/>
        <pt x="301" y="98" on="0"/>
        <pt x="345" y="135" on="0"/>
        <pt x="369" y="206" on="0"/>
        <pt x="377" y="312" on="0"/>
        <pt x="377" y="381" on="1"/>
        <pt x="377" y="1262" on="1"/>
        <pt x="233" y="1262" on="1"/>
      </contour>
    </TTGlyph>
    <TTGlyph name="Jcircumflex" xMin="35" yMin="-16" xMax="694" yMax="1757">
      <component glyphName="J" x="0" y="0" flags="0x204"/>
      <component glyphName="circumflex" x="131" y="395" flags="0x4"/>
    </TTGlyph>
    <TTGlyph name="K" xMin="25" yMin="0" xMax="791" yMax="1374">
      <contour>
        <pt x="25" y="1374" on="1"/>
        <pt x="395" y="1374" on="1"/>
        <pt x="395" y="1262" on="1"/>
        <pt x="272" y="1262" on="1"/>
        <pt x="272" y="793" on="1"/>
        <pt x="526" y="1262" on="1"/>
        <pt x="451" y="1262" on="1"/>
        <pt x="451" y="1374" on="1"/>
        <pt x="756" y="1374" on="1"/>
        <pt x="756" y="1262" on="1"/>
        <pt x="653" y="1262" on="1"/>
        <pt x="395" y="784" on="1"/>
        <pt x="678" y="113" on="1"/>
        <pt x="791" y="113" on="1"/>
        <pt x="791" y="0" on="1"/>
        <pt x="465" y="0" on="1"/>
        <pt x="465" y="113" on="1"/>
        <pt x="549" y="113" on="1"/>
        <pt x="317" y="678" on="1"/>
        <pt x="272" y="596" on="1"/>
        <pt x="272" y="113" on="1"/>
        <pt x="395" y="113" on="1"/>
        <pt x="395" y="0" on="1"/>
        <pt x="25" y="0" on="1"/>
        <pt x="25" y="113" on="1"/>
        <pt x="147" y="113" on="1"/>
        <pt x="147" y="1262" on="1"/>
        <pt x="25" y="1262" on="1"/>
      </contour>
    </TTGlyph>
    <TTGlyph name="Kcommaaccent" xMin="25" yMin="-416" xMax="791" yMax="1374">
      <component glyphName="K" x="0" y="0" flags="0x204"/>
      <component glyphName="commaaccent" x="84" y="0" flags="0x4"/>
    </TTGlyph>
    <TTGlyph name="L" xMin="25" yMin="0" xMax="641" yMax="1374">
      <contour>
        <pt x="25" y="1374" on="1"/>
        <pt x="403" y="1374" on="1"/>
        <pt x="403" y="1262" on="1"/>
        <pt x="272" y="1262" on="1"/>
        <pt x="272" y="113" on="1"/>
        <pt x="532" y="113" on="1"/>
        <pt x="532" y="432" on="1"/>
        <pt x="641" y="432" on="1"/>
        <pt x="641" y="0" on="1"/>
        <pt x="25" y="0" on="1"/>
        <pt x="25" y="113" on="1"/>
        <pt x="147" y="113" on="1"/>
        <pt x="147" y="1262" on="1"/>
        <pt x="25" y="1262" on="1"/>
      </contour>
    </TTGlyph>
    <TTGlyph name="Lacute" xMin="25" yMin="0" xMax="641" yMax="1751">
      <component glyphName="L" x="0" y="0" flags="0x204"/>
      <component glyphName="acute" x="-95" y="395" flags="0x4"/>
    </TTGlyph>
    <TTGlyph name="Lcaron" xMin="25" yMin="0" xMax="641" yMax="1374">
      <component glyphName="L" x="0" y="0" flags="0x204"/>
      <component glyphName="uni0315" x="446" y="20" flags="0x4"/>
    </TTGlyph>
    <TTGlyph name="Lcommaaccent" xMin="25" yMin="-416" xMax="641" yMax="1374">
      <component glyphName="L" x="0" y="0" flags="0x204"/>
      <component glyphName="commaaccent" x="31" y="0" flags="0x4"/>
    </TTGlyph>
    <TTGlyph name="Ldot" xMin="25" yMin="0" xMax="653" yMax="1374">
      <component glyphName="L" x="0" y="0" flags="0x204"/>
      <component glyphName="periodcentered" x="393" y="18" flags="0x4"/>
    </TTGlyph>
    <TTGlyph name="Lslash" xMin="-12" yMin="0" xMax="641" yMax="1374">
      <contour>
        <pt x="272" y="582" on="1"/>
        <pt x="272" y="113" on="1"/>
        <pt x="532" y="113" on="1"/>
        <pt x="532" y="432" on="1"/>
        <pt x="641" y="432" on="1"/>
        <pt x="641" y="0" on="1"/>
        <pt x="25" y="0" on="1"/>
        <pt x="25" y="113" on="1"/>
        <pt x="147" y="113" on="1"/>
        <pt x="147" y="508" on="1"/>
        <pt x="43" y="446" on="1"/>
        <pt x="-12" y="543" on="1"/>
        <pt x="147" y="637" on="1"/>
        <pt x="147" y="1262" on="1"/>
        <pt x="25" y="1262" on="1"/>
        <pt x="25" y="1374" on="1"/>
        <pt x="403" y="1374" on="1"/>
        <pt x="403" y="1262" on="1"/>
        <pt x="272" y="1262" on="1"/>
        <pt x="272" y="711" on="1"/>
        <pt x="420" y="797" on="1"/>
        <pt x="475" y="700" on="1"/>
      </contour>
    </TTGlyph>
    <TTGlyph name="M" xMin="25" yMin="0" xMax="1059" yMax="1374">
      <contour>
        <pt x="25" y="1374" on="1"/>
        <pt x="330" y="1374" on="1"/>
        <pt x="543" y="246" on="1"/>
        <pt x="752" y="1374" on="1"/>
        <pt x="1059" y="1374" on="1"/>
        <pt x="1059" y="1262" on="1"/>
        <pt x="936" y="1262" on="1"/>
        <pt x="936" y="113" on="1"/>
        <pt x="1059" y="113" on="1"/>
        <pt x="1059" y="0" on="1"/>
        <pt x="709" y="0" on="1"/>
        <pt x="709" y="113" on="1"/>
        <pt x="815" y="113" on="1"/>
        <pt x="815" y="1149" on="1"/>
        <pt x="594" y="0" on="1"/>
        <pt x="489" y="0" on="1"/>
        <pt x="268" y="1153" on="1"/>
        <pt x="268" y="113" on="1"/>
        <pt x="375" y="113" on="1"/>
        <pt x="375" y="0" on="1"/>
        <pt x="25" y="0" on="1"/>
        <pt x="25" y="113" on="1"/>
        <pt x="147" y="113" on="1"/>
        <pt x="147" y="1262" on="1"/>
        <pt x="25" y="1262" on="1"/>
      </contour>
    </TTGlyph>
    <TTGlyph name="N" xMin="25" yMin="0" xMax="852" yMax="1374">
      <contour>
        <pt x="25" y="1374" on="1"/>
        <pt x="264" y="1374" on="1"/>
        <pt x="606" y="354" on="1"/>
        <pt x="606" y="1262" on="1"/>
        <pt x="481" y="1262" on="1"/>
        <pt x="481" y="1374" on="1"/>
        <pt x="852" y="1374" on="1"/>
        <pt x="852" y="1262" on="1"/>
        <pt x="729" y="1262" on="1"/>
        <pt x="729" y="0" on="1"/>
        <pt x="614" y="0" on="1"/>
        <pt x="272" y="1016" on="1"/>
        <pt x="272" y="113" on="1"/>
        <pt x="395" y="113" on="1"/>
        <pt x="395" y="0" on="1"/>
        <pt x="25" y="0" on="1"/>
        <pt x="25" y="113" on="1"/>
        <pt x="147" y="113" on="1"/>
        <pt x="147" y="1262" on="1"/>
        <pt x="25" y="1262" on="1"/>
      </contour>
    </TTGlyph>
    <TTGlyph name="Nacute" xMin="25" yMin="0" xMax="852" yMax="1751">
      <component glyphName="N" x="0" y="0" flags="0x204"/>
      <component glyphName="acute" x="135" y="395" flags="0x4"/>
    </TTGlyph>
    <TTGlyph name="Ncaron" xMin="25" yMin="0" xMax="852" yMax="1757">
      <component glyphName="N" x="0" y="0" flags="0x204"/>
      <component glyphName="caron" x="135" y="395" flags="0x4"/>
    </TTGlyph>
    <TTGlyph name="Ncommaaccent" xMin="25" yMin="-416" xMax="852" yMax="1374">
      <component glyphName="N" x="0" y="0" flags="0x204"/>
      <component glyphName="commaaccent" x="127" y="0" flags="0x4"/>
    </TTGlyph>
    <TTGlyph name="Ntilde" xMin="25" yMin="0" xMax="852" yMax="1706">
      <component glyphName="N" x="0" y="0" flags="0x204"/>
      <component glyphName="tilde" x="135" y="395" flags="0x4"/>
    </TTGlyph>
    <TTGlyph name="O" xMin="55" yMin="-27" xMax="754" yMax="1399">
      <contour>
        <pt x="754" y="686" on="1"/>
        <pt x="754" y="501" on="0"/>
        <pt x="700" y="232" on="0"/>
        <pt x="607" y="57" on="0"/>
        <pt x="479" y="-27" on="0"/>
        <pt x="406" y="-27" on="1"/>
        <pt x="331" y="-27" on="0"/>
        <pt x="203" y="57" on="0"/>
        <pt x="109" y="232" on="0"/>
        <pt x="55" y="501" on="0"/>
        <pt x="55" y="686" on="1"/>
        <pt x="55" y="870" on="0"/>
        <pt x="109" y="1139" on="0"/>
        <pt x="204" y="1315" on="0"/>
        <pt x="332" y="1399" on="0"/>
        <pt x="406" y="1399" on="1"/>
        <pt x="479" y="1399" on="0"/>
        <pt x="607" y="1315" on="0"/>
        <pt x="700" y="1140" on="0"/>
        <pt x="754" y="871" on="0"/>
      </contour>
      <contour>
        <pt x="616" y="686" on="1"/>
        <pt x="616" y="978" on="0"/>
        <pt x="510" y="1284" on="0"/>
        <pt x="406" y="1284" on="1"/>
        <pt x="299" y="1284" on="0"/>
        <pt x="193" y="975" on="0"/>
        <pt x="193" y="686" on="1"/>
        <pt x="193" y="394" on="0"/>
        <pt x="299" y="88" on="0"/>
        <pt x="406" y="88" on="1"/>
        <pt x="510" y="88" on="0"/>
        <pt x="616" y="394" on="0"/>
      </contour>
    </TTGlyph>
    <TTGlyph name="OE" xMin="55" yMin="0" xMax="1032" yMax="1374">
      <contour>
        <pt x="537" y="113" on="1"/>
        <pt x="537" y="1262" on="1"/>
        <pt x="455" y="1262" on="1"/>
        <pt x="402" y="1262" on="0"/>
        <pt x="307" y="1190" on="0"/>
        <pt x="235" y="1046" on="0"/>
        <pt x="193" y="830" on="0"/>
        <pt x="193" y="686" on="1"/>
        <pt x="193" y="540" on="0"/>
        <pt x="235" y="325" on="0"/>
        <pt x="307" y="183" on="0"/>
        <pt x="402" y="113" on="0"/>
        <pt x="455" y="113" on="1"/>
      </contour>
      <contour>
        <pt x="455" y="0" on="1"/>
        <pt x="380" y="0" on="0"/>
        <pt x="237" y="76" on="0"/>
        <pt x="124" y="241" on="0"/>
        <pt x="55" y="501" on="0"/>
        <pt x="55" y="686" on="1"/>
        <pt x="55" y="870" on="0"/>
        <pt x="125" y="1132" on="0"/>
        <pt x="238" y="1297" on="0"/>
        <pt x="381" y="1374" on="0"/>
        <pt x="455" y="1374" on="1"/>
        <pt x="1018" y="1374" on="1"/>
        <pt x="1018" y="963" on="1"/>
        <pt x="909" y="963" on="1"/>
        <pt x="909" y="1262" on="1"/>
        <pt x="672" y="1262" on="1"/>
        <pt x="672" y="782" on="1"/>
        <pt x="893" y="782" on="1"/>
        <pt x="893" y="670" on="1"/>
        <pt x="672" y="670" on="1"/>
        <pt x="672" y="113" on="1"/>
        <pt x="924" y="113" on="1"/>
        <pt x="924" y="432" on="1"/>
        <pt x="1032" y="432" on="1"/>
        <pt x="1032" y="0" on="1"/>
      </contour>
    </TTGlyph>
    <TTGlyph name="Oacute" xMin="55" yMin="-27" xMax="754" yMax="1751">
      <component glyphName="O" x="0" y="0" flags="0x204"/>
      <component glyphName="acute" x="98" y="395" flags="0x4"/>
    </TTGlyph>
    <TTGlyph name="Obreve" xMin="55" yMin="-27" xMax="754" yMax="1706">
      <component glyphName="O" x="0" y="0" flags="0x204"/>
      <component glyphName="breve" x="98" y="395" flags="0x4"/>
    </TTGlyph>
    <TTGlyph name="Ocircumflex" xMin="55" yMin="-27" xMax="754" yMax="1757">
      <component glyphName="O" x="0" y="0" flags="0x204"/>
      <component glyphName="circumflex" x="98" y="395" flags="0x4"/>
    </TTGlyph>
    <TTGlyph name="Odieresis" xMin="55" yMin="-27" xMax="754" yMax="1648">
      <component glyphName="O" x="0" y="0" flags="0x204"/>
      <component glyphName="dieresis" x="98" y="395" flags="0x4"/>
    </TTGlyph>
    <TTGlyph name="Ograve" xMin="55" yMin="-27" xMax="754" yMax="1751">
      <component glyphName="O" x="0" y="0" flags="0x204"/>
      <component glyphName="grave" x="98" y="395" flags="0x4"/>
    </TTGlyph>
    <TTGlyph name="Ohungarumlaut" xMin="55" yMin="-27" xMax="754" yMax="1751">
      <component glyphName="O" x="0" y="0" flags="0x204"/>
      <component glyphName="hungarumlaut" x="154" y="395" flags="0x4"/>
    </TTGlyph>
    <TTGlyph name="Omacron" xMin="55" yMin="-27" xMax="754" yMax="1612">
      <component glyphName="O" x="0" y="0" flags="0x204"/>
      <component glyphName="macron" x="98" y="395" flags="0x4"/>
    </TTGlyph>
    <TTGlyph name="Oslash" xMin="55" yMin="-88" xMax="754" yMax="1460">
      <contour>
        <pt x="657" y="1219" on="1"/>
        <pt x="702" y="1131" on="0"/>
        <pt x="754" y="867" on="0"/>
        <pt x="754" y="686" on="1"/>
        <pt x="754" y="501" on="0"/>
        <pt x="700" y="232" on="0"/>
        <pt x="607" y="57" on="0"/>
        <pt x="479" y="-27" on="0"/>
        <pt x="406" y="-27" on="1"/>
        <pt x="301" y="-27" on="0"/>
        <pt x="221" y="53" on="1"/>
        <pt x="170" y="-88" on="1"/>
        <pt x="61" y="-88" on="1"/>
        <pt x="152" y="152" on="1"/>
        <pt x="105" y="240" on="0"/>
        <pt x="55" y="503" on="0"/>
        <pt x="55" y="686" on="1"/>
        <pt x="55" y="870" on="0"/>
        <pt x="109" y="1139" on="0"/>
        <pt x="204" y="1315" on="0"/>
        <pt x="332" y="1399" on="0"/>
        <pt x="406" y="1399" on="1"/>
        <pt x="455" y="1399" on="0"/>
        <pt x="548" y="1359" on="0"/>
        <pt x="586" y="1319" on="1"/>
        <pt x="639" y="1460" on="1"/>
        <pt x="748" y="1460" on="1"/>
      </contour>
      <contour>
        <pt x="616" y="686" on="1"/>
        <pt x="616" y="791" on="0"/>
        <pt x="602" y="965" on="0"/>
        <pt x="588" y="1034" on="1"/>
        <pt x="270" y="182" on="1"/>
        <pt x="296" y="136" on="0"/>
        <pt x="364" y="88" on="0"/>
        <pt x="406" y="88" on="1"/>
        <pt x="510" y="88" on="0"/>
        <pt x="616" y="394" on="0"/>
      </contour>
      <contour>
        <pt x="193" y="686" on="1"/>
        <pt x="193" y="580" on="0"/>
        <pt x="205" y="405" on="0"/>
        <pt x="219" y="336" on="1"/>
        <pt x="537" y="1188" on="1"/>
        <pt x="487" y="1284" on="0"/>
        <pt x="406" y="1284" on="1"/>
        <pt x="299" y="1284" on="0"/>
        <pt x="193" y="975" on="0"/>
      </contour>
    </TTGlyph>
    <TTGlyph name="Oslashacute" xMin="55" yMin="-88" xMax="754" yMax="1751">
      <component glyphName="Oslash" x="0" y="0" flags="0x204"/>
      <component glyphName="acute" x="100" y="395" flags="0x4"/>
    </TTGlyph>
    <TTGlyph name="Otilde" xMin="55" yMin="-27" xMax="754" yMax="1706">
      <component glyphName="O" x="0" y="0" flags="0x204"/>
      <component glyphName="tilde" x="98" y="395" flags="0x4"/>
    </TTGlyph>
    <TTGlyph name="P" xMin="25" yMin="0" xMax="684" yMax="1374">
      <contour>
        <pt x="25" y="1374" on="1"/>
        <pt x="424" y="1374" on="1"/>
        <pt x="552" y="1374" on="0"/>
        <pt x="684" y="1160" on="0"/>
        <pt x="684" y="952" on="1"/>
        <pt x="684" y="745" on="0"/>
        <pt x="552" y="528" on="0"/>
        <pt x="424" y="528" on="1"/>
        <pt x="272" y="528" on="1"/>
        <pt x="272" y="113" on="1"/>
        <pt x="395" y="113" on="1"/>
        <pt x="395" y="0" on="1"/>
        <pt x="25" y="0" on="1"/>
        <pt x="25" y="113" on="1"/>
        <pt x="147" y="113" on="1"/>
        <pt x="147" y="1262" on="1"/>
        <pt x="25" y="1262" on="1"/>
      </contour>
      <contour>
        <pt x="547" y="952" on="1"/>
        <pt x="547" y="1050" on="0"/>
        <pt x="525" y="1172" on="0"/>
        <pt x="483" y="1239" on="0"/>
        <pt x="425" y="1262" on="0"/>
        <pt x="389" y="1262" on="1"/>
        <pt x="272" y="1262" on="1"/>
        <pt x="272" y="641" on="1"/>
        <pt x="389" y="641" on="1"/>
        <pt x="403" y="641" on="0"/>
        <pt x="437" y="641" on="0"/>
        <pt x="472" y="654" on="0"/>
        <pt x="505" y="688" on="0"/>
        <pt x="531" y="757" on="0"/>
        <pt x="547" y="868" on="0"/>
      </contour>
    </TTGlyph>
    <TTGlyph name="Q" xMin="55" yMin="-45" xMax="877" yMax="1399">
      <contour>
        <pt x="754" y="686" on="1"/>
        <pt x="754" y="510" on="0"/>
        <pt x="705" y="252" on="0"/>
        <pt x="662" y="164" on="1"/>
        <pt x="713" y="133" on="0"/>
        <pt x="823" y="89" on="0"/>
        <pt x="877" y="80" on="1"/>
        <pt x="827" y="-45" on="1"/>
        <pt x="770" y="-25" on="0"/>
        <pt x="659" y="37" on="0"/>
        <pt x="606" y="74" on="1"/>
        <pt x="564" y="23" on="0"/>
        <pt x="463" y="-27" on="0"/>
        <pt x="406" y="-27" on="1"/>
        <pt x="331" y="-27" on="0"/>
        <pt x="203" y="57" on="0"/>
        <pt x="109" y="232" on="0"/>
        <pt x="55" y="501" on="0"/>
        <pt x="55" y="686" on="1"/>
        <pt x="55" y="870" on="0"/>
        <pt x="109" y="1139" on="0"/>
        <pt x="204" y="1315" on="0"/>
        <pt x="332" y="1399" on="0"/>
        <pt x="406" y="1399" on="1"/>
        <pt x="479" y="1399" on="0"/>
        <pt x="607" y="1315" on="0"/>
        <pt x="700" y="1140" on="0"/>
        <pt x="754" y="871" on="0"/>
      </contour>
      <contour>
        <pt x="616" y="686" on="1"/>
        <pt x="616" y="978" on="0"/>
        <pt x="510" y="1284" on="0"/>
        <pt x="406" y="1284" on="1"/>
        <pt x="299" y="1284" on="0"/>
        <pt x="193" y="975" on="0"/>
        <pt x="193" y="686" on="1"/>
        <pt x="193" y="394" on="0"/>
        <pt x="299" y="88" on="0"/>
        <pt x="406" y="88" on="1"/>
        <pt x="469" y="88" on="0"/>
        <pt x="516" y="150" on="1"/>
        <pt x="467" y="195" on="0"/>
        <pt x="428" y="246" on="1"/>
        <pt x="479" y="326" on="1"/>
        <pt x="512" y="278" on="0"/>
        <pt x="561" y="236" on="1"/>
        <pt x="616" y="388" on="0"/>
      </contour>
    </TTGlyph>
    <TTGlyph name="R" xMin="25" yMin="0" xMax="768" yMax="1374">
      <contour>
        <pt x="451" y="113" on="1"/>
        <pt x="524" y="113" on="1"/>
        <pt x="362" y="592" on="1"/>
        <pt x="334" y="592" on="1"/>
        <pt x="272" y="592" on="1"/>
        <pt x="272" y="113" on="1"/>
        <pt x="395" y="113" on="1"/>
        <pt x="395" y="0" on="1"/>
        <pt x="25" y="0" on="1"/>
        <pt x="25" y="113" on="1"/>
        <pt x="147" y="113" on="1"/>
        <pt x="147" y="1262" on="1"/>
        <pt x="25" y="1262" on="1"/>
        <pt x="25" y="1374" on="1"/>
        <pt x="401" y="1374" on="1"/>
        <pt x="532" y="1374" on="0"/>
        <pt x="657" y="1178" on="0"/>
        <pt x="657" y="979" on="1"/>
        <pt x="657" y="824" on="0"/>
        <pt x="573" y="640" on="0"/>
        <pt x="479" y="606" on="1"/>
        <pt x="657" y="113" on="1"/>
        <pt x="768" y="113" on="1"/>
        <pt x="768" y="0" on="1"/>
        <pt x="451" y="0" on="1"/>
      </contour>
      <contour>
        <pt x="520" y="979" on="1"/>
        <pt x="520" y="1067" on="0"/>
        <pt x="506" y="1178" on="0"/>
        <pt x="472" y="1240" on="0"/>
        <pt x="417" y="1262" on="0"/>
        <pt x="377" y="1262" on="1"/>
        <pt x="272" y="1262" on="1"/>
        <pt x="272" y="705" on="1"/>
        <pt x="375" y="705" on="1"/>
        <pt x="415" y="705" on="0"/>
        <pt x="471" y="724" on="0"/>
        <pt x="505" y="783" on="0"/>
        <pt x="520" y="890" on="0"/>
      </contour>
    </TTGlyph>
    <TTGlyph name="Racute" xMin="25" yMin="0" xMax="768" yMax="1751">
      <component glyphName="R" x="0" y="0" flags="0x204"/>
      <component glyphName="acute" x="31" y="395" flags="0x4"/>
    </TTGlyph>
    <TTGlyph name="Rcaron" xMin="25" yMin="0" xMax="768" yMax="1757">
      <component glyphName="R" x="0" y="0" flags="0x204"/>
      <component glyphName="caron" x="45" y="395" flags="0x4"/>
    </TTGlyph>
    <TTGlyph name="Rcommaaccent" xMin="25" yMin="-416" xMax="768" yMax="1374">
      <component glyphName="R" x="0" y="0" flags="0x204"/>
      <component glyphName="commaaccent" x="80" y="0" flags="0x4"/>
    </TTGlyph>
    <TTGlyph name="S" xMin="49" yMin="-27" xMax="618" yMax="1399">
      <contour>
        <pt x="49" y="0" on="1"/>
        <pt x="49" y="453" on="1"/>
        <pt x="158" y="453" on="1"/>
        <pt x="158" y="291" on="1"/>
        <pt x="158" y="230" on="0"/>
        <pt x="189" y="150" on="0"/>
        <pt x="236" y="102" on="0"/>
        <pt x="291" y="82" on="0"/>
        <pt x="315" y="82" on="1"/>
        <pt x="349" y="82" on="0"/>
        <pt x="411" y="110" on="0"/>
        <pt x="459" y="171" on="0"/>
        <pt x="487" y="269" on="0"/>
        <pt x="487" y="340" on="1"/>
        <pt x="487" y="408" on="0"/>
        <pt x="451" y="507" on="0"/>
        <pt x="391" y="582" on="0"/>
        <pt x="315" y="640" on="0"/>
        <pt x="235" y="699" on="0"/>
        <pt x="159" y="763" on="0"/>
        <pt x="99" y="850" on="0"/>
        <pt x="63" y="967" on="0"/>
        <pt x="63" y="1047" on="1"/>
        <pt x="63" y="1144" on="0"/>
        <pt x="109" y="1278" on="0"/>
        <pt x="181" y="1362" on="0"/>
        <pt x="268" y="1399" on="0"/>
        <pt x="309" y="1399" on="1"/>
        <pt x="330" y="1399" on="0"/>
        <pt x="375" y="1389" on="0"/>
        <pt x="418" y="1369" on="0"/>
        <pt x="456" y="1338" on="0"/>
        <pt x="471" y="1317" on="1"/>
        <pt x="471" y="1374" on="1"/>
        <pt x="580" y="1374" on="1"/>
        <pt x="580" y="963" on="1"/>
        <pt x="471" y="963" on="1"/>
        <pt x="471" y="1116" on="1"/>
        <pt x="471" y="1167" on="0"/>
        <pt x="444" y="1234" on="0"/>
        <pt x="405" y="1274" on="0"/>
        <pt x="361" y="1290" on="0"/>
        <pt x="344" y="1290" on="1"/>
        <pt x="313" y="1290" on="0"/>
        <pt x="258" y="1262" on="0"/>
        <pt x="217" y="1203" on="0"/>
        <pt x="193" y="1113" on="0"/>
        <pt x="193" y="1051" on="1"/>
        <pt x="193" y="989" on="0"/>
        <pt x="230" y="898" on="0"/>
        <pt x="289" y="827" on="0"/>
        <pt x="366" y="767" on="0"/>
        <pt x="445" y="707" on="0"/>
        <pt x="522" y="638" on="0"/>
        <pt x="581" y="548" on="0"/>
        <pt x="618" y="429" on="0"/>
        <pt x="618" y="348" on="1"/>
        <pt x="618" y="233" on="0"/>
        <pt x="566" y="87" on="0"/>
        <pt x="488" y="4" on="0"/>
        <pt x="396" y="-27" on="0"/>
        <pt x="356" y="-27" on="1"/>
        <pt x="230" y="-27" on="0"/>
        <pt x="158" y="70" on="1"/>
        <pt x="158" y="0" on="1"/>
      </contour>
    </TTGlyph>
    <TTGlyph name="Sacute" xMin="49" yMin="-27" xMax="618" yMax="1751">
      <component glyphName="S" x="0" y="0" flags="0x204"/>
      <component glyphName="acute" x="25" y="395" flags="0x4"/>
    </TTGlyph>
    <TTGlyph name="Scaron" xMin="49" yMin="-27" xMax="618" yMax="1757">
      <component glyphName="S" x="0" y="0" flags="0x204"/>
      <component glyphName="caron" x="25" y="395" flags="0x4"/>
    </TTGlyph>
    <TTGlyph name="Scedilla" xMin="49" yMin="-401" xMax="618" yMax="1399">
      <contour>
        <pt x="49" y="0" on="1"/>
        <pt x="49" y="453" on="1"/>
        <pt x="158" y="453" on="1"/>
        <pt x="158" y="291" on="1"/>
        <pt x="158" y="230" on="0"/>
        <pt x="189" y="150" on="0"/>
        <pt x="236" y="102" on="0"/>
        <pt x="291" y="82" on="0"/>
        <pt x="315" y="82" on="1"/>
        <pt x="349" y="82" on="0"/>
        <pt x="411" y="110" on="0"/>
        <pt x="459" y="171" on="0"/>
        <pt x="487" y="269" on="0"/>
        <pt x="487" y="340" on="1"/>
        <pt x="487" y="408" on="0"/>
        <pt x="451" y="507" on="0"/>
        <pt x="391" y="582" on="0"/>
        <pt x="315" y="640" on="0"/>
        <pt x="235" y="699" on="0"/>
        <pt x="159" y="763" on="0"/>
        <pt x="99" y="850" on="0"/>
        <pt x="63" y="967" on="0"/>
        <pt x="63" y="1047" on="1"/>
        <pt x="63" y="1144" on="0"/>
        <pt x="109" y="1278" on="0"/>
        <pt x="181" y="1362" on="0"/>
        <pt x="268" y="1399" on="0"/>
        <pt x="309" y="1399" on="1"/>
        <pt x="330" y="1399" on="0"/>
        <pt x="375" y="1389" on="0"/>
        <pt x="418" y="1369" on="0"/>
        <pt x="456" y="1338" on="0"/>
        <pt x="471" y="1317" on="1"/>
        <pt x="471" y="1374" on="1"/>
        <pt x="580" y="1374" on="1"/>
        <pt x="580" y="963" on="1"/>
        <pt x="471" y="963" on="1"/>
        <pt x="471" y="1116" on="1"/>
        <pt x="471" y="1167" on="0"/>
        <pt x="444" y="1234" on="0"/>
        <pt x="405" y="1274" on="0"/>
        <pt x="361" y="1290" on="0"/>
        <pt x="344" y="1290" on="1"/>
        <pt x="313" y="1290" on="0"/>
        <pt x="258" y="1262" on="0"/>
        <pt x="217" y="1203" on="0"/>
        <pt x="193" y="1113" on="0"/>
        <pt x="193" y="1051" on="1"/>
        <pt x="193" y="989" on="0"/>
        <pt x="230" y="898" on="0"/>
        <pt x="289" y="827" on="0"/>
        <pt x="366" y="767" on="0"/>
        <pt x="445" y="707" on="0"/>
        <pt x="522" y="638" on="0"/>
        <pt x="581" y="548" on="0"/>
        <pt x="618" y="429" on="0"/>
        <pt x="618" y="348" on="1"/>
        <pt x="618" y="276" on="0"/>
        <pt x="597" y="166" on="0"/>
        <pt x="560" y="84" on="0"/>
        <pt x="512" y="29" on="0"/>
        <pt x="458" y="-6" on="0"/>
        <pt x="401" y="-23" on="0"/>
        <pt x="375" y="-25" on="1"/>
        <pt x="358" y="-98" on="1"/>
        <pt x="379" y="-98" on="0"/>
        <pt x="430" y="-112" on="0"/>
        <pt x="474" y="-145" on="0"/>
        <pt x="504" y="-200" on="0"/>
        <pt x="504" y="-242" on="1"/>
        <pt x="504" y="-287" on="0"/>
        <pt x="471" y="-348" on="0"/>
        <pt x="418" y="-385" on="0"/>
        <pt x="353" y="-401" on="0"/>
        <pt x="322" y="-401" on="1"/>
        <pt x="259" y="-401" on="0"/>
        <pt x="168" y="-368" on="0"/>
        <pt x="143" y="-354" on="1"/>
        <pt x="193" y="-266" on="1"/>
        <pt x="216" y="-285" on="0"/>
        <pt x="275" y="-311" on="0"/>
        <pt x="309" y="-311" on="1"/>
        <pt x="353" y="-311" on="0"/>
        <pt x="401" y="-273" on="0"/>
        <pt x="401" y="-242" on="1"/>
        <pt x="401" y="-223" on="0"/>
        <pt x="385" y="-197" on="0"/>
        <pt x="358" y="-182" on="0"/>
        <pt x="325" y="-176" on="0"/>
        <pt x="307" y="-176" on="1"/>
        <pt x="277" y="-176" on="0"/>
        <pt x="250" y="-182" on="1"/>
        <pt x="289" y="-18" on="1"/>
        <pt x="210" y="0" on="0"/>
        <pt x="158" y="70" on="1"/>
        <pt x="158" y="0" on="1"/>
      </contour>
    </TTGlyph>
    <TTGlyph name="Scircumflex" xMin="49" yMin="-27" xMax="618" yMax="1757">
      <component glyphName="S" x="0" y="0" flags="0x204"/>
      <component glyphName="circumflex" x="25" y="395" flags="0x4"/>
    </TTGlyph>
    <TTGlyph name="T" xMin="41" yMin="0" xMax="715" yMax="1374">
      <contour>
        <pt x="41" y="942" on="1"/>
        <pt x="41" y="1374" on="1"/>
        <pt x="715" y="1374" on="1"/>
        <pt x="715" y="942" on="1"/>
        <pt x="606" y="942" on="1"/>
        <pt x="606" y="1264" on="1"/>
        <pt x="440" y="1264" on="1"/>
        <pt x="440" y="113" on="1"/>
        <pt x="584" y="113" on="1"/>
        <pt x="584" y="0" on="1"/>
        <pt x="172" y="0" on="1"/>
        <pt x="172" y="113" on="1"/>
        <pt x="315" y="113" on="1"/>
        <pt x="315" y="1264" on="1"/>
        <pt x="150" y="1264" on="1"/>
        <pt x="150" y="942" on="1"/>
      </contour>
    </TTGlyph>
    <TTGlyph name="Tbar" xMin="41" yMin="0" xMax="715" yMax="1374">
      <contour>
        <pt x="440" y="686" on="1"/>
        <pt x="440" y="113" on="1"/>
        <pt x="584" y="113" on="1"/>
        <pt x="584" y="0" on="1"/>
        <pt x="172" y="0" on="1"/>
        <pt x="172" y="113" on="1"/>
        <pt x="315" y="113" on="1"/>
        <pt x="315" y="686" on="1"/>
        <pt x="117" y="686" on="1"/>
        <pt x="117" y="791" on="1"/>
        <pt x="315" y="791" on="1"/>
        <pt x="315" y="1264" on="1"/>
        <pt x="150" y="1264" on="1"/>
        <pt x="150" y="942" on="1"/>
        <pt x="41" y="942" on="1"/>
        <pt x="41" y="1374" on="1"/>
        <pt x="715" y="1374" on="1"/>
        <pt x="715" y="942" on="1"/>
        <pt x="606" y="942" on="1"/>
        <pt x="606" y="1264" on="1"/>
        <pt x="440" y="1264" on="1"/>
        <pt x="440" y="791" on="1"/>
        <pt x="637" y="791" on="1"/>
        <pt x="637" y="686" on="1"/>
      </contour>
    </TTGlyph>
    <TTGlyph name="Tcaron" xMin="41" yMin="0" xMax="715" yMax="1757">
      <component glyphName="T" x="0" y="0" flags="0x204"/>
      <component glyphName="caron" x="72" y="395" flags="0x4"/>
    </TTGlyph>
    <TTGlyph name="Tcommaaccent" xMin="41" yMin="-416" xMax="715" yMax="1374">
      <component glyphName="T" x="0" y="0" flags="0x204"/>
      <component glyphName="commaaccent" x="61" y="0" flags="0x4"/>
    </TTGlyph>
    <TTGlyph name="Thorn" xMin="25" yMin="0" xMax="684" yMax="1374">
      <contour>
        <pt x="147" y="1262" on="1"/>
        <pt x="25" y="1262" on="1"/>
        <pt x="25" y="1374" on="1"/>
        <pt x="395" y="1374" on="1"/>
        <pt x="395" y="1262" on="1"/>
        <pt x="272" y="1262" on="1"/>
        <pt x="272" y="1130" on="1"/>
        <pt x="424" y="1130" on="1"/>
        <pt x="552" y="1130" on="0"/>
        <pt x="684" y="916" on="0"/>
        <pt x="684" y="709" on="1"/>
        <pt x="684" y="501" on="0"/>
        <pt x="552" y="285" on="0"/>
        <pt x="424" y="285" on="1"/>
        <pt x="272" y="285" on="1"/>
        <pt x="272" y="113" on="1"/>
        <pt x="395" y="113" on="1"/>
        <pt x="395" y="0" on="1"/>
        <pt x="25" y="0" on="1"/>
        <pt x="25" y="113" on="1"/>
        <pt x="147" y="113" on="1"/>
      </contour>
      <contour>
        <pt x="547" y="709" on="1"/>
        <pt x="547" y="807" on="0"/>
        <pt x="525" y="928" on="0"/>
        <pt x="483" y="995" on="0"/>
        <pt x="425" y="1018" on="0"/>
        <pt x="389" y="1018" on="1"/>
        <pt x="272" y="1018" on="1"/>
        <pt x="272" y="397" on="1"/>
        <pt x="389" y="397" on="1"/>
        <pt x="403" y="397" on="0"/>
        <pt x="437" y="397" on="0"/>
        <pt x="472" y="410" on="0"/>
        <pt x="505" y="445" on="0"/>
        <pt x="531" y="514" on="0"/>
        <pt x="547" y="625" on="0"/>
      </contour>
    </TTGlyph>
    <TTGlyph name="U" xMin="10" yMin="-27" xMax="811" yMax="1374">
      <contour>
        <pt x="10" y="1374" on="1"/>
        <pt x="381" y="1374" on="1"/>
        <pt x="381" y="1262" on="1"/>
        <pt x="258" y="1262" on="1"/>
        <pt x="258" y="381" on="1"/>
        <pt x="258" y="312" on="0"/>
        <pt x="266" y="202" on="0"/>
        <pt x="296" y="125" on="0"/>
        <pt x="358" y="84" on="0"/>
        <pt x="412" y="84" on="1"/>
        <pt x="466" y="84" on="0"/>
        <pt x="526" y="125" on="0"/>
        <pt x="556" y="202" on="0"/>
        <pt x="563" y="312" on="0"/>
        <pt x="563" y="381" on="1"/>
        <pt x="563" y="1262" on="1"/>
        <pt x="440" y="1262" on="1"/>
        <pt x="440" y="1374" on="1"/>
        <pt x="811" y="1374" on="1"/>
        <pt x="811" y="1262" on="1"/>
        <pt x="688" y="1262" on="1"/>
        <pt x="688" y="365" on="1"/>
        <pt x="688" y="257" on="0"/>
        <pt x="659" y="108" on="0"/>
        <pt x="594" y="15" on="0"/>
        <pt x="488" y="-27" on="0"/>
        <pt x="412" y="-27" on="1"/>
        <pt x="335" y="-27" on="0"/>
        <pt x="229" y="15" on="0"/>
        <pt x="163" y="108" on="0"/>
        <pt x="133" y="257" on="0"/>
        <pt x="133" y="365" on="1"/>
        <pt x="133" y="1262" on="1"/>
        <pt x="10" y="1262" on="1"/>
      </contour>
    </TTGlyph>
    <TTGlyph name="Uacute" xMin="10" yMin="-27" xMax="811" yMax="1751">
      <component glyphName="U" x="0" y="0" flags="0x204"/>
      <component glyphName="acute" x="102" y="395" flags="0x4"/>
    </TTGlyph>
    <TTGlyph name="Ubreve" xMin="10" yMin="-27" xMax="811" yMax="1706">
      <component glyphName="U" x="0" y="0" flags="0x204"/>
      <component glyphName="breve" x="102" y="395" flags="0x4"/>
    </TTGlyph>
    <TTGlyph name="Ucircumflex" xMin="10" yMin="-27" xMax="811" yMax="1757">
      <component glyphName="U" x="0" y="0" flags="0x204"/>
      <component glyphName="circumflex" x="102" y="395" flags="0x4"/>
    </TTGlyph>
    <TTGlyph name="Udieresis" xMin="10" yMin="-27" xMax="811" yMax="1648">
      <component glyphName="U" x="0" y="0" flags="0x204"/>
      <component glyphName="dieresis" x="102" y="395" flags="0x4"/>
    </TTGlyph>
    <TTGlyph name="Ugrave" xMin="10" yMin="-27" xMax="811" yMax="1751">
      <component glyphName="U" x="0" y="0" flags="0x204"/>
      <component glyphName="grave" x="102" y="395" flags="0x4"/>
    </TTGlyph>
    <TTGlyph name="Uhungarumlaut" xMin="10" yMin="-27" xMax="811" yMax="1751">
      <component glyphName="U" x="0" y="0" flags="0x204"/>
      <component glyphName="hungarumlaut" x="158" y="395" flags="0x4"/>
    </TTGlyph>
    <TTGlyph name="Umacron" xMin="10" yMin="-27" xMax="811" yMax="1612">
      <component glyphName="U" x="0" y="0" flags="0x204"/>
      <component glyphName="macron" x="102" y="395" flags="0x4"/>
    </TTGlyph>
    <TTGlyph name="Uogonek" xMin="10" yMin="-356" xMax="811" yMax="1374">
      <contour>
        <pt x="10" y="1374" on="1"/>
        <pt x="381" y="1374" on="1"/>
        <pt x="381" y="1262" on="1"/>
        <pt x="258" y="1262" on="1"/>
        <pt x="258" y="381" on="1"/>
        <pt x="258" y="312" on="0"/>
        <pt x="266" y="202" on="0"/>
        <pt x="296" y="125" on="0"/>
        <pt x="358" y="84" on="0"/>
        <pt x="412" y="84" on="1"/>
        <pt x="466" y="84" on="0"/>
        <pt x="526" y="125" on="0"/>
        <pt x="556" y="202" on="0"/>
        <pt x="563" y="312" on="0"/>
        <pt x="563" y="381" on="1"/>
        <pt x="563" y="1262" on="1"/>
        <pt x="440" y="1262" on="1"/>
        <pt x="440" y="1374" on="1"/>
        <pt x="811" y="1374" on="1"/>
        <pt x="811" y="1262" on="1"/>
        <pt x="688" y="1262" on="1"/>
        <pt x="688" y="365" on="1"/>
        <pt x="688" y="266" on="0"/>
        <pt x="664" y="124" on="0"/>
        <pt x="609" y="30" on="0"/>
        <pt x="521" y="-19" on="0"/>
        <pt x="457" y="-25" on="1"/>
        <pt x="428" y="-63" on="0"/>
        <pt x="391" y="-148" on="0"/>
        <pt x="391" y="-201" on="1"/>
        <pt x="391" y="-233" on="0"/>
        <pt x="422" y="-266" on="0"/>
        <pt x="446" y="-266" on="1"/>
        <pt x="465" y="-266" on="0"/>
        <pt x="493" y="-250" on="0"/>
        <pt x="506" y="-238" on="1"/>
        <pt x="539" y="-319" on="1"/>
        <pt x="513" y="-335" on="0"/>
        <pt x="451" y="-356" on="0"/>
        <pt x="416" y="-356" on="1"/>
        <pt x="351" y="-356" on="0"/>
        <pt x="283" y="-287" on="0"/>
        <pt x="283" y="-219" on="1"/>
        <pt x="283" y="-171" on="0"/>
        <pt x="326" y="-71" on="0"/>
        <pt x="360" y="-25" on="1"/>
        <pt x="298" y="-18" on="0"/>
        <pt x="212" y="32" on="0"/>
        <pt x="158" y="125" on="0"/>
        <pt x="133" y="266" on="0"/>
        <pt x="133" y="365" on="1"/>
        <pt x="133" y="1262" on="1"/>
        <pt x="10" y="1262" on="1"/>
      </contour>
    </TTGlyph>
    <TTGlyph name="Uring" xMin="10" yMin="-27" xMax="811" yMax="1829">
      <component glyphName="U" x="0" y="0" flags="0x204"/>
      <component glyphName="ring" x="86" y="395" flags="0x4"/>
    </TTGlyph>
    <TTGlyph name="Utilde" xMin="10" yMin="-27" xMax="811" yMax="1706">
      <component glyphName="U" x="0" y="0" flags="0x204"/>
      <component glyphName="tilde" x="102" y="395" flags="0x4"/>
    </TTGlyph>
    <TTGlyph name="V" xMin="0" yMin="0" xMax="774" yMax="1374">
      <contour>
        <pt x="0" y="1374" on="1"/>
        <pt x="346" y="1374" on="1"/>
        <pt x="346" y="1262" on="1"/>
        <pt x="223" y="1262" on="1"/>
        <pt x="389" y="270" on="1"/>
        <pt x="551" y="1262" on="1"/>
        <pt x="428" y="1262" on="1"/>
        <pt x="428" y="1374" on="1"/>
        <pt x="774" y="1374" on="1"/>
        <pt x="774" y="1262" on="1"/>
        <pt x="672" y="1262" on="1"/>
        <pt x="444" y="0" on="1"/>
        <pt x="330" y="0" on="1"/>
        <pt x="102" y="1262" on="1"/>
        <pt x="0" y="1262" on="1"/>
      </contour>
    </TTGlyph>
    <TTGlyph name="W" xMin="6" yMin="0" xMax="1147" yMax="1374">
      <contour>
        <pt x="6" y="1374" on="1"/>
        <pt x="338" y="1374" on="1"/>
        <pt x="338" y="1262" on="1"/>
        <pt x="227" y="1262" on="1"/>
        <pt x="362" y="346" on="1"/>
        <pt x="528" y="1374" on="1"/>
        <pt x="625" y="1374" on="1"/>
        <pt x="791" y="346" on="1"/>
        <pt x="926" y="1262" on="1"/>
        <pt x="815" y="1262" on="1"/>
        <pt x="815" y="1374" on="1"/>
        <pt x="1147" y="1374" on="1"/>
        <pt x="1147" y="1262" on="1"/>
        <pt x="1047" y="1262" on="1"/>
        <pt x="844" y="0" on="1"/>
        <pt x="748" y="0" on="1"/>
        <pt x="575" y="1036" on="1"/>
        <pt x="406" y="0" on="1"/>
        <pt x="309" y="0" on="1"/>
        <pt x="106" y="1262" on="1"/>
        <pt x="6" y="1262" on="1"/>
      </contour>
    </TTGlyph>
    <TTGlyph name="Wacute" xMin="6" yMin="0" xMax="1147" yMax="1751">
      <component glyphName="W" x="0" y="0" flags="0x204"/>
      <component glyphName="acute" x="268" y="395" flags="0x4"/>
    </TTGlyph>
    <TTGlyph name="Wcircumflex" xMin="6" yMin="0" xMax="1147" yMax="1757">
      <component glyphName="W" x="0" y="0" flags="0x204"/>
      <component glyphName="circumflex" x="268" y="395" flags="0x4"/>
    </TTGlyph>
    <TTGlyph name="Wdieresis" xMin="6" yMin="0" xMax="1147" yMax="1648">
      <component glyphName="W" x="0" y="0" flags="0x204"/>
      <component glyphName="dieresis" x="268" y="395" flags="0x4"/>
    </TTGlyph>
    <TTGlyph name="Wgrave" xMin="6" yMin="0" xMax="1147" yMax="1751">
      <component glyphName="W" x="0" y="0" flags="0x204"/>
      <component glyphName="grave" x="268" y="395" flags="0x4"/>
    </TTGlyph>
    <TTGlyph name="X" xMin="-6" yMin="0" xMax="758" yMax="1374">
      <contour>
        <pt x="440" y="690" on="1"/>
        <pt x="639" y="113" on="1"/>
        <pt x="750" y="113" on="1"/>
        <pt x="750" y="0" on="1"/>
        <pt x="410" y="0" on="1"/>
        <pt x="410" y="113" on="1"/>
        <pt x="512" y="113" on="1"/>
        <pt x="375" y="530" on="1"/>
        <pt x="231" y="113" on="1"/>
        <pt x="334" y="113" on="1"/>
        <pt x="334" y="0" on="1"/>
        <pt x="-6" y="0" on="1"/>
        <pt x="-6" y="113" on="1"/>
        <pt x="104" y="113" on="1"/>
        <pt x="313" y="690" on="1"/>
        <pt x="117" y="1262" on="1"/>
        <pt x="6" y="1262" on="1"/>
        <pt x="6" y="1374" on="1"/>
        <pt x="342" y="1374" on="1"/>
        <pt x="342" y="1262" on="1"/>
        <pt x="244" y="1262" on="1"/>
        <pt x="379" y="850" on="1"/>
        <pt x="520" y="1262" on="1"/>
        <pt x="422" y="1262" on="1"/>
        <pt x="422" y="1374" on="1"/>
        <pt x="758" y="1374" on="1"/>
        <pt x="758" y="1262" on="1"/>
        <pt x="647" y="1262" on="1"/>
      </contour>
    </TTGlyph>
    <TTGlyph name="Y" xMin="0" yMin="0" xMax="817" yMax="1374">
      <contour>
        <pt x="0" y="1374" on="1"/>
        <pt x="371" y="1374" on="1"/>
        <pt x="371" y="1262" on="1"/>
        <pt x="258" y="1262" on="1"/>
        <pt x="410" y="727" on="1"/>
        <pt x="559" y="1262" on="1"/>
        <pt x="446" y="1262" on="1"/>
        <pt x="446" y="1374" on="1"/>
        <pt x="817" y="1374" on="1"/>
        <pt x="817" y="1262" on="1"/>
        <pt x="692" y="1262" on="1"/>
        <pt x="471" y="582" on="1"/>
        <pt x="471" y="113" on="1"/>
        <pt x="614" y="113" on="1"/>
        <pt x="614" y="0" on="1"/>
        <pt x="203" y="0" on="1"/>
        <pt x="203" y="113" on="1"/>
        <pt x="346" y="113" on="1"/>
        <pt x="346" y="582" on="1"/>
        <pt x="125" y="1262" on="1"/>
        <pt x="0" y="1262" on="1"/>
      </contour>
    </TTGlyph>
    <TTGlyph name="Yacute" xMin="0" yMin="0" xMax="817" yMax="1751">
      <component glyphName="Y" x="0" y="0" flags="0x204"/>
      <component glyphName="acute" x="102" y="395" flags="0x4"/>
    </TTGlyph>
    <TTGlyph name="Ycircumflex" xMin="0" yMin="0" xMax="817" yMax="1757">
      <component glyphName="Y" x="0" y="0" flags="0x204"/>
      <component glyphName="circumflex" x="102" y="395" flags="0x4"/>
    </TTGlyph>
    <TTGlyph name="Ydieresis" xMin="0" yMin="0" xMax="817" yMax="1648">
      <component glyphName="Y" x="0" y="0" flags="0x204"/>
      <component glyphName="dieresis" x="102" y="395" flags="0x4"/>
    </TTGlyph>
    <TTGlyph name="Ygrave" xMin="0" yMin="0" xMax="817" yMax="1751">
      <component glyphName="Y" x="0" y="0" flags="0x204"/>
      <component glyphName="grave" x="102" y="395" flags="0x4"/>
    </TTGlyph>
    <TTGlyph name="Z" xMin="45" yMin="0" xMax="565" yMax="1374">
      <contour>
        <pt x="66" y="963" on="1"/>
        <pt x="66" y="1374" on="1"/>
        <pt x="557" y="1374" on="1"/>
        <pt x="557" y="1286" on="1"/>
        <pt x="178" y="117" on="1"/>
        <pt x="457" y="117" on="1"/>
        <pt x="457" y="432" on="1"/>
        <pt x="565" y="432" on="1"/>
        <pt x="565" y="0" on="1"/>
        <pt x="45" y="0" on="1"/>
        <pt x="45" y="102" on="1"/>
        <pt x="418" y="1257" on="1"/>
        <pt x="174" y="1257" on="1"/>
        <pt x="174" y="963" on="1"/>
      </contour>
    </TTGlyph>
    <TTGlyph name="Zacute" xMin="45" yMin="0" xMax="565" yMax="1751">
      <component glyphName="Z" x="0" y="0" flags="0x204"/>
      <component glyphName="acute" x="8" y="395" flags="0x4"/>
    </TTGlyph>
    <TTGlyph name="Zcaron" xMin="45" yMin="0" xMax="571" yMax="1757">
      <component glyphName="Z" x="0" y="0" flags="0x204"/>
      <component glyphName="caron" x="8" y="395" flags="0x4"/>
    </TTGlyph>
    <TTGlyph name="Zdotaccent" xMin="45" yMin="0" xMax="565" yMax="1659">
      <component glyphName="Z" x="0" y="0" flags="0x204"/>
      <component glyphName="dotaccent" x="10" y="395" flags="0x4"/>
    </TTGlyph>
    <TTGlyph name="a" xMin="39" yMin="-27" xMax="535" yMax="979">
      <contour>
        <pt x="328" y="500" on="1"/>
        <pt x="275" y="495" on="0"/>
        <pt x="210" y="462" on="0"/>
        <pt x="174" y="403" on="0"/>
        <pt x="162" y="317" on="0"/>
        <pt x="162" y="260" on="1"/>
        <pt x="162" y="172" on="0"/>
        <pt x="198" y="80" on="0"/>
        <pt x="229" y="80" on="1"/>
        <pt x="242" y="80" on="0"/>
        <pt x="271" y="100" on="0"/>
        <pt x="298" y="134" on="0"/>
        <pt x="321" y="181" on="0"/>
        <pt x="328" y="207" on="1"/>
      </contour>
      <contour>
        <pt x="74" y="743" on="1"/>
        <pt x="80" y="815" on="0"/>
        <pt x="116" y="906" on="0"/>
        <pt x="167" y="959" on="0"/>
        <pt x="231" y="979" on="0"/>
        <pt x="266" y="979" on="1"/>
        <pt x="305" y="979" on="0"/>
        <pt x="373" y="954" on="0"/>
        <pt x="424" y="889" on="0"/>
        <pt x="453" y="775" on="0"/>
        <pt x="453" y="686" on="1"/>
        <pt x="453" y="113" on="1"/>
        <pt x="535" y="113" on="1"/>
        <pt x="535" y="0" on="1"/>
        <pt x="328" y="0" on="1"/>
        <pt x="328" y="66" on="1"/>
        <pt x="299" y="19" on="0"/>
        <pt x="239" y="-27" on="0"/>
        <pt x="190" y="-27" on="1"/>
        <pt x="160" y="-27" on="0"/>
        <pt x="106" y="9" on="0"/>
        <pt x="64" y="80" on="0"/>
        <pt x="39" y="185" on="0"/>
        <pt x="39" y="254" on="1"/>
        <pt x="39" y="352" on="0"/>
        <pt x="83" y="477" on="0"/>
        <pt x="161" y="552" on="0"/>
        <pt x="266" y="587" on="0"/>
        <pt x="328" y="596" on="1"/>
        <pt x="328" y="688" on="1"/>
        <pt x="328" y="748" on="0"/>
        <pt x="317" y="820" on="0"/>
        <pt x="299" y="859" on="0"/>
        <pt x="276" y="872" on="0"/>
        <pt x="264" y="872" on="1"/>
        <pt x="232" y="872" on="0"/>
        <pt x="198" y="801" on="0"/>
        <pt x="193" y="723" on="1"/>
      </contour>
    </TTGlyph>
    <TTGlyph name="aacute" xMin="39" yMin="-27" xMax="535" yMax="1356">
      <component glyphName="a" x="0" y="0" flags="0x204"/>
      <component glyphName="acute" x="-40" y="0" flags="0x4"/>
    </TTGlyph>
    <TTGlyph name="abreve" xMin="39" yMin="-27" xMax="535" yMax="1311">
      <component glyphName="a" x="0" y="0" flags="0x204"/>
      <component glyphName="breve" x="-40" y="0" flags="0x4"/>
    </TTGlyph>
    <TTGlyph name="acircumflex" xMin="11" yMin="-27" xMax="535" yMax="1362">
      <component glyphName="a" x="0" y="0" flags="0x204"/>
      <component glyphName="circumflex" x="-40" y="0" flags="0x4"/>
    </TTGlyph>
    <TTGlyph name="acute" xMin="182" yMin="1081" xMax="516" yMax="1356">
      <contour>
        <pt x="516" y="1257" on="1"/>
        <pt x="225" y="1081" on="1"/>
        <pt x="182" y="1147" on="1"/>
        <pt x="451" y="1356" on="1"/>
      </contour>
    </TTGlyph>
    <TTGlyph name="adieresis" xMin="39" yMin="-27" xMax="535" yMax="1253">
      <component glyphName="a" x="0" y="0" flags="0x204"/>
      <component glyphName="dieresis" x="-40" y="0" flags="0x4"/>
    </TTGlyph>
    <TTGlyph name="ae" xMin="39" yMin="-27" xMax="778" yMax="979">
      <contour>
        <pt x="569" y="82" on="1"/>
        <pt x="598" y="82" on="0"/>
        <pt x="636" y="119" on="0"/>
        <pt x="661" y="174" on="0"/>
        <pt x="675" y="237" on="0"/>
        <pt x="680" y="264" on="1"/>
        <pt x="778" y="264" on="1"/>
        <pt x="770" y="202" on="0"/>
        <pt x="737" y="95" on="0"/>
        <pt x="683" y="17" on="0"/>
        <pt x="610" y="-27" on="0"/>
        <pt x="563" y="-27" on="1"/>
        <pt x="445" y="-27" on="0"/>
        <pt x="383" y="119" on="1"/>
        <pt x="360" y="77" on="0"/>
        <pt x="315" y="20" on="0"/>
        <pt x="270" y="-13" on="0"/>
        <pt x="225" y="-27" on="0"/>
        <pt x="201" y="-27" on="1"/>
        <pt x="167" y="-27" on="0"/>
        <pt x="108" y="9" on="0"/>
        <pt x="64" y="80" on="0"/>
        <pt x="39" y="185" on="0"/>
        <pt x="39" y="254" on="1"/>
        <pt x="39" y="352" on="0"/>
        <pt x="84" y="477" on="0"/>
        <pt x="164" y="552" on="0"/>
        <pt x="270" y="587" on="0"/>
        <pt x="332" y="596" on="1"/>
        <pt x="332" y="688" on="1"/>
        <pt x="332" y="748" on="0"/>
        <pt x="320" y="820" on="0"/>
        <pt x="301" y="859" on="0"/>
        <pt x="276" y="872" on="0"/>
        <pt x="264" y="872" on="1"/>
        <pt x="232" y="872" on="0"/>
        <pt x="191" y="801" on="0"/>
        <pt x="186" y="723" on="1"/>
        <pt x="74" y="743" on="1"/>
        <pt x="80" y="815" on="0"/>
        <pt x="121" y="906" on="0"/>
        <pt x="175" y="959" on="0"/>
        <pt x="236" y="979" on="0"/>
        <pt x="262" y="979" on="1"/>
        <pt x="313" y="979" on="0"/>
        <pt x="387" y="917" on="0"/>
        <pt x="412" y="864" on="1"/>
        <pt x="436" y="917" on="0"/>
        <pt x="517" y="973" on="0"/>
        <pt x="555" y="973" on="1"/>
        <pt x="660" y="973" on="0"/>
        <pt x="776" y="699" on="0"/>
        <pt x="776" y="438" on="1"/>
        <pt x="776" y="416" on="1"/>
        <pt x="457" y="416" on="1"/>
        <pt x="460" y="252" on="0"/>
        <pt x="509" y="82" on="0"/>
      </contour>
      <contour>
        <pt x="229" y="80" on="1"/>
        <pt x="245" y="80" on="0"/>
        <pt x="279" y="112" on="0"/>
        <pt x="311" y="163" on="0"/>
        <pt x="336" y="225" on="0"/>
        <pt x="344" y="256" on="1"/>
        <pt x="340" y="278" on="0"/>
        <pt x="335" y="326" on="0"/>
        <pt x="331" y="384" on="0"/>
        <pt x="329" y="455" on="0"/>
        <pt x="328" y="500" on="1"/>
        <pt x="275" y="495" on="0"/>
        <pt x="210" y="462" on="0"/>
        <pt x="174" y="403" on="0"/>
        <pt x="162" y="317" on="0"/>
        <pt x="162" y="260" on="1"/>
        <pt x="162" y="172" on="0"/>
        <pt x="198" y="80" on="0"/>
      </contour>
      <contour>
        <pt x="647" y="520" on="1"/>
        <pt x="646" y="587" on="0"/>
        <pt x="635" y="711" on="0"/>
        <pt x="612" y="806" on="0"/>
        <pt x="577" y="862" on="0"/>
        <pt x="553" y="862" on="1"/>
        <pt x="530" y="862" on="0"/>
        <pt x="496" y="806" on="0"/>
        <pt x="472" y="711" on="0"/>
        <pt x="458" y="587" on="0"/>
        <pt x="457" y="520" on="1"/>
      </contour>
    </TTGlyph>
    <TTGlyph name="aeacute" xMin="39" yMin="-27" xMax="778" yMax="1356">
      <component glyphName="ae" x="0" y="0" flags="0x204"/>
      <component glyphName="acute" x="117" y="0" flags="0x4"/>
    </TTGlyph>
    <TTGlyph name="agrave" xMin="39" yMin="-27" xMax="535" yMax="1356">
      <component glyphName="a" x="0" y="0" flags="0x204"/>
      <component glyphName="grave" x="-40" y="0" flags="0x4"/>
    </TTGlyph>
    <TTGlyph name="amacron" xMin="39" yMin="-27" xMax="535" yMax="1217">
      <component glyphName="a" x="0" y="0" flags="0x204"/>
      <component glyphName="macron" x="-40" y="0" flags="0x4"/>
    </TTGlyph>
    <TTGlyph name="ampersand" xMin="49" yMin="-27" xMax="809" yMax="1399">
      <contour>
        <pt x="809" y="313" on="1"/>
        <pt x="793" y="156" on="0"/>
        <pt x="686" y="-18" on="0"/>
        <pt x="604" y="-18" on="1"/>
        <pt x="583" y="-18" on="0"/>
        <pt x="550" y="-10" on="0"/>
        <pt x="520" y="7" on="0"/>
        <pt x="490" y="31" on="0"/>
        <pt x="473" y="47" on="1"/>
        <pt x="436" y="9" on="0"/>
        <pt x="352" y="-27" on="0"/>
        <pt x="293" y="-27" on="1"/>
        <pt x="243" y="-27" on="0"/>
        <pt x="154" y="13" on="0"/>
        <pt x="88" y="99" on="0"/>
        <pt x="49" y="235" on="0"/>
        <pt x="49" y="332" on="1"/>
        <pt x="49" y="400" on="0"/>
        <pt x="75" y="521" on="0"/>
        <pt x="118" y="627" on="0"/>
        <pt x="174" y="719" on="0"/>
        <pt x="205" y="758" on="1"/>
        <pt x="194" y="796" on="0"/>
        <pt x="172" y="883" on="0"/>
        <pt x="154" y="972" on="0"/>
        <pt x="143" y="1060" on="0"/>
        <pt x="143" y="1100" on="1"/>
        <pt x="143" y="1178" on="0"/>
        <pt x="174" y="1291" on="0"/>
        <pt x="229" y="1364" on="0"/>
        <pt x="303" y="1399" on="0"/>
        <pt x="346" y="1399" on="1"/>
        <pt x="383" y="1399" on="0"/>
        <pt x="449" y="1364" on="0"/>
        <pt x="498" y="1301" on="0"/>
        <pt x="526" y="1210" on="0"/>
        <pt x="526" y="1155" on="1"/>
        <pt x="526" y="1087" on="0"/>
        <pt x="491" y="968" on="0"/>
        <pt x="437" y="863" on="0"/>
        <pt x="371" y="773" on="0"/>
        <pt x="340" y="735" on="1"/>
        <pt x="355" y="678" on="0"/>
        <pt x="390" y="554" on="0"/>
        <pt x="428" y="429" on="0"/>
        <pt x="467" y="311" on="0"/>
        <pt x="487" y="260" on="1"/>
        <pt x="503" y="300" on="0"/>
        <pt x="528" y="388" on="0"/>
        <pt x="546" y="476" on="0"/>
        <pt x="558" y="562" on="0"/>
        <pt x="561" y="600" on="1"/>
        <pt x="463" y="600" on="1"/>
        <pt x="463" y="713" on="1"/>
        <pt x="774" y="713" on="1"/>
        <pt x="774" y="600" on="1"/>
        <pt x="672" y="600" on="1"/>
        <pt x="665" y="549" on="0"/>
        <pt x="645" y="430" on="0"/>
        <pt x="615" y="309" on="0"/>
        <pt x="573" y="192" on="0"/>
        <pt x="545" y="141" on="1"/>
        <pt x="562" y="117" on="0"/>
        <pt x="595" y="86" on="0"/>
        <pt x="610" y="86" on="1"/>
        <pt x="631" y="86" on="0"/>
        <pt x="664" y="118" on="0"/>
        <pt x="688" y="178" on="0"/>
        <pt x="705" y="262" on="0"/>
        <pt x="711" y="313" on="1"/>
      </contour>
      <contour>
        <pt x="311" y="78" on="1"/>
        <pt x="343" y="78" on="0"/>
        <pt x="395" y="108" on="0"/>
        <pt x="420" y="139" on="1"/>
        <pt x="391" y="196" on="0"/>
        <pt x="337" y="338" on="0"/>
        <pt x="292" y="477" on="0"/>
        <pt x="256" y="596" on="0"/>
        <pt x="246" y="631" on="1"/>
        <pt x="214" y="586" on="0"/>
        <pt x="172" y="434" on="0"/>
        <pt x="172" y="340" on="1"/>
        <pt x="172" y="289" on="0"/>
        <pt x="189" y="194" on="0"/>
        <pt x="223" y="121" on="0"/>
        <pt x="276" y="78" on="0"/>
      </contour>
      <contour>
        <pt x="262" y="1102" on="1"/>
        <pt x="262" y="1040" on="0"/>
        <pt x="286" y="908" on="0"/>
        <pt x="301" y="858" on="1"/>
        <pt x="330" y="895" on="0"/>
        <pt x="371" y="959" on="0"/>
        <pt x="396" y="1025" on="0"/>
        <pt x="408" y="1099" on="0"/>
        <pt x="408" y="1147" on="1"/>
        <pt x="408" y="1174" on="0"/>
        <pt x="401" y="1227" on="0"/>
        <pt x="385" y="1268" on="0"/>
        <pt x="361" y="1294" on="0"/>
        <pt x="344" y="1294" on="1"/>
        <pt x="310" y="1294" on="0"/>
        <pt x="262" y="1206" on="0"/>
      </contour>
    </TTGlyph>
    <TTGlyph name="aogonek" xMin="39" yMin="-354" xMax="539" yMax="979">
      <contour>
        <pt x="74" y="743" on="1"/>
        <pt x="80" y="815" on="0"/>
        <pt x="116" y="906" on="0"/>
        <pt x="167" y="959" on="0"/>
        <pt x="231" y="979" on="0"/>
        <pt x="266" y="979" on="1"/>
        <pt x="305" y="979" on="0"/>
        <pt x="373" y="954" on="0"/>
        <pt x="424" y="889" on="0"/>
        <pt x="453" y="775" on="0"/>
        <pt x="453" y="686" on="1"/>
        <pt x="453" y="113" on="1"/>
        <pt x="535" y="113" on="1"/>
        <pt x="535" y="0" on="1"/>
        <pt x="493" y="-28" on="0"/>
        <pt x="438" y="-80" on="0"/>
        <pt x="405" y="-129" on="0"/>
        <pt x="391" y="-177" on="0"/>
        <pt x="391" y="-201" on="1"/>
        <pt x="391" y="-233" on="0"/>
        <pt x="422" y="-266" on="0"/>
        <pt x="446" y="-266" on="1"/>
        <pt x="465" y="-266" on="0"/>
        <pt x="493" y="-250" on="0"/>
        <pt x="506" y="-238" on="1"/>
        <pt x="539" y="-319" on="1"/>
        <pt x="513" y="-335" on="0"/>
        <pt x="451" y="-354" on="0"/>
        <pt x="416" y="-354" on="1"/>
        <pt x="391" y="-354" on="0"/>
        <pt x="343" y="-338" on="0"/>
        <pt x="306" y="-305" on="0"/>
        <pt x="283" y="-253" on="0"/>
        <pt x="283" y="-217" on="1"/>
        <pt x="283" y="-190" on="0"/>
        <pt x="302" y="-131" on="0"/>
        <pt x="337" y="-74" on="0"/>
        <pt x="387" y="-21" on="0"/>
        <pt x="418" y="0" on="1"/>
        <pt x="328" y="0" on="1"/>
        <pt x="328" y="66" on="1"/>
        <pt x="299" y="19" on="0"/>
        <pt x="239" y="-27" on="0"/>
        <pt x="190" y="-27" on="1"/>
        <pt x="160" y="-27" on="0"/>
        <pt x="106" y="9" on="0"/>
        <pt x="64" y="80" on="0"/>
        <pt x="39" y="185" on="0"/>
        <pt x="39" y="254" on="1"/>
        <pt x="39" y="352" on="0"/>
        <pt x="83" y="477" on="0"/>
        <pt x="161" y="552" on="0"/>
        <pt x="266" y="587" on="0"/>
        <pt x="328" y="596" on="1"/>
        <pt x="328" y="688" on="1"/>
        <pt x="328" y="748" on="0"/>
        <pt x="317" y="820" on="0"/>
        <pt x="299" y="859" on="0"/>
        <pt x="276" y="872" on="0"/>
        <pt x="264" y="872" on="1"/>
        <pt x="232" y="872" on="0"/>
        <pt x="198" y="801" on="0"/>
        <pt x="193" y="723" on="1"/>
      </contour>
      <contour>
        <pt x="328" y="500" on="1"/>
        <pt x="275" y="495" on="0"/>
        <pt x="210" y="462" on="0"/>
        <pt x="174" y="403" on="0"/>
        <pt x="162" y="317" on="0"/>
        <pt x="162" y="260" on="1"/>
        <pt x="162" y="172" on="0"/>
        <pt x="198" y="80" on="0"/>
        <pt x="229" y="80" on="1"/>
        <pt x="242" y="80" on="0"/>
        <pt x="271" y="100" on="0"/>
        <pt x="298" y="134" on="0"/>
        <pt x="321" y="181" on="0"/>
        <pt x="328" y="207" on="1"/>
      </contour>
    </TTGlyph>
    <TTGlyph name="approxequal" xMin="113" yMin="424" xMax="823" yMax="946">
      <contour>
        <pt x="823" y="528" on="1"/>
        <pt x="794" y="486" on="0"/>
        <pt x="708" y="428" on="0"/>
        <pt x="649" y="428" on="1"/>
        <pt x="605" y="428" on="0"/>
        <pt x="507" y="462" on="0"/>
        <pt x="409" y="503" on="0"/>
        <pt x="316" y="537" on="0"/>
        <pt x="279" y="537" on="1"/>
        <pt x="254" y="537" on="0"/>
        <pt x="207" y="517" on="0"/>
        <pt x="164" y="484" on="0"/>
        <pt x="127" y="444" on="0"/>
        <pt x="113" y="424" on="1"/>
        <pt x="113" y="543" on="1"/>
        <pt x="128" y="564" on="0"/>
        <pt x="166" y="602" on="0"/>
        <pt x="211" y="629" on="0"/>
        <pt x="260" y="645" on="0"/>
        <pt x="285" y="645" on="1"/>
        <pt x="328" y="645" on="0"/>
        <pt x="427" y="611" on="0"/>
        <pt x="526" y="569" on="0"/>
        <pt x="619" y="535" on="0"/>
        <pt x="657" y="535" on="1"/>
        <pt x="682" y="535" on="0"/>
        <pt x="729" y="555" on="0"/>
        <pt x="771" y="588" on="0"/>
        <pt x="808" y="628" on="0"/>
        <pt x="823" y="649" on="1"/>
      </contour>
      <contour>
        <pt x="823" y="825" on="1"/>
        <pt x="794" y="783" on="0"/>
        <pt x="708" y="725" on="0"/>
        <pt x="649" y="725" on="1"/>
        <pt x="605" y="725" on="0"/>
        <pt x="507" y="759" on="0"/>
        <pt x="409" y="800" on="0"/>
        <pt x="316" y="834" on="0"/>
        <pt x="279" y="834" on="1"/>
        <pt x="254" y="834" on="0"/>
        <pt x="207" y="814" on="0"/>
        <pt x="164" y="781" on="0"/>
        <pt x="127" y="741" on="0"/>
        <pt x="113" y="721" on="1"/>
        <pt x="113" y="840" on="1"/>
        <pt x="128" y="861" on="0"/>
        <pt x="166" y="899" on="0"/>
        <pt x="211" y="926" on="0"/>
        <pt x="260" y="942" on="0"/>
        <pt x="285" y="942" on="1"/>
        <pt x="328" y="942" on="0"/>
        <pt x="427" y="907" on="0"/>
        <pt x="526" y="866" on="0"/>
        <pt x="619" y="831" on="0"/>
        <pt x="657" y="831" on="1"/>
        <pt x="682" y="831" on="0"/>
        <pt x="729" y="851" on="0"/>
        <pt x="771" y="884" on="0"/>
        <pt x="808" y="925" on="0"/>
        <pt x="823" y="946" on="1"/>
      </contour>
    </TTGlyph>
    <TTGlyph name="aring" xMin="39" yMin="-27" xMax="535" yMax="1434">
      <component glyphName="a" x="0" y="0" flags="0x204"/>
      <component glyphName="ring" x="-56" y="0" flags="0x4"/>
    </TTGlyph>
    <TTGlyph name="asciicircum" xMin="31" yMin="825" xMax="403" yMax="1374">
      <contour>
        <pt x="295" y="825" on="1"/>
        <pt x="217" y="1176" on="1"/>
        <pt x="139" y="825" on="1"/>
        <pt x="31" y="825" on="1"/>
        <pt x="168" y="1374" on="1"/>
        <pt x="266" y="1374" on="1"/>
        <pt x="403" y="825" on="1"/>
      </contour>
    </TTGlyph>
    <TTGlyph name="asciitilde" xMin="92" yMin="573" xMax="844" yMax="799">
      <contour>
        <pt x="844" y="678" on="1"/>
        <pt x="829" y="657" on="0"/>
        <pt x="787" y="621" on="0"/>
        <pt x="736" y="594" on="0"/>
        <pt x="678" y="578" on="0"/>
        <pt x="649" y="578" on="1"/>
        <pt x="605" y="578" on="0"/>
        <pt x="509" y="612" on="0"/>
        <pt x="413" y="652" on="0"/>
        <pt x="320" y="686" on="0"/>
        <pt x="279" y="686" on="1"/>
        <pt x="254" y="686" on="0"/>
        <pt x="200" y="666" on="0"/>
        <pt x="149" y="634" on="0"/>
        <pt x="106" y="593" on="0"/>
        <pt x="92" y="573" on="1"/>
        <pt x="92" y="692" on="1"/>
        <pt x="107" y="714" on="0"/>
        <pt x="152" y="751" on="0"/>
        <pt x="205" y="779" on="0"/>
        <pt x="260" y="795" on="0"/>
        <pt x="285" y="795" on="1"/>
        <pt x="328" y="795" on="0"/>
        <pt x="425" y="760" on="0"/>
        <pt x="523" y="719" on="0"/>
        <pt x="616" y="684" on="0"/>
        <pt x="657" y="684" on="1"/>
        <pt x="682" y="684" on="0"/>
        <pt x="735" y="704" on="0"/>
        <pt x="786" y="737" on="0"/>
        <pt x="829" y="778" on="0"/>
        <pt x="844" y="799" on="1"/>
        <pt x="844" y="678" on="1"/>
      </contour>
    </TTGlyph>
    <TTGlyph name="asterisk" xMin="61" yMin="852" xMax="584" yMax="1374">
      <contour>
        <pt x="539" y="938" on="1"/>
        <pt x="360" y="1047" on="1"/>
        <pt x="362" y="1000" on="0"/>
        <pt x="369" y="898" on="0"/>
        <pt x="371" y="852" on="1"/>
        <pt x="274" y="852" on="1"/>
        <pt x="285" y="1049" on="1"/>
        <pt x="241" y="1023" on="0"/>
        <pt x="152" y="963" on="0"/>
        <pt x="109" y="938" on="1"/>
        <pt x="61" y="1014" on="1"/>
        <pt x="246" y="1112" on="1"/>
        <pt x="199" y="1137" on="0"/>
        <pt x="106" y="1189" on="0"/>
        <pt x="61" y="1212" on="1"/>
        <pt x="109" y="1288" on="1"/>
        <pt x="285" y="1182" on="1"/>
        <pt x="283" y="1228" on="0"/>
        <pt x="276" y="1329" on="0"/>
        <pt x="274" y="1374" on="1"/>
        <pt x="371" y="1374" on="1"/>
        <pt x="360" y="1182" on="1"/>
        <pt x="405" y="1208" on="0"/>
        <pt x="495" y="1263" on="0"/>
        <pt x="539" y="1288" on="1"/>
        <pt x="584" y="1212" on="1"/>
        <pt x="397" y="1112" on="1"/>
        <pt x="442" y="1089" on="0"/>
        <pt x="537" y="1039" on="0"/>
        <pt x="584" y="1014" on="1"/>
      </contour>
    </TTGlyph>
    <TTGlyph name="at" xMin="51" yMin="-29" xMax="1114" yMax="1415">
      <contour>
        <pt x="684" y="436" on="1"/>
        <pt x="673" y="417" on="0"/>
        <pt x="641" y="377" on="0"/>
        <pt x="598" y="345" on="0"/>
        <pt x="544" y="324" on="0"/>
        <pt x="512" y="324" on="1"/>
        <pt x="475" y="324" on="0"/>
        <pt x="409" y="350" on="0"/>
        <pt x="358" y="409" on="0"/>
        <pt x="328" y="506" on="0"/>
        <pt x="328" y="578" on="1"/>
        <pt x="328" y="678" on="0"/>
        <pt x="383" y="852" on="0"/>
        <pt x="468" y="980" on="0"/>
        <pt x="574" y="1053" on="0"/>
        <pt x="625" y="1053" on="1"/>
        <pt x="643" y="1053" on="0"/>
        <pt x="676" y="1042" on="0"/>
        <pt x="704" y="1026" on="0"/>
        <pt x="726" y="1005" on="0"/>
        <pt x="733" y="995" on="1"/>
        <pt x="741" y="1038" on="1"/>
        <pt x="860" y="1038" on="1"/>
        <pt x="788" y="606" on="1"/>
        <pt x="786" y="592" on="0"/>
        <pt x="781" y="562" on="0"/>
        <pt x="778" y="536" on="0"/>
        <pt x="776" y="517" on="0"/>
        <pt x="776" y="514" on="1"/>
        <pt x="776" y="469" on="0"/>
        <pt x="811" y="424" on="0"/>
        <pt x="840" y="424" on="1"/>
        <pt x="871" y="424" on="0"/>
        <pt x="926" y="481" on="0"/>
        <pt x="967" y="580" on="0"/>
        <pt x="991" y="712" on="0"/>
        <pt x="991" y="788" on="1"/>
        <pt x="991" y="912" on="0"/>
        <pt x="937" y="1104" on="0"/>
        <pt x="838" y="1235" on="0"/>
        <pt x="699" y="1303" on="0"/>
        <pt x="614" y="1303" on="1"/>
        <pt x="521" y="1303" on="0"/>
        <pt x="361" y="1202" on="0"/>
        <pt x="244" y="1026" on="0"/>
        <pt x="178" y="788" on="0"/>
        <pt x="178" y="651" on="1"/>
        <pt x="178" y="518" on="0"/>
        <pt x="237" y="307" on="0"/>
        <pt x="347" y="160" on="0"/>
        <pt x="503" y="82" on="0"/>
        <pt x="600" y="82" on="1"/>
        <pt x="627" y="82" on="0"/>
        <pt x="690" y="93" on="0"/>
        <pt x="758" y="118" on="0"/>
        <pt x="827" y="158" on="0"/>
        <pt x="860" y="188" on="1"/>
        <pt x="911" y="78" on="1"/>
        <pt x="831" y="19" on="0"/>
        <pt x="663" y="-29" on="0"/>
        <pt x="573" y="-29" on="1"/>
        <pt x="457" y="-29" on="0"/>
        <pt x="265" y="64" on="0"/>
        <pt x="127" y="239" on="0"/>
        <pt x="51" y="491" on="0"/>
        <pt x="51" y="651" on="1"/>
        <pt x="51" y="811" on="0"/>
        <pt x="140" y="1089" on="0"/>
        <pt x="294" y="1296" on="0"/>
        <pt x="499" y="1415" on="0"/>
        <pt x="616" y="1415" on="1"/>
        <pt x="727" y="1415" on="0"/>
        <pt x="911" y="1326" on="0"/>
        <pt x="1042" y="1163" on="0"/>
        <pt x="1114" y="933" on="0"/>
        <pt x="1114" y="793" on="1"/>
        <pt x="1114" y="701" on="0"/>
        <pt x="1072" y="532" on="0"/>
        <pt x="996" y="402" on="0"/>
        <pt x="889" y="324" on="0"/>
        <pt x="825" y="324" on="1"/>
        <pt x="808" y="324" on="0"/>
        <pt x="769" y="334" on="0"/>
        <pt x="730" y="359" on="0"/>
        <pt x="696" y="402" on="0"/>
      </contour>
      <contour>
        <pt x="545" y="418" on="1"/>
        <pt x="573" y="418" on="0"/>
        <pt x="634" y="474" on="0"/>
        <pt x="657" y="543" on="1"/>
        <pt x="713" y="887" on="1"/>
        <pt x="705" y="913" on="0"/>
        <pt x="665" y="958" on="0"/>
        <pt x="633" y="958" on="1"/>
        <pt x="605" y="958" on="0"/>
        <pt x="543" y="898" on="0"/>
        <pt x="490" y="796" on="0"/>
        <pt x="455" y="660" on="0"/>
        <pt x="455" y="584" on="1"/>
        <pt x="455" y="535" on="0"/>
        <pt x="468" y="471" on="0"/>
        <pt x="492" y="433" on="0"/>
        <pt x="525" y="418" on="0"/>
      </contour>
    </TTGlyph>
    <TTGlyph name="atilde" xMin="34" yMin="-27" xMax="535" yMax="1311">
      <component glyphName="a" x="0" y="0" flags="0x204"/>
      <component glyphName="tilde" x="-40" y="0" flags="0x4"/>
    </TTGlyph>
    <TTGlyph name="b" xMin="16" yMin="-27" xMax="557" yMax="1374">
      <contour>
        <pt x="16" y="1374" on="1"/>
        <pt x="223" y="1374" on="1"/>
        <pt x="223" y="877" on="1"/>
        <pt x="275" y="979" on="0"/>
        <pt x="352" y="979" on="1"/>
        <pt x="391" y="979" on="0"/>
        <pt x="464" y="926" on="0"/>
        <pt x="522" y="805" on="0"/>
        <pt x="557" y="610" on="0"/>
        <pt x="557" y="469" on="1"/>
        <pt x="557" y="343" on="0"/>
        <pt x="524" y="156" on="0"/>
        <pt x="468" y="33" on="0"/>
        <pt x="392" y="-27" on="0"/>
        <pt x="350" y="-27" on="1"/>
        <pt x="304" y="-27" on="0"/>
        <pt x="238" y="29" on="0"/>
        <pt x="209" y="82" on="1"/>
        <pt x="209" y="66" on="0"/>
        <pt x="204" y="37" on="0"/>
        <pt x="202" y="26" on="1"/>
        <pt x="198" y="13" on="0"/>
        <pt x="195" y="0" on="1"/>
        <pt x="78" y="0" on="1"/>
        <pt x="84" y="20" on="0"/>
        <pt x="88" y="40" on="1"/>
        <pt x="92" y="57" on="0"/>
        <pt x="98" y="96" on="0"/>
        <pt x="98" y="113" on="1"/>
        <pt x="98" y="1262" on="1"/>
        <pt x="16" y="1262" on="1"/>
      </contour>
      <contour>
        <pt x="223" y="207" on="1"/>
        <pt x="242" y="151" on="0"/>
        <pt x="294" y="80" on="0"/>
        <pt x="326" y="80" on="1"/>
        <pt x="375" y="80" on="0"/>
        <pt x="434" y="282" on="0"/>
        <pt x="434" y="469" on="1"/>
        <pt x="434" y="664" on="0"/>
        <pt x="380" y="872" on="0"/>
        <pt x="328" y="872" on="1"/>
        <pt x="311" y="872" on="0"/>
        <pt x="280" y="837" on="0"/>
        <pt x="253" y="781" on="0"/>
        <pt x="231" y="713" on="0"/>
        <pt x="223" y="680" on="1"/>
      </contour>
    </TTGlyph>
    <TTGlyph name="backslash" xMin="45" yMin="-41" xMax="432" yMax="1436">
      <contour>
        <pt x="45" y="1436" on="1"/>
        <pt x="162" y="1436" on="1"/>
        <pt x="432" y="-41" on="1"/>
        <pt x="315" y="-41" on="1"/>
      </contour>
    </TTGlyph>
    <TTGlyph name="bar" xMin="82" yMin="-483" xMax="184" yMax="1565">
      <contour>
        <pt x="82" y="-483" on="1"/>
        <pt x="82" y="1565" on="1"/>
        <pt x="184" y="1565" on="1"/>
        <pt x="184" y="-483" on="1"/>
      </contour>
    </TTGlyph>
    <TTGlyph name="braceleft" xMin="-2" yMin="-121" xMax="360" yMax="1489">
      <contour>
        <pt x="123" y="354" on="1"/>
        <pt x="123" y="429" on="0"/>
        <pt x="116" y="535" on="0"/>
        <pt x="94" y="603" on="0"/>
        <pt x="53" y="635" on="0"/>
        <pt x="18" y="635" on="1"/>
        <pt x="-2" y="635" on="1"/>
        <pt x="-2" y="737" on="1"/>
        <pt x="18" y="737" on="1"/>
        <pt x="54" y="737" on="0"/>
        <pt x="95" y="770" on="0"/>
        <pt x="117" y="839" on="0"/>
        <pt x="123" y="946" on="0"/>
        <pt x="123" y="1020" on="1"/>
        <pt x="123" y="1184" on="1"/>
        <pt x="123" y="1277" on="0"/>
        <pt x="143" y="1396" on="0"/>
        <pt x="187" y="1463" on="0"/>
        <pt x="254" y="1489" on="0"/>
        <pt x="301" y="1489" on="1"/>
        <pt x="360" y="1489" on="1"/>
        <pt x="360" y="1382" on="1"/>
        <pt x="326" y="1382" on="1"/>
        <pt x="306" y="1382" on="0"/>
        <pt x="277" y="1374" on="0"/>
        <pt x="258" y="1342" on="0"/>
        <pt x="248" y="1276" on="0"/>
        <pt x="248" y="1219" on="1"/>
        <pt x="248" y="1020" on="1"/>
        <pt x="248" y="964" on="0"/>
        <pt x="245" y="856" on="0"/>
        <pt x="221" y="766" on="0"/>
        <pt x="168" y="700" on="0"/>
        <pt x="119" y="686" on="1"/>
        <pt x="167" y="671" on="0"/>
        <pt x="220" y="606" on="0"/>
        <pt x="244" y="516" on="0"/>
        <pt x="248" y="408" on="0"/>
        <pt x="248" y="352" on="1"/>
        <pt x="248" y="150" on="1"/>
        <pt x="248" y="92" on="0"/>
        <pt x="258" y="27" on="0"/>
        <pt x="277" y="-6" on="0"/>
        <pt x="306" y="-14" on="0"/>
        <pt x="326" y="-14" on="1"/>
        <pt x="360" y="-14" on="1"/>
        <pt x="360" y="-121" on="1"/>
        <pt x="301" y="-121" on="1"/>
        <pt x="254" y="-121" on="0"/>
        <pt x="187" y="-95" on="0"/>
        <pt x="143" y="-27" on="0"/>
        <pt x="123" y="91" on="0"/>
        <pt x="123" y="184" on="1"/>
      </contour>
    </TTGlyph>
    <TTGlyph name="braceright" xMin="82" yMin="-121" xMax="444" yMax="1489">
      <contour>
        <pt x="319" y="184" on="1"/>
        <pt x="319" y="91" on="0"/>
        <pt x="299" y="-27" on="0"/>
        <pt x="255" y="-95" on="0"/>
        <pt x="188" y="-121" on="0"/>
        <pt x="141" y="-121" on="1"/>
        <pt x="82" y="-121" on="1"/>
        <pt x="82" y="-14" on="1"/>
        <pt x="117" y="-14" on="1"/>
        <pt x="136" y="-14" on="0"/>
        <pt x="165" y="-6" on="0"/>
        <pt x="185" y="27" on="0"/>
        <pt x="195" y="92" on="0"/>
        <pt x="195" y="150" on="1"/>
        <pt x="195" y="352" on="1"/>
        <pt x="195" y="408" on="0"/>
        <pt x="199" y="516" on="0"/>
        <pt x="223" y="606" on="0"/>
        <pt x="276" y="671" on="0"/>
        <pt x="324" y="686" on="1"/>
        <pt x="275" y="700" on="0"/>
        <pt x="222" y="766" on="0"/>
        <pt x="198" y="856" on="0"/>
        <pt x="195" y="964" on="0"/>
        <pt x="195" y="1020" on="1"/>
        <pt x="195" y="1219" on="1"/>
        <pt x="195" y="1276" on="0"/>
        <pt x="185" y="1342" on="0"/>
        <pt x="165" y="1374" on="0"/>
        <pt x="136" y="1382" on="0"/>
        <pt x="117" y="1382" on="1"/>
        <pt x="82" y="1382" on="1"/>
        <pt x="82" y="1489" on="1"/>
        <pt x="141" y="1489" on="1"/>
        <pt x="188" y="1489" on="0"/>
        <pt x="255" y="1463" on="0"/>
        <pt x="299" y="1396" on="0"/>
        <pt x="319" y="1277" on="0"/>
        <pt x="319" y="1184" on="1"/>
        <pt x="319" y="1020" on="1"/>
        <pt x="319" y="946" on="0"/>
        <pt x="325" y="839" on="0"/>
        <pt x="347" y="770" on="0"/>
        <pt x="389" y="737" on="0"/>
        <pt x="424" y="737" on="1"/>
        <pt x="444" y="737" on="1"/>
        <pt x="444" y="635" on="1"/>
        <pt x="424" y="635" on="1"/>
        <pt x="389" y="635" on="0"/>
        <pt x="348" y="603" on="0"/>
        <pt x="326" y="535" on="0"/>
        <pt x="319" y="429" on="0"/>
        <pt x="319" y="354" on="1"/>
      </contour>
    </TTGlyph>
    <TTGlyph name="bracketleft" xMin="102" yMin="-121" xMax="356" yMax="1489">
      <contour>
        <pt x="102" y="-121" on="1"/>
        <pt x="102" y="1489" on="1"/>
        <pt x="356" y="1489" on="1"/>
        <pt x="356" y="1382" on="1"/>
        <pt x="227" y="1382" on="1"/>
        <pt x="227" y="-14" on="1"/>
        <pt x="356" y="-14" on="1"/>
        <pt x="356" y="-121" on="1"/>
      </contour>
    </TTGlyph>
    <TTGlyph name="bracketright" xMin="96" yMin="-121" xMax="350" yMax="1489">
      <contour>
        <pt x="96" y="-121" on="1"/>
        <pt x="96" y="-14" on="1"/>
        <pt x="225" y="-14" on="1"/>
        <pt x="225" y="1382" on="1"/>
        <pt x="96" y="1382" on="1"/>
        <pt x="96" y="1489" on="1"/>
        <pt x="350" y="1489" on="1"/>
        <pt x="350" y="-121" on="1"/>
      </contour>
    </TTGlyph>
    <TTGlyph name="breve" xMin="86" yMin="1094" xMax="530" yMax="1311">
      <contour>
        <pt x="530" y="1311" on="1"/>
        <pt x="524" y="1274" on="0"/>
        <pt x="498" y="1197" on="0"/>
        <pt x="447" y="1134" on="0"/>
        <pt x="367" y="1094" on="0"/>
        <pt x="307" y="1094" on="1"/>
        <pt x="247" y="1094" on="0"/>
        <pt x="167" y="1134" on="0"/>
        <pt x="118" y="1197" on="0"/>
        <pt x="92" y="1274" on="0"/>
        <pt x="86" y="1311" on="1"/>
        <pt x="188" y="1311" on="1"/>
        <pt x="191" y="1293" on="0"/>
        <pt x="205" y="1251" on="0"/>
        <pt x="232" y="1215" on="0"/>
        <pt x="275" y="1190" on="0"/>
        <pt x="307" y="1190" on="1"/>
        <pt x="341" y="1190" on="0"/>
        <pt x="385" y="1215" on="0"/>
        <pt x="413" y="1251" on="0"/>
        <pt x="427" y="1293" on="0"/>
        <pt x="430" y="1311" on="1"/>
        <pt x="530" y="1311" on="1"/>
      </contour>
    </TTGlyph>
    <TTGlyph name="brokenbar" xMin="82" yMin="-352" xMax="184" yMax="1430">
      <contour>
        <pt x="82" y="672" on="1"/>
        <pt x="82" y="1430" on="1"/>
        <pt x="184" y="1430" on="1"/>
        <pt x="184" y="672" on="1"/>
      </contour>
      <contour>
        <pt x="82" y="-352" on="1"/>
        <pt x="82" y="406" on="1"/>
        <pt x="184" y="406" on="1"/>
        <pt x="184" y="-352" on="1"/>
      </contour>
    </TTGlyph>
    <TTGlyph name="bullet" xMin="102" yMin="582" xMax="408" yMax="887">
      <contour>
        <pt x="102" y="733" on="1"/>
        <pt x="102" y="764" on="0"/>
        <pt x="126" y="820" on="0"/>
        <pt x="167" y="862" on="0"/>
        <pt x="222" y="887" on="0"/>
        <pt x="254" y="887" on="1"/>
        <pt x="285" y="887" on="0"/>
        <pt x="341" y="862" on="0"/>
        <pt x="383" y="820" on="0"/>
        <pt x="408" y="764" on="0"/>
        <pt x="408" y="733" on="1"/>
        <pt x="408" y="701" on="0"/>
        <pt x="383" y="646" on="0"/>
        <pt x="341" y="606" on="0"/>
        <pt x="285" y="582" on="0"/>
        <pt x="254" y="582" on="1"/>
        <pt x="222" y="582" on="0"/>
        <pt x="167" y="606" on="0"/>
        <pt x="126" y="646" on="0"/>
        <pt x="102" y="701" on="0"/>
      </contour>
    </TTGlyph>
    <TTGlyph name="c" xMin="43" yMin="-27" xMax="508" yMax="977">
      <contour>
        <pt x="387" y="604" on="1"/>
        <pt x="387" y="676" on="1"/>
        <pt x="387" y="737" on="0"/>
        <pt x="368" y="814" on="0"/>
        <pt x="340" y="857" on="0"/>
        <pt x="307" y="872" on="0"/>
        <pt x="293" y="872" on="1"/>
        <pt x="262" y="872" on="0"/>
        <pt x="217" y="817" on="0"/>
        <pt x="188" y="714" on="0"/>
        <pt x="174" y="568" on="0"/>
        <pt x="174" y="477" on="1"/>
        <pt x="174" y="385" on="0"/>
        <pt x="186" y="239" on="0"/>
        <pt x="215" y="137" on="0"/>
        <pt x="260" y="82" on="0"/>
        <pt x="293" y="82" on="1"/>
        <pt x="322" y="82" on="0"/>
        <pt x="362" y="119" on="0"/>
        <pt x="388" y="174" on="0"/>
        <pt x="404" y="237" on="0"/>
        <pt x="410" y="264" on="1"/>
        <pt x="508" y="264" on="1"/>
        <pt x="500" y="202" on="0"/>
        <pt x="465" y="95" on="0"/>
        <pt x="411" y="17" on="0"/>
        <pt x="338" y="-27" on="0"/>
        <pt x="291" y="-27" on="1"/>
        <pt x="175" y="-27" on="0"/>
        <pt x="43" y="229" on="0"/>
        <pt x="43" y="475" on="1"/>
        <pt x="43" y="597" on="0"/>
        <pt x="81" y="785" on="0"/>
        <pt x="146" y="912" on="0"/>
        <pt x="231" y="977" on="0"/>
        <pt x="279" y="977" on="1"/>
        <pt x="300" y="977" on="0"/>
        <pt x="334" y="963" on="0"/>
        <pt x="361" y="941" on="0"/>
        <pt x="381" y="913" on="0"/>
        <pt x="387" y="899" on="1"/>
        <pt x="387" y="952" on="1"/>
        <pt x="492" y="952" on="1"/>
        <pt x="492" y="604" on="1"/>
      </contour>
    </TTGlyph>
    <TTGlyph name="cacute" xMin="43" yMin="-27" xMax="508" yMax="1356">
      <component glyphName="c" x="0" y="0" flags="0x204"/>
      <component glyphName="acute" x="-15" y="0" flags="0x4"/>
    </TTGlyph>
    <TTGlyph name="caron" xMin="51" yMin="1081" xMax="563" yMax="1362">
      <contour>
        <pt x="563" y="1300" on="1"/>
        <pt x="307" y="1081" on="1"/>
        <pt x="51" y="1300" on="1"/>
        <pt x="111" y="1362" on="1"/>
        <pt x="307" y="1212" on="1"/>
        <pt x="504" y="1362" on="1"/>
      </contour>
    </TTGlyph>
    <TTGlyph name="ccaron" xMin="36" yMin="-27" xMax="548" yMax="1362">
      <component glyphName="c" x="0" y="0" flags="0x204"/>
      <component glyphName="caron" x="-15" y="0" flags="0x4"/>
    </TTGlyph>
    <TTGlyph name="ccedilla" xMin="43" yMin="-401" xMax="508" yMax="977">
      <contour>
        <pt x="387" y="604" on="1"/>
        <pt x="387" y="676" on="1"/>
        <pt x="387" y="737" on="0"/>
        <pt x="368" y="814" on="0"/>
        <pt x="340" y="857" on="0"/>
        <pt x="307" y="872" on="0"/>
        <pt x="293" y="872" on="1"/>
        <pt x="262" y="872" on="0"/>
        <pt x="217" y="817" on="0"/>
        <pt x="188" y="714" on="0"/>
        <pt x="174" y="568" on="0"/>
        <pt x="174" y="477" on="1"/>
        <pt x="174" y="385" on="0"/>
        <pt x="186" y="239" on="0"/>
        <pt x="215" y="137" on="0"/>
        <pt x="260" y="82" on="0"/>
        <pt x="293" y="82" on="1"/>
        <pt x="322" y="82" on="0"/>
        <pt x="362" y="119" on="0"/>
        <pt x="388" y="174" on="0"/>
        <pt x="404" y="237" on="0"/>
        <pt x="410" y="264" on="1"/>
        <pt x="508" y="264" on="1"/>
        <pt x="501" y="208" on="0"/>
        <pt x="471" y="111" on="0"/>
        <pt x="425" y="36" on="0"/>
        <pt x="364" y="-14" on="0"/>
        <pt x="326" y="-23" on="1"/>
        <pt x="307" y="-98" on="1"/>
        <pt x="328" y="-98" on="0"/>
        <pt x="378" y="-112" on="0"/>
        <pt x="423" y="-145" on="0"/>
        <pt x="453" y="-200" on="0"/>
        <pt x="453" y="-242" on="1"/>
        <pt x="453" y="-287" on="0"/>
        <pt x="419" y="-348" on="0"/>
        <pt x="367" y="-385" on="0"/>
        <pt x="301" y="-401" on="0"/>
        <pt x="270" y="-401" on="1"/>
        <pt x="207" y="-401" on="0"/>
        <pt x="117" y="-368" on="0"/>
        <pt x="92" y="-354" on="1"/>
        <pt x="141" y="-266" on="1"/>
        <pt x="164" y="-285" on="0"/>
        <pt x="224" y="-311" on="0"/>
        <pt x="258" y="-311" on="1"/>
        <pt x="301" y="-311" on="0"/>
        <pt x="350" y="-273" on="0"/>
        <pt x="350" y="-242" on="1"/>
        <pt x="350" y="-223" on="0"/>
        <pt x="334" y="-197" on="0"/>
        <pt x="307" y="-182" on="0"/>
        <pt x="274" y="-176" on="0"/>
        <pt x="256" y="-176" on="1"/>
        <pt x="226" y="-176" on="0"/>
        <pt x="199" y="-182" on="1"/>
        <pt x="238" y="-18" on="1"/>
        <pt x="147" y="9" on="0"/>
        <pt x="43" y="257" on="0"/>
        <pt x="43" y="475" on="1"/>
        <pt x="43" y="597" on="0"/>
        <pt x="81" y="785" on="0"/>
        <pt x="146" y="912" on="0"/>
        <pt x="231" y="977" on="0"/>
        <pt x="279" y="977" on="1"/>
        <pt x="300" y="977" on="0"/>
        <pt x="334" y="963" on="0"/>
        <pt x="361" y="941" on="0"/>
        <pt x="381" y="913" on="0"/>
        <pt x="387" y="899" on="1"/>
        <pt x="387" y="952" on="1"/>
        <pt x="492" y="952" on="1"/>
        <pt x="492" y="604" on="1"/>
      </contour>
    </TTGlyph>
    <TTGlyph name="ccircumflex" xMin="36" yMin="-27" xMax="548" yMax="1362">
      <component glyphName="c" x="0" y="0" flags="0x204"/>
      <component glyphName="circumflex" x="-15" y="0" flags="0x4"/>
    </TTGlyph>
    <TTGlyph name="cdotaccent" xMin="43" yMin="-27" xMax="508" yMax="1264">
      <component glyphName="c" x="0" y="0" flags="0x204"/>
      <component glyphName="dotaccent" x="-13" y="0" flags="0x4"/>
    </TTGlyph>
    <TTGlyph name="cedilla" xMin="119" yMin="-401" xMax="479" yMax="20">
      <contour>
        <pt x="334" y="-98" on="1"/>
        <pt x="355" y="-98" on="0"/>
        <pt x="405" y="-112" on="0"/>
        <pt x="449" y="-145" on="0"/>
        <pt x="479" y="-200" on="0"/>
        <pt x="479" y="-242" on="1"/>
        <pt x="479" y="-287" on="0"/>
        <pt x="446" y="-348" on="0"/>
        <pt x="393" y="-385" on="0"/>
        <pt x="328" y="-401" on="0"/>
        <pt x="297" y="-401" on="1"/>
        <pt x="234" y="-401" on="0"/>
        <pt x="144" y="-368" on="0"/>
        <pt x="119" y="-354" on="1"/>
        <pt x="168" y="-266" on="1"/>
        <pt x="191" y="-285" on="0"/>
        <pt x="251" y="-311" on="0"/>
        <pt x="285" y="-311" on="1"/>
        <pt x="328" y="-311" on="0"/>
        <pt x="377" y="-273" on="0"/>
        <pt x="377" y="-242" on="1"/>
        <pt x="377" y="-223" on="0"/>
        <pt x="361" y="-197" on="0"/>
        <pt x="334" y="-182" on="0"/>
        <pt x="301" y="-176" on="0"/>
        <pt x="283" y="-176" on="1"/>
        <pt x="253" y="-176" on="0"/>
        <pt x="225" y="-182" on="1"/>
        <pt x="274" y="20" on="1"/>
        <pt x="362" y="20" on="1"/>
      </contour>
    </TTGlyph>
    <TTGlyph name="cent" xMin="51" yMin="10" xMax="512" yMax="1364">
      <contour>
        <pt x="399" y="860" on="1"/>
        <pt x="399" y="891" on="1"/>
        <pt x="399" y="973" on="0"/>
        <pt x="364" y="1058" on="0"/>
        <pt x="342" y="1073" on="1"/>
        <pt x="342" y="301" on="1"/>
        <pt x="371" y="310" on="0"/>
        <pt x="421" y="365" on="0"/>
        <pt x="442" y="406" on="1"/>
        <pt x="512" y="340" on="1"/>
        <pt x="475" y="278" on="0"/>
        <pt x="395" y="204" on="0"/>
        <pt x="342" y="193" on="1"/>
        <pt x="342" y="10" on="1"/>
        <pt x="260" y="10" on="1"/>
        <pt x="260" y="193" on="1"/>
        <pt x="157" y="214" on="0"/>
        <pt x="51" y="467" on="0"/>
        <pt x="51" y="690" on="1"/>
        <pt x="51" y="804" on="0"/>
        <pt x="83" y="981" on="0"/>
        <pt x="140" y="1107" on="0"/>
        <pt x="216" y="1179" on="0"/>
        <pt x="260" y="1188" on="1"/>
        <pt x="260" y="1364" on="1"/>
        <pt x="342" y="1364" on="1"/>
        <pt x="342" y="1178" on="1"/>
        <pt x="362" y="1165" on="0"/>
        <pt x="391" y="1131" on="0"/>
        <pt x="399" y="1114" on="1"/>
        <pt x="399" y="1167" on="1"/>
        <pt x="500" y="1167" on="1"/>
        <pt x="500" y="860" on="1"/>
      </contour>
      <contour>
        <pt x="178" y="692" on="1"/>
        <pt x="178" y="618" on="0"/>
        <pt x="185" y="494" on="0"/>
        <pt x="204" y="397" on="0"/>
        <pt x="236" y="330" on="0"/>
        <pt x="260" y="313" on="1"/>
        <pt x="260" y="1071" on="1"/>
        <pt x="218" y="1037" on="0"/>
        <pt x="178" y="841" on="0"/>
      </contour>
    </TTGlyph>
    <TTGlyph name="circumflex" xMin="51" yMin="1081" xMax="563" yMax="1362">
      <contour>
        <pt x="504" y="1081" on="1"/>
        <pt x="307" y="1231" on="1"/>
        <pt x="111" y="1081" on="1"/>
        <pt x="51" y="1143" on="1"/>
        <pt x="307" y="1362" on="1"/>
        <pt x="563" y="1143" on="1"/>
      </contour>
    </TTGlyph>
    <TTGlyph name="colon" xMin="90" yMin="-10" xMax="301" yMax="815">
      <contour>
        <pt x="90" y="94" on="1"/>
        <pt x="90" y="116" on="0"/>
        <pt x="106" y="156" on="0"/>
        <pt x="134" y="184" on="0"/>
        <pt x="172" y="201" on="0"/>
        <pt x="195" y="201" on="1"/>
        <pt x="217" y="201" on="0"/>
        <pt x="256" y="184" on="0"/>
        <pt x="284" y="156" on="0"/>
        <pt x="301" y="116" on="0"/>
        <pt x="301" y="94" on="1"/>
        <pt x="301" y="49" on="0"/>
        <pt x="240" y="-10" on="0"/>
        <pt x="195" y="-10" on="1"/>
        <pt x="172" y="-10" on="0"/>
        <pt x="134" y="6" on="0"/>
        <pt x="106" y="34" on="0"/>
        <pt x="90" y="72" on="0"/>
      </contour>
      <contour>
        <pt x="90" y="709" on="1"/>
        <pt x="90" y="731" on="0"/>
        <pt x="106" y="770" on="0"/>
        <pt x="134" y="798" on="0"/>
        <pt x="172" y="815" on="0"/>
        <pt x="195" y="815" on="1"/>
        <pt x="240" y="815" on="0"/>
        <pt x="301" y="754" on="0"/>
        <pt x="301" y="709" on="1"/>
        <pt x="301" y="686" on="0"/>
        <pt x="284" y="648" on="0"/>
        <pt x="256" y="620" on="0"/>
        <pt x="217" y="604" on="0"/>
        <pt x="195" y="604" on="1"/>
        <pt x="150" y="604" on="0"/>
        <pt x="90" y="664" on="0"/>
      </contour>
    </TTGlyph>
    <TTGlyph name="comma" xMin="49" yMin="-219" xMax="260" yMax="201">
      <contour>
        <pt x="49" y="94" on="1"/>
        <pt x="49" y="116" on="0"/>
        <pt x="65" y="156" on="0"/>
        <pt x="93" y="184" on="0"/>
        <pt x="131" y="201" on="0"/>
        <pt x="154" y="201" on="1"/>
        <pt x="200" y="201" on="0"/>
        <pt x="260" y="139" on="0"/>
        <pt x="260" y="82" on="1"/>
        <pt x="260" y="40" on="0"/>
        <pt x="238" y="-44" on="0"/>
        <pt x="200" y="-122" on="0"/>
        <pt x="151" y="-191" on="0"/>
        <pt x="123" y="-219" on="1"/>
        <pt x="66" y="-172" on="1"/>
        <pt x="98" y="-137" on="0"/>
        <pt x="148" y="-60" on="0"/>
        <pt x="156" y="-10" on="1"/>
        <pt x="127" y="-10" on="0"/>
        <pt x="86" y="8" on="0"/>
        <pt x="60" y="38" on="0"/>
        <pt x="49" y="75" on="0"/>
      </contour>
    </TTGlyph>
    <TTGlyph name="commaaccent" xMin="215" yMin="-416" xMax="397" yMax="-143">
      <contour>
        <pt x="315" y="-416" on="1"/>
        <pt x="215" y="-416" on="1"/>
        <pt x="254" y="-143" on="1"/>
        <pt x="397" y="-143" on="1"/>
      </contour>
    </TTGlyph>
    <TTGlyph name="copyright" xMin="82" yMin="0" xMax="1456" yMax="1374">
      <contour>
        <pt x="1456" y="686" on="1"/>
        <pt x="1456" y="591" on="0"/>
        <pt x="1407" y="416" on="0"/>
        <pt x="1318" y="263" on="0"/>
        <pt x="1192" y="138" on="0"/>
        <pt x="1039" y="49" on="0"/>
        <pt x="863" y="0" on="0"/>
        <pt x="768" y="0" on="1"/>
        <pt x="626" y="0" on="0"/>
        <pt x="376" y="108" on="0"/>
        <pt x="190" y="294" on="0"/>
        <pt x="82" y="544" on="0"/>
        <pt x="82" y="686" on="1"/>
        <pt x="82" y="781" on="0"/>
        <pt x="131" y="957" on="0"/>
        <pt x="220" y="1110" on="0"/>
        <pt x="345" y="1236" on="0"/>
        <pt x="498" y="1325" on="0"/>
        <pt x="673" y="1374" on="0"/>
        <pt x="768" y="1374" on="1"/>
        <pt x="863" y="1374" on="0"/>
        <pt x="1039" y="1325" on="0"/>
        <pt x="1192" y="1236" on="0"/>
        <pt x="1318" y="1110" on="0"/>
        <pt x="1407" y="957" on="0"/>
        <pt x="1456" y="781" on="0"/>
      </contour>
      <contour>
        <pt x="176" y="686" on="1"/>
        <pt x="176" y="563" on="0"/>
        <pt x="269" y="347" on="0"/>
        <pt x="429" y="187" on="0"/>
        <pt x="645" y="94" on="0"/>
        <pt x="768" y="94" on="1"/>
        <pt x="892" y="94" on="0"/>
        <pt x="1109" y="187" on="0"/>
        <pt x="1271" y="347" on="0"/>
        <pt x="1364" y="563" on="0"/>
        <pt x="1364" y="686" on="1"/>
        <pt x="1364" y="810" on="0"/>
        <pt x="1271" y="1027" on="0"/>
        <pt x="1109" y="1189" on="0"/>
        <pt x="892" y="1282" on="0"/>
        <pt x="768" y="1282" on="1"/>
        <pt x="645" y="1282" on="0"/>
        <pt x="429" y="1189" on="0"/>
        <pt x="269" y="1027" on="0"/>
        <pt x="176" y="810" on="0"/>
      </contour>
      <contour>
        <pt x="760" y="272" on="1"/>
        <pt x="698" y="272" on="0"/>
        <pt x="584" y="321" on="0"/>
        <pt x="497" y="423" on="0"/>
        <pt x="444" y="580" on="0"/>
        <pt x="444" y="688" on="1"/>
        <pt x="444" y="791" on="0"/>
        <pt x="496" y="946" on="0"/>
        <pt x="583" y="1050" on="0"/>
        <pt x="698" y="1102" on="0"/>
        <pt x="762" y="1102" on="1"/>
        <pt x="821" y="1102" on="0"/>
        <pt x="899" y="1065" on="0"/>
        <pt x="928" y="1040" on="1"/>
        <pt x="928" y="1087" on="1"/>
        <pt x="1026" y="1087" on="1"/>
        <pt x="1026" y="797" on="1"/>
        <pt x="928" y="797" on="1"/>
        <pt x="928" y="850" on="1"/>
        <pt x="928" y="884" on="0"/>
        <pt x="903" y="944" on="0"/>
        <pt x="860" y="989" on="0"/>
        <pt x="803" y="1014" on="0"/>
        <pt x="772" y="1014" on="1"/>
        <pt x="720" y="1014" on="0"/>
        <pt x="644" y="966" on="0"/>
        <pt x="595" y="880" on="0"/>
        <pt x="571" y="760" on="0"/>
        <pt x="571" y="688" on="1"/>
        <pt x="571" y="616" on="0"/>
        <pt x="595" y="496" on="0"/>
        <pt x="644" y="410" on="0"/>
        <pt x="720" y="362" on="0"/>
        <pt x="772" y="362" on="1"/>
        <pt x="813" y="362" on="0"/>
        <pt x="871" y="391" on="0"/>
        <pt x="910" y="436" on="0"/>
        <pt x="934" y="490" on="0"/>
        <pt x="942" y="514" on="1"/>
        <pt x="1049" y="514" on="1"/>
        <pt x="1035" y="460" on="0"/>
        <pt x="984" y="371" on="0"/>
        <pt x="912" y="307" on="0"/>
        <pt x="817" y="272" on="0"/>
      </contour>
    </TTGlyph>
    <TTGlyph name="currency" xMin="41" yMin="389" xMax="707" yMax="1057">
      <contour>
        <pt x="598" y="877" on="1"/>
        <pt x="623" y="841" on="0"/>
        <pt x="643" y="765" on="0"/>
        <pt x="643" y="723" on="1"/>
        <pt x="643" y="680" on="0"/>
        <pt x="624" y="604" on="0"/>
        <pt x="598" y="569" on="1"/>
        <pt x="707" y="461" on="1"/>
        <pt x="637" y="389" on="1"/>
        <pt x="526" y="500" on="1"/>
        <pt x="492" y="478" on="0"/>
        <pt x="410" y="453" on="0"/>
        <pt x="373" y="453" on="1"/>
        <pt x="331" y="453" on="0"/>
        <pt x="255" y="475" on="0"/>
        <pt x="221" y="500" on="1"/>
        <pt x="111" y="389" on="1"/>
        <pt x="41" y="461" on="1"/>
        <pt x="152" y="571" on="1"/>
        <pt x="127" y="605" on="0"/>
        <pt x="104" y="681" on="0"/>
        <pt x="104" y="723" on="1"/>
        <pt x="104" y="766" on="0"/>
        <pt x="126" y="841" on="0"/>
        <pt x="152" y="877" on="1"/>
        <pt x="41" y="987" on="1"/>
        <pt x="111" y="1057" on="1"/>
        <pt x="221" y="946" on="1"/>
        <pt x="255" y="969" on="0"/>
        <pt x="337" y="993" on="0"/>
        <pt x="377" y="993" on="1"/>
        <pt x="419" y="993" on="0"/>
        <pt x="494" y="973" on="0"/>
        <pt x="528" y="948" on="1"/>
        <pt x="554" y="974" on="0"/>
        <pt x="611" y="1032" on="0"/>
        <pt x="637" y="1057" on="1"/>
        <pt x="707" y="987" on="1"/>
      </contour>
      <contour>
        <pt x="250" y="598" on="1"/>
        <pt x="275" y="573" on="0"/>
        <pt x="339" y="551" on="0"/>
        <pt x="373" y="551" on="1"/>
        <pt x="406" y="551" on="0"/>
        <pt x="469" y="574" on="0"/>
        <pt x="519" y="617" on="0"/>
        <pt x="549" y="681" on="0"/>
        <pt x="549" y="723" on="1"/>
        <pt x="549" y="758" on="0"/>
        <pt x="521" y="821" on="0"/>
        <pt x="473" y="869" on="0"/>
        <pt x="409" y="897" on="0"/>
        <pt x="373" y="897" on="1"/>
        <pt x="336" y="897" on="0"/>
        <pt x="273" y="868" on="0"/>
        <pt x="227" y="820" on="0"/>
        <pt x="201" y="757" on="0"/>
        <pt x="201" y="723" on="1"/>
        <pt x="201" y="688" on="0"/>
        <pt x="224" y="624" on="0"/>
      </contour>
    </TTGlyph>
    <TTGlyph name="d" xMin="43" yMin="-27" xMax="584" yMax="1374">
      <contour>
        <pt x="584" y="0" on="1"/>
        <pt x="377" y="0" on="1"/>
        <pt x="377" y="63" on="1"/>
        <pt x="348" y="20" on="0"/>
        <pt x="286" y="-27" on="0"/>
        <pt x="242" y="-27" on="1"/>
        <pt x="201" y="-27" on="0"/>
        <pt x="129" y="21" on="0"/>
        <pt x="75" y="138" on="0"/>
        <pt x="43" y="335" on="0"/>
        <pt x="43" y="483" on="1"/>
        <pt x="43" y="609" on="0"/>
        <pt x="75" y="795" on="0"/>
        <pt x="130" y="918" on="0"/>
        <pt x="205" y="979" on="0"/>
        <pt x="248" y="979" on="1"/>
        <pt x="288" y="979" on="0"/>
        <pt x="351" y="935" on="0"/>
        <pt x="377" y="881" on="1"/>
        <pt x="377" y="1262" on="1"/>
        <pt x="289" y="1262" on="1"/>
        <pt x="289" y="1374" on="1"/>
        <pt x="502" y="1374" on="1"/>
        <pt x="502" y="113" on="1"/>
        <pt x="584" y="113" on="1"/>
      </contour>
      <contour>
        <pt x="272" y="80" on="1"/>
        <pt x="306" y="80" on="0"/>
        <pt x="360" y="155" on="0"/>
        <pt x="377" y="221" on="1"/>
        <pt x="377" y="688" on="1"/>
        <pt x="371" y="718" on="0"/>
        <pt x="350" y="783" on="0"/>
        <pt x="324" y="837" on="0"/>
        <pt x="292" y="872" on="0"/>
        <pt x="274" y="872" on="1"/>
        <pt x="251" y="872" on="0"/>
        <pt x="212" y="820" on="0"/>
        <pt x="183" y="721" on="0"/>
        <pt x="166" y="576" on="0"/>
        <pt x="166" y="483" on="1"/>
        <pt x="166" y="288" on="0"/>
        <pt x="220" y="80" on="0"/>
      </contour>
    </TTGlyph>
    <TTGlyph name="dagger" xMin="41" yMin="-23" xMax="532" yMax="1374">
      <contour>
        <pt x="41" y="1006" on="1"/>
        <pt x="225" y="1006" on="1"/>
        <pt x="225" y="1374" on="1"/>
        <pt x="348" y="1374" on="1"/>
        <pt x="348" y="1006" on="1"/>
        <pt x="532" y="1006" on="1"/>
        <pt x="532" y="891" on="1"/>
        <pt x="348" y="891" on="1"/>
        <pt x="348" y="-23" on="1"/>
        <pt x="225" y="-23" on="1"/>
        <pt x="225" y="891" on="1"/>
        <pt x="41" y="891" on="1"/>
      </contour>
    </TTGlyph>
    <TTGlyph name="daggerdbl" xMin="41" yMin="-23" xMax="532" yMax="1374">
      <contour>
        <pt x="41" y="1006" on="1"/>
        <pt x="225" y="1006" on="1"/>
        <pt x="225" y="1374" on="1"/>
        <pt x="348" y="1374" on="1"/>
        <pt x="348" y="1006" on="1"/>
        <pt x="532" y="1006" on="1"/>
        <pt x="532" y="891" on="1"/>
        <pt x="348" y="891" on="1"/>
        <pt x="348" y="575" on="1"/>
        <pt x="532" y="575" on="1"/>
        <pt x="532" y="461" on="1"/>
        <pt x="348" y="461" on="1"/>
        <pt x="348" y="-23" on="1"/>
        <pt x="225" y="-23" on="1"/>
        <pt x="225" y="461" on="1"/>
        <pt x="41" y="461" on="1"/>
        <pt x="41" y="575" on="1"/>
        <pt x="225" y="575" on="1"/>
        <pt x="225" y="891" on="1"/>
        <pt x="41" y="891" on="1"/>
      </contour>
    </TTGlyph>
    <TTGlyph name="dcaron" xMin="43" yMin="-27" xMax="743" yMax="1374">
      <component glyphName="d" x="0" y="0" flags="0x4"/>
      <component glyphName="uni0315" x="561" y="20" flags="0x4"/>
    </TTGlyph>
    <TTGlyph name="dcroat" xMin="43" yMin="-27" xMax="588" yMax="1374">
      <contour>
        <pt x="584" y="0" on="1"/>
        <pt x="377" y="0" on="1"/>
        <pt x="377" y="63" on="1"/>
        <pt x="348" y="20" on="0"/>
        <pt x="286" y="-27" on="0"/>
        <pt x="242" y="-27" on="1"/>
        <pt x="201" y="-27" on="0"/>
        <pt x="129" y="21" on="0"/>
        <pt x="75" y="138" on="0"/>
        <pt x="43" y="335" on="0"/>
        <pt x="43" y="483" on="1"/>
        <pt x="43" y="609" on="0"/>
        <pt x="75" y="795" on="0"/>
        <pt x="130" y="918" on="0"/>
        <pt x="205" y="979" on="0"/>
        <pt x="248" y="979" on="1"/>
        <pt x="288" y="979" on="0"/>
        <pt x="351" y="935" on="0"/>
        <pt x="377" y="881" on="1"/>
        <pt x="377" y="1067" on="1"/>
        <pt x="223" y="1067" on="1"/>
        <pt x="223" y="1176" on="1"/>
        <pt x="377" y="1176" on="1"/>
        <pt x="377" y="1262" on="1"/>
        <pt x="289" y="1262" on="1"/>
        <pt x="289" y="1374" on="1"/>
        <pt x="502" y="1374" on="1"/>
        <pt x="502" y="1176" on="1"/>
        <pt x="588" y="1176" on="1"/>
        <pt x="588" y="1067" on="1"/>
        <pt x="502" y="1067" on="1"/>
        <pt x="502" y="113" on="1"/>
        <pt x="584" y="113" on="1"/>
      </contour>
      <contour>
        <pt x="272" y="80" on="1"/>
        <pt x="306" y="80" on="0"/>
        <pt x="360" y="155" on="0"/>
        <pt x="377" y="221" on="1"/>
        <pt x="377" y="688" on="1"/>
        <pt x="371" y="718" on="0"/>
        <pt x="350" y="783" on="0"/>
        <pt x="324" y="837" on="0"/>
        <pt x="292" y="872" on="0"/>
        <pt x="274" y="872" on="1"/>
        <pt x="251" y="872" on="0"/>
        <pt x="212" y="820" on="0"/>
        <pt x="183" y="721" on="0"/>
        <pt x="166" y="576" on="0"/>
        <pt x="166" y="483" on="1"/>
        <pt x="166" y="288" on="0"/>
        <pt x="220" y="80" on="0"/>
      </contour>
    </TTGlyph>
    <TTGlyph name="degree" xMin="49" yMin="1014" xMax="422" yMax="1386">
      <contour>
        <pt x="49" y="1198" on="1"/>
        <pt x="49" y="1237" on="0"/>
        <pt x="78" y="1306" on="0"/>
        <pt x="128" y="1357" on="0"/>
        <pt x="195" y="1386" on="0"/>
        <pt x="233" y="1386" on="1"/>
        <pt x="272" y="1386" on="0"/>
        <pt x="341" y="1357" on="0"/>
        <pt x="392" y="1306" on="0"/>
        <pt x="422" y="1237" on="0"/>
        <pt x="422" y="1198" on="1"/>
        <pt x="422" y="1160" on="0"/>
        <pt x="392" y="1093" on="0"/>
        <pt x="341" y="1043" on="0"/>
        <pt x="272" y="1014" on="0"/>
        <pt x="233" y="1014" on="1"/>
        <pt x="195" y="1014" on="0"/>
        <pt x="128" y="1043" on="0"/>
        <pt x="78" y="1093" on="0"/>
        <pt x="49" y="1160" on="0"/>
      </contour>
      <contour>
        <pt x="145" y="1198" on="1"/>
        <pt x="145" y="1161" on="0"/>
        <pt x="196" y="1110" on="0"/>
        <pt x="233" y="1110" on="1"/>
        <pt x="272" y="1110" on="0"/>
        <pt x="326" y="1161" on="0"/>
        <pt x="326" y="1198" on="1"/>
        <pt x="326" y="1217" on="0"/>
        <pt x="312" y="1251" on="0"/>
        <pt x="286" y="1276" on="0"/>
        <pt x="252" y="1290" on="0"/>
        <pt x="233" y="1290" on="1"/>
        <pt x="215" y="1290" on="0"/>
        <pt x="183" y="1276" on="0"/>
        <pt x="159" y="1251" on="0"/>
        <pt x="145" y="1217" on="0"/>
      </contour>
    </TTGlyph>
    <TTGlyph name="dieresis" xMin="98" yMin="1100" xMax="516" yMax="1253">
      <contour>
        <pt x="98" y="1176" on="1"/>
        <pt x="98" y="1208" on="0"/>
        <pt x="142" y="1253" on="0"/>
        <pt x="174" y="1253" on="1"/>
        <pt x="206" y="1253" on="0"/>
        <pt x="252" y="1208" on="0"/>
        <pt x="252" y="1176" on="1"/>
        <pt x="252" y="1144" on="0"/>
        <pt x="206" y="1100" on="0"/>
        <pt x="174" y="1100" on="1"/>
        <pt x="142" y="1100" on="0"/>
        <pt x="98" y="1144" on="0"/>
      </contour>
      <contour>
        <pt x="362" y="1176" on="1"/>
        <pt x="362" y="1208" on="0"/>
        <pt x="406" y="1253" on="0"/>
        <pt x="438" y="1253" on="1"/>
        <pt x="470" y="1253" on="0"/>
        <pt x="516" y="1208" on="0"/>
        <pt x="516" y="1176" on="1"/>
        <pt x="516" y="1144" on="0"/>
        <pt x="470" y="1100" on="0"/>
        <pt x="438" y="1100" on="1"/>
        <pt x="406" y="1100" on="0"/>
        <pt x="362" y="1144" on="0"/>
      </contour>
    </TTGlyph>
    <TTGlyph name="divide" xMin="133" yMin="352" xMax="803" yMax="1018">
      <contour>
        <pt x="133" y="631" on="1"/>
        <pt x="133" y="739" on="1"/>
        <pt x="803" y="739" on="1"/>
        <pt x="803" y="631" on="1"/>
      </contour>
      <contour>
        <pt x="387" y="932" on="1"/>
        <pt x="387" y="969" on="0"/>
        <pt x="433" y="1018" on="0"/>
        <pt x="467" y="1018" on="1"/>
        <pt x="504" y="1018" on="0"/>
        <pt x="553" y="969" on="0"/>
        <pt x="553" y="932" on="1"/>
        <pt x="553" y="898" on="0"/>
        <pt x="504" y="852" on="0"/>
        <pt x="467" y="852" on="1"/>
        <pt x="433" y="852" on="0"/>
        <pt x="387" y="898" on="0"/>
      </contour>
      <contour>
        <pt x="387" y="432" on="1"/>
        <pt x="387" y="469" on="0"/>
        <pt x="433" y="518" on="0"/>
        <pt x="467" y="518" on="1"/>
        <pt x="504" y="518" on="0"/>
        <pt x="553" y="469" on="0"/>
        <pt x="553" y="432" on="1"/>
        <pt x="553" y="398" on="0"/>
        <pt x="504" y="352" on="0"/>
        <pt x="467" y="352" on="1"/>
        <pt x="433" y="352" on="0"/>
        <pt x="387" y="398" on="0"/>
      </contour>
    </TTGlyph>
    <TTGlyph name="dollar" xMin="49" yMin="-109" xMax="596" yMax="1483">
      <contour>
        <pt x="49" y="0" on="1"/>
        <pt x="49" y="418" on="1"/>
        <pt x="156" y="418" on="1"/>
        <pt x="156" y="317" on="1"/>
        <pt x="156" y="266" on="0"/>
        <pt x="177" y="191" on="0"/>
        <pt x="212" y="140" on="0"/>
        <pt x="255" y="112" on="0"/>
        <pt x="276" y="106" on="1"/>
        <pt x="276" y="668" on="1"/>
        <pt x="236" y="696" on="0"/>
        <pt x="160" y="759" on="0"/>
        <pt x="100" y="843" on="0"/>
        <pt x="63" y="957" on="0"/>
        <pt x="63" y="1036" on="1"/>
        <pt x="63" y="1122" on="0"/>
        <pt x="101" y="1245" on="0"/>
        <pt x="163" y="1326" on="0"/>
        <pt x="238" y="1367" on="0"/>
        <pt x="276" y="1372" on="1"/>
        <pt x="276" y="1483" on="1"/>
        <pt x="367" y="1483" on="1"/>
        <pt x="367" y="1362" on="1"/>
        <pt x="417" y="1343" on="0"/>
        <pt x="453" y="1292" on="1"/>
        <pt x="453" y="1374" on="1"/>
        <pt x="559" y="1374" on="1"/>
        <pt x="559" y="999" on="1"/>
        <pt x="453" y="999" on="1"/>
        <pt x="453" y="1092" on="1"/>
        <pt x="453" y="1130" on="0"/>
        <pt x="438" y="1188" on="0"/>
        <pt x="413" y="1229" on="0"/>
        <pt x="382" y="1255" on="0"/>
        <pt x="367" y="1262" on="1"/>
        <pt x="367" y="752" on="1"/>
        <pt x="408" y="721" on="0"/>
        <pt x="490" y="653" on="0"/>
        <pt x="555" y="563" on="0"/>
        <pt x="596" y="443" on="0"/>
        <pt x="596" y="360" on="1"/>
        <pt x="596" y="262" on="0"/>
        <pt x="553" y="129" on="0"/>
        <pt x="485" y="45" on="0"/>
        <pt x="404" y="4" on="0"/>
        <pt x="367" y="0" on="1"/>
        <pt x="367" y="-109" on="1"/>
        <pt x="276" y="-109" on="1"/>
        <pt x="276" y="8" on="1"/>
        <pt x="204" y="26" on="0"/>
        <pt x="156" y="96" on="1"/>
        <pt x="156" y="0" on="1"/>
      </contour>
      <contour>
        <pt x="475" y="356" on="1"/>
        <pt x="475" y="400" on="0"/>
        <pt x="458" y="471" on="0"/>
        <pt x="429" y="529" on="0"/>
        <pt x="390" y="577" on="0"/>
        <pt x="367" y="598" on="1"/>
        <pt x="367" y="117" on="1"/>
        <pt x="389" y="127" on="0"/>
        <pt x="428" y="166" on="0"/>
        <pt x="458" y="225" on="0"/>
        <pt x="475" y="305" on="0"/>
      </contour>
      <contour>
        <pt x="182" y="1036" on="1"/>
        <pt x="182" y="962" on="0"/>
        <pt x="235" y="861" on="0"/>
        <pt x="276" y="823" on="1"/>
        <pt x="276" y="1255" on="1"/>
        <pt x="236" y="1234" on="0"/>
        <pt x="182" y="1126" on="0"/>
      </contour>
    </TTGlyph>
    <TTGlyph name="dotaccent" xMin="225" yMin="1100" xMax="389" yMax="1264">
      <contour>
        <pt x="225" y="1180" on="1"/>
        <pt x="225" y="1215" on="0"/>
        <pt x="271" y="1264" on="0"/>
        <pt x="305" y="1264" on="1"/>
        <pt x="340" y="1264" on="0"/>
        <pt x="389" y="1215" on="0"/>
        <pt x="389" y="1180" on="1"/>
        <pt x="389" y="1146" on="0"/>
        <pt x="340" y="1100" on="0"/>
        <pt x="305" y="1100" on="1"/>
        <pt x="271" y="1100" on="0"/>
        <pt x="225" y="1146" on="0"/>
      </contour>
    </TTGlyph>
    <TTGlyph name="dotlessi" xMin="31" yMin="0" xMax="338" yMax="952">
      <contour>
        <pt x="31" y="952" on="1"/>
        <pt x="238" y="952" on="1"/>
        <pt x="238" y="113" on="1"/>
        <pt x="338" y="113" on="1"/>
        <pt x="338" y="0" on="1"/>
        <pt x="31" y="0" on="1"/>
        <pt x="31" y="113" on="1"/>
        <pt x="113" y="113" on="1"/>
        <pt x="113" y="840" on="1"/>
        <pt x="31" y="840" on="1"/>
      </contour>
    </TTGlyph>
    <TTGlyph name="dotlessj" xMin="-129" yMin="-414" xMax="231" yMax="952">
      <contour>
        <pt x="-74" y="-250" on="1"/>
        <pt x="-55" y="-267" on="0"/>
        <pt x="-14" y="-295" on="0"/>
        <pt x="14" y="-295" on="1"/>
        <pt x="35" y="-295" on="0"/>
        <pt x="69" y="-277" on="0"/>
        <pt x="93" y="-234" on="0"/>
        <pt x="106" y="-164" on="0"/>
        <pt x="106" y="-113" on="1"/>
        <pt x="106" y="840" on="1"/>
        <pt x="12" y="840" on="1"/>
        <pt x="12" y="952" on="1"/>
        <pt x="231" y="952" on="1"/>
        <pt x="231" y="-109" on="1"/>
        <pt x="231" y="-196" on="0"/>
        <pt x="199" y="-313" on="0"/>
        <pt x="145" y="-384" on="0"/>
        <pt x="73" y="-414" on="0"/>
        <pt x="33" y="-414" on="1"/>
        <pt x="4" y="-414" on="0"/>
        <pt x="-45" y="-400" on="0"/>
        <pt x="-86" y="-380" on="0"/>
        <pt x="-118" y="-356" on="0"/>
        <pt x="-129" y="-346" on="1"/>
        <pt x="-74" y="-250" on="1"/>
      </contour>
    </TTGlyph>
    <TTGlyph name="e" xMin="43" yMin="-27" xMax="494" yMax="973">
      <contour>
        <pt x="362" y="520" on="1"/>
        <pt x="361" y="587" on="0"/>
        <pt x="350" y="711" on="0"/>
        <pt x="328" y="806" on="0"/>
        <pt x="293" y="862" on="0"/>
        <pt x="268" y="862" on="1"/>
        <pt x="245" y="862" on="0"/>
        <pt x="211" y="806" on="0"/>
        <pt x="187" y="711" on="0"/>
        <pt x="173" y="587" on="0"/>
        <pt x="172" y="520" on="1"/>
      </contour>
      <contour>
        <pt x="285" y="82" on="1"/>
        <pt x="314" y="82" on="0"/>
        <pt x="352" y="119" on="0"/>
        <pt x="376" y="174" on="0"/>
        <pt x="390" y="237" on="0"/>
        <pt x="395" y="264" on="1"/>
        <pt x="494" y="264" on="1"/>
        <pt x="486" y="202" on="0"/>
        <pt x="452" y="95" on="0"/>
        <pt x="398" y="17" on="0"/>
        <pt x="325" y="-27" on="0"/>
        <pt x="279" y="-27" on="1"/>
        <pt x="225" y="-27" on="0"/>
        <pt x="138" y="37" on="0"/>
        <pt x="76" y="163" on="0"/>
        <pt x="43" y="349" on="0"/>
        <pt x="43" y="471" on="1"/>
        <pt x="43" y="586" on="0"/>
        <pt x="76" y="772" on="0"/>
        <pt x="136" y="902" on="0"/>
        <pt x="219" y="973" on="0"/>
        <pt x="270" y="973" on="1"/>
        <pt x="376" y="973" on="0"/>
        <pt x="492" y="699" on="0"/>
        <pt x="492" y="438" on="1"/>
        <pt x="492" y="416" on="1"/>
        <pt x="172" y="416" on="1"/>
        <pt x="175" y="252" on="0"/>
        <pt x="225" y="82" on="0"/>
      </contour>
    </TTGlyph>
    <TTGlyph name="eacute" xMin="43" yMin="-27" xMax="494" yMax="1356">
      <component glyphName="e" x="0" y="0" flags="0x204"/>
      <component glyphName="acute" x="-36" y="0" flags="0x4"/>
    </TTGlyph>
    <TTGlyph name="ebreve" xMin="43" yMin="-27" xMax="494" yMax="1311">
      <component glyphName="e" x="0" y="0" flags="0x204"/>
      <component glyphName="breve" x="-36" y="0" flags="0x4"/>
    </TTGlyph>
    <TTGlyph name="ecaron" xMin="15" yMin="-27" xMax="527" yMax="1362">
      <component glyphName="e" x="0" y="0" flags="0x204"/>
      <component glyphName="caron" x="-36" y="0" flags="0x4"/>
    </TTGlyph>
    <TTGlyph name="ecircumflex" xMin="15" yMin="-27" xMax="527" yMax="1362">
      <component glyphName="e" x="0" y="0" flags="0x204"/>
      <component glyphName="circumflex" x="-36" y="0" flags="0x4"/>
    </TTGlyph>
    <TTGlyph name="edieresis" xMin="43" yMin="-27" xMax="494" yMax="1253">
      <component glyphName="e" x="0" y="0" flags="0x204"/>
      <component glyphName="dieresis" x="-36" y="0" flags="0x4"/>
    </TTGlyph>
    <TTGlyph name="edotaccent" xMin="43" yMin="-27" xMax="494" yMax="1264">
      <component glyphName="e" x="0" y="0" flags="0x204"/>
      <component glyphName="dotaccent" x="-34" y="0" flags="0x4"/>
    </TTGlyph>
    <TTGlyph name="egrave" xMin="43" yMin="-27" xMax="494" yMax="1356">
      <component glyphName="e" x="0" y="0" flags="0x204"/>
      <component glyphName="grave" x="-36" y="0" flags="0x4"/>
    </TTGlyph>
    <TTGlyph name="eight" xMin="49" yMin="-27" xMax="610" yMax="1399">
      <contour>
        <pt x="428" y="750" on="1"/>
        <pt x="519" y="716" on="0"/>
        <pt x="610" y="520" on="0"/>
        <pt x="610" y="375" on="1"/>
        <pt x="610" y="286" on="0"/>
        <pt x="572" y="138" on="0"/>
        <pt x="500" y="32" on="0"/>
        <pt x="396" y="-27" on="0"/>
        <pt x="330" y="-27" on="1"/>
        <pt x="264" y="-27" on="0"/>
        <pt x="160" y="32" on="0"/>
        <pt x="87" y="138" on="0"/>
        <pt x="49" y="286" on="0"/>
        <pt x="49" y="375" on="1"/>
        <pt x="49" y="447" on="0"/>
        <pt x="73" y="571" on="0"/>
        <pt x="119" y="668" on="0"/>
        <pt x="187" y="737" on="0"/>
        <pt x="231" y="754" on="1"/>
        <pt x="195" y="775" on="0"/>
        <pt x="142" y="842" on="0"/>
        <pt x="107" y="921" on="0"/>
        <pt x="90" y="1009" on="0"/>
        <pt x="90" y="1051" on="1"/>
        <pt x="90" y="1128" on="0"/>
        <pt x="124" y="1256" on="0"/>
        <pt x="187" y="1348" on="0"/>
        <pt x="275" y="1399" on="0"/>
        <pt x="328" y="1399" on="1"/>
        <pt x="381" y="1399" on="0"/>
        <pt x="469" y="1348" on="0"/>
        <pt x="533" y="1256" on="0"/>
        <pt x="569" y="1128" on="0"/>
        <pt x="569" y="1051" on="1"/>
        <pt x="569" y="1009" on="0"/>
        <pt x="552" y="920" on="0"/>
        <pt x="517" y="839" on="0"/>
        <pt x="464" y="771" on="0"/>
      </contour>
      <contour>
        <pt x="446" y="1044" on="1"/>
        <pt x="446" y="1093" on="0"/>
        <pt x="433" y="1183" on="0"/>
        <pt x="406" y="1252" on="0"/>
        <pt x="361" y="1292" on="0"/>
        <pt x="330" y="1292" on="1"/>
        <pt x="298" y="1292" on="0"/>
        <pt x="253" y="1252" on="0"/>
        <pt x="225" y="1183" on="0"/>
        <pt x="213" y="1093" on="0"/>
        <pt x="213" y="1044" on="1"/>
        <pt x="213" y="995" on="0"/>
        <pt x="227" y="905" on="0"/>
        <pt x="256" y="837" on="0"/>
        <pt x="300" y="797" on="0"/>
        <pt x="330" y="797" on="1"/>
        <pt x="360" y="797" on="0"/>
        <pt x="404" y="837" on="0"/>
        <pt x="432" y="905" on="0"/>
        <pt x="446" y="995" on="0"/>
      </contour>
      <contour>
        <pt x="330" y="696" on="1"/>
        <pt x="257" y="696" on="0"/>
        <pt x="176" y="534" on="0"/>
        <pt x="176" y="389" on="1"/>
        <pt x="176" y="245" on="0"/>
        <pt x="254" y="80" on="0"/>
        <pt x="330" y="80" on="1"/>
        <pt x="405" y="80" on="0"/>
        <pt x="483" y="245" on="0"/>
        <pt x="483" y="389" on="1"/>
        <pt x="483" y="461" on="0"/>
        <pt x="462" y="575" on="0"/>
        <pt x="422" y="654" on="0"/>
        <pt x="365" y="696" on="0"/>
      </contour>
    </TTGlyph>
    <TTGlyph name="ellipsis" xMin="49" yMin="-10" xMax="879" yMax="201">
      <contour>
        <pt x="49" y="94" on="1"/>
        <pt x="49" y="116" on="0"/>
        <pt x="65" y="156" on="0"/>
        <pt x="93" y="184" on="0"/>
        <pt x="131" y="201" on="0"/>
        <pt x="154" y="201" on="1"/>
        <pt x="176" y="201" on="0"/>
        <pt x="215" y="184" on="0"/>
        <pt x="243" y="156" on="0"/>
        <pt x="260" y="116" on="0"/>
        <pt x="260" y="94" on="1"/>
        <pt x="260" y="49" on="0"/>
        <pt x="199" y="-10" on="0"/>
        <pt x="154" y="-10" on="1"/>
        <pt x="131" y="-10" on="0"/>
        <pt x="93" y="6" on="0"/>
        <pt x="65" y="34" on="0"/>
        <pt x="49" y="72" on="0"/>
      </contour>
      <contour>
        <pt x="358" y="94" on="1"/>
        <pt x="358" y="116" on="0"/>
        <pt x="374" y="156" on="0"/>
        <pt x="402" y="184" on="0"/>
        <pt x="440" y="201" on="0"/>
        <pt x="463" y="201" on="1"/>
        <pt x="485" y="201" on="0"/>
        <pt x="524" y="184" on="0"/>
        <pt x="552" y="156" on="0"/>
        <pt x="569" y="116" on="0"/>
        <pt x="569" y="94" on="1"/>
        <pt x="569" y="49" on="0"/>
        <pt x="508" y="-10" on="0"/>
        <pt x="463" y="-10" on="1"/>
        <pt x="440" y="-10" on="0"/>
        <pt x="402" y="6" on="0"/>
        <pt x="374" y="34" on="0"/>
        <pt x="358" y="72" on="0"/>
      </contour>
      <contour>
        <pt x="668" y="94" on="1"/>
        <pt x="668" y="116" on="0"/>
        <pt x="684" y="156" on="0"/>
        <pt x="712" y="184" on="0"/>
        <pt x="750" y="201" on="0"/>
        <pt x="772" y="201" on="1"/>
        <pt x="794" y="201" on="0"/>
        <pt x="833" y="184" on="0"/>
        <pt x="862" y="156" on="0"/>
        <pt x="879" y="116" on="0"/>
        <pt x="879" y="94" on="1"/>
        <pt x="879" y="49" on="0"/>
        <pt x="817" y="-10" on="0"/>
        <pt x="772" y="-10" on="1"/>
        <pt x="727" y="-10" on="0"/>
        <pt x="668" y="49" on="0"/>
      </contour>
    </TTGlyph>
    <TTGlyph name="emacron" xMin="43" yMin="-27" xMax="494" yMax="1217">
      <component glyphName="e" x="0" y="0" flags="0x204"/>
      <component glyphName="macron" x="-36" y="0" flags="0x4"/>
    </TTGlyph>
    <TTGlyph name="emdash" xMin="0" yMin="430" xMax="1229" yMax="541">
      <contour>
        <pt x="0" y="430" on="1"/>
        <pt x="0" y="541" on="1"/>
        <pt x="1229" y="541" on="1"/>
        <pt x="1229" y="430" on="1"/>
      </contour>
    </TTGlyph>
    <TTGlyph name="endash" xMin="61" yMin="430" xMax="758" yMax="541">
      <contour>
        <pt x="61" y="430" on="1"/>
        <pt x="61" y="541" on="1"/>
        <pt x="758" y="541" on="1"/>
        <pt x="758" y="430" on="1"/>
      </contour>
    </TTGlyph>
    <TTGlyph name="eng" xMin="31" yMin="-393" xMax="541" yMax="979">
      <contour>
        <pt x="416" y="690" on="1"/>
        <pt x="416" y="745" on="0"/>
        <pt x="411" y="813" on="0"/>
        <pt x="400" y="852" on="0"/>
        <pt x="382" y="866" on="0"/>
        <pt x="369" y="866" on="1"/>
        <pt x="349" y="866" on="0"/>
        <pt x="308" y="827" on="0"/>
        <pt x="272" y="765" on="0"/>
        <pt x="244" y="688" on="0"/>
        <pt x="238" y="649" on="1"/>
        <pt x="238" y="113" on="1"/>
        <pt x="299" y="113" on="1"/>
        <pt x="299" y="0" on="1"/>
        <pt x="31" y="0" on="1"/>
        <pt x="31" y="113" on="1"/>
        <pt x="113" y="113" on="1"/>
        <pt x="113" y="840" on="1"/>
        <pt x="31" y="840" on="1"/>
        <pt x="31" y="952" on="1"/>
        <pt x="233" y="952" on="1"/>
        <pt x="233" y="846" on="1"/>
        <pt x="269" y="906" on="0"/>
        <pt x="352" y="979" on="0"/>
        <pt x="403" y="979" on="1"/>
        <pt x="477" y="979" on="0"/>
        <pt x="541" y="849" on="0"/>
        <pt x="541" y="729" on="1"/>
        <pt x="541" y="-88" on="1"/>
        <pt x="541" y="-175" on="0"/>
        <pt x="509" y="-292" on="0"/>
        <pt x="454" y="-363" on="0"/>
        <pt x="382" y="-393" on="0"/>
        <pt x="342" y="-393" on="1"/>
        <pt x="313" y="-393" on="0"/>
        <pt x="264" y="-379" on="0"/>
        <pt x="223" y="-359" on="0"/>
        <pt x="191" y="-336" on="0"/>
        <pt x="180" y="-326" on="1"/>
        <pt x="236" y="-229" on="1"/>
        <pt x="254" y="-246" on="0"/>
        <pt x="296" y="-274" on="0"/>
        <pt x="324" y="-274" on="1"/>
        <pt x="345" y="-274" on="0"/>
        <pt x="379" y="-256" on="0"/>
        <pt x="403" y="-213" on="0"/>
        <pt x="416" y="-143" on="0"/>
        <pt x="416" y="-92" on="1"/>
      </contour>
    </TTGlyph>
    <TTGlyph name="eogonek" xMin="43" yMin="-315" xMax="494" yMax="973">
      <contour>
        <pt x="285" y="82" on="1"/>
        <pt x="314" y="82" on="0"/>
        <pt x="352" y="119" on="0"/>
        <pt x="376" y="174" on="0"/>
        <pt x="390" y="237" on="0"/>
        <pt x="395" y="264" on="1"/>
        <pt x="494" y="264" on="1"/>
        <pt x="488" y="224" on="0"/>
        <pt x="473" y="157" on="0"/>
        <pt x="450" y="99" on="0"/>
        <pt x="419" y="47" on="0"/>
        <pt x="397" y="23" on="1"/>
        <pt x="366" y="-13" on="0"/>
        <pt x="330" y="-109" on="0"/>
        <pt x="330" y="-160" on="1"/>
        <pt x="330" y="-192" on="0"/>
        <pt x="360" y="-225" on="0"/>
        <pt x="385" y="-225" on="1"/>
        <pt x="404" y="-225" on="0"/>
        <pt x="432" y="-209" on="0"/>
        <pt x="444" y="-197" on="1"/>
        <pt x="477" y="-279" on="1"/>
        <pt x="451" y="-294" on="0"/>
        <pt x="389" y="-315" on="0"/>
        <pt x="354" y="-315" on="1"/>
        <pt x="289" y="-315" on="0"/>
        <pt x="221" y="-241" on="0"/>
        <pt x="221" y="-178" on="1"/>
        <pt x="221" y="-133" on="0"/>
        <pt x="257" y="-59" on="0"/>
        <pt x="279" y="-27" on="1"/>
        <pt x="223" y="-27" on="0"/>
        <pt x="136" y="39" on="0"/>
        <pt x="75" y="166" on="0"/>
        <pt x="43" y="351" on="0"/>
        <pt x="43" y="471" on="1"/>
        <pt x="43" y="586" on="0"/>
        <pt x="76" y="772" on="0"/>
        <pt x="136" y="902" on="0"/>
        <pt x="219" y="973" on="0"/>
        <pt x="270" y="973" on="1"/>
        <pt x="376" y="973" on="0"/>
        <pt x="492" y="699" on="0"/>
        <pt x="492" y="438" on="1"/>
        <pt x="492" y="416" on="1"/>
        <pt x="172" y="416" on="1"/>
        <pt x="175" y="252" on="0"/>
        <pt x="225" y="82" on="0"/>
      </contour>
      <contour>
        <pt x="362" y="520" on="1"/>
        <pt x="361" y="587" on="0"/>
        <pt x="350" y="711" on="0"/>
        <pt x="328" y="806" on="0"/>
        <pt x="293" y="862" on="0"/>
        <pt x="268" y="862" on="1"/>
        <pt x="245" y="862" on="0"/>
        <pt x="211" y="806" on="0"/>
        <pt x="187" y="711" on="0"/>
        <pt x="173" y="587" on="0"/>
        <pt x="172" y="520" on="1"/>
      </contour>
    </TTGlyph>
    <TTGlyph name="equal" xMin="113" yMin="459" xMax="823" yMax="909">
      <contour>
        <pt x="113" y="801" on="1"/>
        <pt x="113" y="909" on="1"/>
        <pt x="823" y="909" on="1"/>
        <pt x="823" y="801" on="1"/>
      </contour>
      <contour>
        <pt x="113" y="459" on="1"/>
        <pt x="113" y="569" on="1"/>
        <pt x="823" y="569" on="1"/>
        <pt x="823" y="459" on="1"/>
      </contour>
    </TTGlyph>
    <TTGlyph name="eth" xMin="43" yMin="-27" xMax="532" yMax="1407">
      <contour>
        <pt x="391" y="1223" on="1"/>
        <pt x="460" y="1098" on="0"/>
        <pt x="532" y="737" on="0"/>
        <pt x="532" y="496" on="1"/>
        <pt x="532" y="358" on="0"/>
        <pt x="495" y="160" on="0"/>
        <pt x="429" y="33" on="0"/>
        <pt x="340" y="-27" on="0"/>
        <pt x="289" y="-27" on="1"/>
        <pt x="237" y="-27" on="0"/>
        <pt x="147" y="27" on="0"/>
        <pt x="81" y="144" on="0"/>
        <pt x="43" y="328" on="0"/>
        <pt x="43" y="459" on="1"/>
        <pt x="43" y="589" on="0"/>
        <pt x="81" y="776" on="0"/>
        <pt x="148" y="896" on="0"/>
        <pt x="238" y="952" on="0"/>
        <pt x="289" y="952" on="1"/>
        <pt x="329" y="952" on="0"/>
        <pt x="367" y="934" on="1"/>
        <pt x="351" y="1000" on="0"/>
        <pt x="315" y="1113" on="0"/>
        <pt x="293" y="1159" on="1"/>
        <pt x="174" y="1083" on="1"/>
        <pt x="121" y="1169" on="1"/>
        <pt x="244" y="1247" on="1"/>
        <pt x="209" y="1298" on="0"/>
        <pt x="176" y="1329" on="1"/>
        <pt x="238" y="1407" on="1"/>
        <pt x="264" y="1385" on="0"/>
        <pt x="314" y="1338" on="0"/>
        <pt x="336" y="1309" on="1"/>
        <pt x="465" y="1391" on="1"/>
        <pt x="520" y="1307" on="1"/>
      </contour>
      <contour>
        <pt x="410" y="496" on="1"/>
        <pt x="410" y="573" on="0"/>
        <pt x="401" y="711" on="0"/>
        <pt x="393" y="774" on="1"/>
        <pt x="373" y="806" on="0"/>
        <pt x="312" y="846" on="0"/>
        <pt x="289" y="846" on="1"/>
        <pt x="227" y="846" on="0"/>
        <pt x="166" y="652" on="0"/>
        <pt x="166" y="459" on="1"/>
        <pt x="166" y="266" on="0"/>
        <pt x="227" y="80" on="0"/>
        <pt x="289" y="80" on="1"/>
        <pt x="410" y="80" on="0"/>
      </contour>
    </TTGlyph>
    <TTGlyph name="exclam" xMin="90" yMin="-10" xMax="301" yMax="1399">
      <contour>
        <pt x="238" y="328" on="1"/>
        <pt x="154" y="328" on="1"/>
        <pt x="125" y="1157" on="1"/>
        <pt x="125" y="1323" on="1"/>
        <pt x="125" y="1352" on="0"/>
        <pt x="156" y="1399" on="0"/>
        <pt x="195" y="1399" on="1"/>
        <pt x="233" y="1399" on="0"/>
        <pt x="266" y="1352" on="0"/>
        <pt x="266" y="1323" on="1"/>
        <pt x="266" y="1157" on="1"/>
      </contour>
      <contour>
        <pt x="90" y="94" on="1"/>
        <pt x="90" y="116" on="0"/>
        <pt x="106" y="156" on="0"/>
        <pt x="134" y="184" on="0"/>
        <pt x="172" y="201" on="0"/>
        <pt x="195" y="201" on="1"/>
        <pt x="217" y="201" on="0"/>
        <pt x="256" y="184" on="0"/>
        <pt x="284" y="156" on="0"/>
        <pt x="301" y="116" on="0"/>
        <pt x="301" y="94" on="1"/>
        <pt x="301" y="49" on="0"/>
        <pt x="240" y="-10" on="0"/>
        <pt x="195" y="-10" on="1"/>
        <pt x="172" y="-10" on="0"/>
        <pt x="134" y="6" on="0"/>
        <pt x="106" y="34" on="0"/>
        <pt x="90" y="72" on="0"/>
      </contour>
    </TTGlyph>
    <TTGlyph name="exclamdown" xMin="90" yMin="-358" xMax="301" yMax="1051">
      <contour>
        <pt x="154" y="713" on="1"/>
        <pt x="238" y="713" on="1"/>
        <pt x="266" y="-117" on="1"/>
        <pt x="266" y="-283" on="1"/>
        <pt x="266" y="-312" on="0"/>
        <pt x="235" y="-358" on="0"/>
        <pt x="197" y="-358" on="1"/>
        <pt x="158" y="-358" on="0"/>
        <pt x="125" y="-312" on="0"/>
        <pt x="125" y="-283" on="1"/>
        <pt x="125" y="-117" on="1"/>
      </contour>
      <contour>
        <pt x="301" y="946" on="1"/>
        <pt x="301" y="901" on="0"/>
        <pt x="242" y="840" on="0"/>
        <pt x="197" y="840" on="1"/>
        <pt x="174" y="840" on="0"/>
        <pt x="135" y="857" on="0"/>
        <pt x="107" y="885" on="0"/>
        <pt x="90" y="924" on="0"/>
        <pt x="90" y="946" on="1"/>
        <pt x="90" y="968" on="0"/>
        <pt x="107" y="1007" on="0"/>
        <pt x="135" y="1035" on="0"/>
        <pt x="174" y="1051" on="0"/>
        <pt x="197" y="1051" on="1"/>
        <pt x="219" y="1051" on="0"/>
        <pt x="257" y="1035" on="0"/>
        <pt x="285" y="1007" on="0"/>
        <pt x="301" y="968" on="0"/>
      </contour>
    </TTGlyph>
    <TTGlyph name="f" xMin="31" yMin="0" xMax="518" yMax="1395">
      <contour>
        <pt x="31" y="952" on="1"/>
        <pt x="113" y="952" on="1"/>
        <pt x="113" y="1061" on="1"/>
        <pt x="113" y="1223" on="0"/>
        <pt x="244" y="1395" on="0"/>
        <pt x="356" y="1395" on="1"/>
        <pt x="409" y="1395" on="0"/>
        <pt x="490" y="1359" on="0"/>
        <pt x="518" y="1339" on="1"/>
        <pt x="473" y="1241" on="1"/>
        <pt x="461" y="1251" on="0"/>
        <pt x="441" y="1268" on="0"/>
        <pt x="421" y="1280" on="0"/>
        <pt x="395" y="1286" on="0"/>
        <pt x="377" y="1286" on="1"/>
        <pt x="309" y="1286" on="0"/>
        <pt x="238" y="1174" on="0"/>
        <pt x="238" y="1065" on="1"/>
        <pt x="238" y="952" on="1"/>
        <pt x="408" y="952" on="1"/>
        <pt x="408" y="840" on="1"/>
        <pt x="238" y="840" on="1"/>
        <pt x="238" y="113" on="1"/>
        <pt x="360" y="113" on="1"/>
        <pt x="360" y="0" on="1"/>
        <pt x="31" y="0" on="1"/>
        <pt x="31" y="113" on="1"/>
        <pt x="113" y="113" on="1"/>
        <pt x="113" y="840" on="1"/>
        <pt x="31" y="840" on="1"/>
      </contour>
    </TTGlyph>
    <TTGlyph name="fi" xMin="31" yMin="0" xMax="700" yMax="1395">
      <contour>
        <pt x="238" y="113" on="1"/>
        <pt x="348" y="113" on="1"/>
        <pt x="348" y="0" on="1"/>
        <pt x="31" y="0" on="1"/>
        <pt x="31" y="113" on="1"/>
        <pt x="113" y="113" on="1"/>
        <pt x="113" y="840" on="1"/>
        <pt x="31" y="840" on="1"/>
        <pt x="31" y="952" on="1"/>
        <pt x="113" y="952" on="1"/>
        <pt x="113" y="1061" on="1"/>
        <pt x="113" y="1142" on="0"/>
        <pt x="155" y="1266" on="0"/>
        <pt x="227" y="1351" on="0"/>
        <pt x="325" y="1395" on="0"/>
        <pt x="381" y="1395" on="1"/>
        <pt x="415" y="1395" on="0"/>
        <pt x="470" y="1379" on="0"/>
        <pt x="514" y="1356" on="0"/>
        <pt x="547" y="1330" on="0"/>
        <pt x="559" y="1319" on="1"/>
        <pt x="514" y="1221" on="1"/>
        <pt x="494" y="1244" on="0"/>
        <pt x="434" y="1286" on="0"/>
        <pt x="397" y="1286" on="1"/>
        <pt x="363" y="1286" on="0"/>
        <pt x="305" y="1258" on="0"/>
        <pt x="262" y="1202" on="0"/>
        <pt x="238" y="1119" on="0"/>
        <pt x="238" y="1065" on="1"/>
        <pt x="238" y="952" on="1"/>
        <pt x="600" y="952" on="1"/>
        <pt x="600" y="113" on="1"/>
        <pt x="700" y="113" on="1"/>
        <pt x="700" y="0" on="1"/>
        <pt x="393" y="0" on="1"/>
        <pt x="393" y="113" on="1"/>
        <pt x="475" y="113" on="1"/>
        <pt x="475" y="840" on="1"/>
        <pt x="238" y="840" on="1"/>
      </contour>
    </TTGlyph>
    <TTGlyph name="five" xMin="41" yMin="-29" xMax="569" yMax="1374">
      <contour>
        <pt x="182" y="834" on="1"/>
        <pt x="214" y="871" on="0"/>
        <pt x="285" y="895" on="0"/>
        <pt x="324" y="895" on="1"/>
        <pt x="381" y="895" on="0"/>
        <pt x="472" y="825" on="0"/>
        <pt x="535" y="700" on="0"/>
        <pt x="569" y="528" on="0"/>
        <pt x="569" y="426" on="1"/>
        <pt x="569" y="332" on="0"/>
        <pt x="539" y="167" on="0"/>
        <pt x="476" y="44" on="0"/>
        <pt x="376" y="-27" on="0"/>
        <pt x="307" y="-27" on="1"/>
        <pt x="256" y="-29" on="0"/>
        <pt x="161" y="21" on="0"/>
        <pt x="86" y="130" on="0"/>
        <pt x="41" y="304" on="0"/>
        <pt x="41" y="426" on="1"/>
        <pt x="166" y="426" on="1"/>
        <pt x="166" y="251" on="0"/>
        <pt x="247" y="80" on="0"/>
        <pt x="307" y="80" on="1"/>
        <pt x="341" y="80" on="0"/>
        <pt x="391" y="131" on="0"/>
        <pt x="425" y="223" on="0"/>
        <pt x="442" y="350" on="0"/>
        <pt x="442" y="426" on="1"/>
        <pt x="442" y="602" on="0"/>
        <pt x="372" y="788" on="0"/>
        <pt x="295" y="788" on="1"/>
        <pt x="250" y="788" on="0"/>
        <pt x="185" y="729" on="0"/>
        <pt x="168" y="670" on="1"/>
        <pt x="66" y="670" on="1"/>
        <pt x="90" y="1374" on="1"/>
        <pt x="524" y="1374" on="1"/>
        <pt x="524" y="1260" on="1"/>
        <pt x="199" y="1260" on="1"/>
      </contour>
    </TTGlyph>
    <TTGlyph name="fl" xMin="31" yMin="0" xMax="725" yMax="1395">
      <contour>
        <pt x="31" y="952" on="1"/>
        <pt x="113" y="952" on="1"/>
        <pt x="113" y="1061" on="1"/>
        <pt x="113" y="1142" on="0"/>
        <pt x="153" y="1266" on="0"/>
        <pt x="224" y="1351" on="0"/>
        <pt x="321" y="1395" on="0"/>
        <pt x="377" y="1395" on="1"/>
        <pt x="405" y="1395" on="0"/>
        <pt x="456" y="1383" on="0"/>
        <pt x="477" y="1374" on="1"/>
        <pt x="600" y="1374" on="1"/>
        <pt x="600" y="221" on="1"/>
        <pt x="600" y="183" on="0"/>
        <pt x="612" y="140" on="0"/>
        <pt x="636" y="119" on="0"/>
        <pt x="673" y="113" on="0"/>
        <pt x="698" y="113" on="1"/>
        <pt x="725" y="113" on="1"/>
        <pt x="725" y="0" on="1"/>
        <pt x="700" y="0" on="1"/>
        <pt x="643" y="0" on="0"/>
        <pt x="559" y="20" on="0"/>
        <pt x="503" y="73" on="0"/>
        <pt x="475" y="163" on="0"/>
        <pt x="475" y="233" on="1"/>
        <pt x="475" y="1257" on="1"/>
        <pt x="460" y="1268" on="0"/>
        <pt x="422" y="1286" on="0"/>
        <pt x="397" y="1286" on="1"/>
        <pt x="363" y="1286" on="0"/>
        <pt x="305" y="1258" on="0"/>
        <pt x="262" y="1202" on="0"/>
        <pt x="238" y="1119" on="0"/>
        <pt x="238" y="1065" on="1"/>
        <pt x="238" y="952" on="1"/>
        <pt x="387" y="952" on="1"/>
        <pt x="387" y="840" on="1"/>
        <pt x="238" y="840" on="1"/>
        <pt x="238" y="113" on="1"/>
        <pt x="360" y="113" on="1"/>
        <pt x="360" y="0" on="1"/>
        <pt x="31" y="0" on="1"/>
        <pt x="31" y="113" on="1"/>
        <pt x="113" y="113" on="1"/>
        <pt x="113" y="840" on="1"/>
        <pt x="31" y="840" on="1"/>
      </contour>
    </TTGlyph>
    <TTGlyph name="florin" xMin="0" yMin="-70" xMax="702" yMax="1395">
      <contour>
        <pt x="307" y="831" on="1"/>
        <pt x="197" y="831" on="1"/>
        <pt x="197" y="938" on="1"/>
        <pt x="317" y="938" on="1"/>
        <pt x="330" y="1061" on="1"/>
        <pt x="344" y="1223" on="0"/>
        <pt x="463" y="1395" on="0"/>
        <pt x="569" y="1395" on="1"/>
        <pt x="614" y="1395" on="0"/>
        <pt x="681" y="1359" on="0"/>
        <pt x="702" y="1339" on="1"/>
        <pt x="647" y="1241" on="1"/>
        <pt x="630" y="1261" on="0"/>
        <pt x="595" y="1286" on="0"/>
        <pt x="573" y="1286" on="1"/>
        <pt x="522" y="1286" on="0"/>
        <pt x="463" y="1174" on="0"/>
        <pt x="455" y="1065" on="1"/>
        <pt x="442" y="938" on="1"/>
        <pt x="565" y="938" on="1"/>
        <pt x="565" y="831" on="1"/>
        <pt x="432" y="831" on="1"/>
        <pt x="371" y="264" on="1"/>
        <pt x="357" y="102" on="0"/>
        <pt x="236" y="-70" on="0"/>
        <pt x="131" y="-70" on="1"/>
        <pt x="86" y="-70" on="0"/>
        <pt x="22" y="-34" on="0"/>
        <pt x="0" y="-14" on="1"/>
        <pt x="55" y="84" on="1"/>
        <pt x="72" y="64" on="0"/>
        <pt x="102" y="39" on="0"/>
        <pt x="133" y="39" on="1"/>
        <pt x="181" y="39" on="0"/>
        <pt x="236" y="152" on="0"/>
        <pt x="246" y="264" on="1"/>
      </contour>
    </TTGlyph>
    <TTGlyph name="four" xMin="25" yMin="0" xMax="625" yMax="1374">
      <contour>
        <pt x="240" y="113" on="1"/>
        <pt x="362" y="113" on="1"/>
        <pt x="362" y="358" on="1"/>
        <pt x="25" y="358" on="1"/>
        <pt x="25" y="463" on="1"/>
        <pt x="324" y="1374" on="1"/>
        <pt x="483" y="1374" on="1"/>
        <pt x="483" y="465" on="1"/>
        <pt x="625" y="465" on="1"/>
        <pt x="625" y="358" on="1"/>
        <pt x="483" y="358" on="1"/>
        <pt x="483" y="113" on="1"/>
        <pt x="606" y="113" on="1"/>
        <pt x="606" y="0" on="1"/>
        <pt x="240" y="0" on="1"/>
      </contour>
      <contour>
        <pt x="362" y="1178" on="1"/>
        <pt x="131" y="465" on="1"/>
        <pt x="362" y="465" on="1"/>
      </contour>
    </TTGlyph>
    <TTGlyph name="fraction" xMin="-186" yMin="0" xMax="375" yMax="1374">
      <contour>
        <pt x="-90" y="0" on="1"/>
        <pt x="-186" y="0" on="1"/>
        <pt x="279" y="1374" on="1"/>
        <pt x="375" y="1374" on="1"/>
      </contour>
    </TTGlyph>
    <TTGlyph name="g" xMin="43" yMin="-414" xMax="584" yMax="979">
      <contour>
        <pt x="502" y="10" on="1"/>
        <pt x="502" y="-80" on="0"/>
        <pt x="478" y="-235" on="0"/>
        <pt x="421" y="-349" on="0"/>
        <pt x="323" y="-414" on="0"/>
        <pt x="250" y="-414" on="1"/>
        <pt x="216" y="-414" on="0"/>
        <pt x="160" y="-398" on="0"/>
        <pt x="114" y="-373" on="0"/>
        <pt x="76" y="-343" on="0"/>
        <pt x="61" y="-328" on="1"/>
        <pt x="121" y="-233" on="1"/>
        <pt x="131" y="-243" on="0"/>
        <pt x="156" y="-268" on="0"/>
        <pt x="187" y="-289" on="0"/>
        <pt x="223" y="-303" on="0"/>
        <pt x="244" y="-303" on="1"/>
        <pt x="285" y="-303" on="0"/>
        <pt x="337" y="-261" on="0"/>
        <pt x="366" y="-181" on="0"/>
        <pt x="377" y="-66" on="0"/>
        <pt x="377" y="8" on="1"/>
        <pt x="377" y="66" on="1"/>
        <pt x="354" y="24" on="0"/>
        <pt x="299" y="-27" on="0"/>
        <pt x="252" y="-27" on="1"/>
        <pt x="210" y="-27" on="0"/>
        <pt x="135" y="21" on="0"/>
        <pt x="77" y="138" on="0"/>
        <pt x="43" y="335" on="0"/>
        <pt x="43" y="483" on="1"/>
        <pt x="43" y="609" on="0"/>
        <pt x="73" y="795" on="0"/>
        <pt x="127" y="918" on="0"/>
        <pt x="203" y="979" on="0"/>
        <pt x="248" y="979" on="1"/>
        <pt x="288" y="979" on="0"/>
        <pt x="354" y="923" on="0"/>
        <pt x="377" y="881" on="1"/>
        <pt x="377" y="952" on="1"/>
        <pt x="584" y="952" on="1"/>
        <pt x="584" y="840" on="1"/>
        <pt x="502" y="840" on="1"/>
      </contour>
      <contour>
        <pt x="272" y="80" on="1"/>
        <pt x="306" y="80" on="0"/>
        <pt x="360" y="157" on="0"/>
        <pt x="377" y="223" on="1"/>
        <pt x="377" y="688" on="1"/>
        <pt x="369" y="723" on="0"/>
        <pt x="348" y="790" on="0"/>
        <pt x="322" y="841" on="0"/>
        <pt x="292" y="872" on="0"/>
        <pt x="276" y="872" on="1"/>
        <pt x="227" y="872" on="0"/>
        <pt x="166" y="669" on="0"/>
        <pt x="166" y="483" on="1"/>
        <pt x="166" y="288" on="0"/>
        <pt x="220" y="80" on="0"/>
      </contour>
    </TTGlyph>
    <TTGlyph name="gbreve" xMin="43" yMin="-414" xMax="584" yMax="1311">
      <component glyphName="g" x="0" y="0" flags="0x204"/>
      <component glyphName="breve" x="0" y="0" flags="0x4"/>
    </TTGlyph>
    <TTGlyph name="gcircumflex" xMin="43" yMin="-414" xMax="584" yMax="1362">
      <component glyphName="g" x="0" y="0" flags="0x204"/>
      <component glyphName="circumflex" x="0" y="0" flags="0x4"/>
    </TTGlyph>
    <TTGlyph name="gcommaaccent" xMin="43" yMin="-414" xMax="584" yMax="1354">
      <contour>
        <pt x="502" y="10" on="1"/>
        <pt x="502" y="-80" on="0"/>
        <pt x="478" y="-235" on="0"/>
        <pt x="421" y="-349" on="0"/>
        <pt x="323" y="-414" on="0"/>
        <pt x="250" y="-414" on="1"/>
        <pt x="216" y="-414" on="0"/>
        <pt x="160" y="-398" on="0"/>
        <pt x="114" y="-373" on="0"/>
        <pt x="76" y="-343" on="0"/>
        <pt x="61" y="-328" on="1"/>
        <pt x="121" y="-233" on="1"/>
        <pt x="131" y="-243" on="0"/>
        <pt x="156" y="-268" on="0"/>
        <pt x="187" y="-289" on="0"/>
        <pt x="223" y="-303" on="0"/>
        <pt x="244" y="-303" on="1"/>
        <pt x="285" y="-303" on="0"/>
        <pt x="337" y="-261" on="0"/>
        <pt x="366" y="-181" on="0"/>
        <pt x="377" y="-66" on="0"/>
        <pt x="377" y="8" on="1"/>
        <pt x="377" y="66" on="1"/>
        <pt x="354" y="24" on="0"/>
        <pt x="299" y="-27" on="0"/>
        <pt x="252" y="-27" on="1"/>
        <pt x="210" y="-27" on="0"/>
        <pt x="135" y="21" on="0"/>
        <pt x="77" y="138" on="0"/>
        <pt x="43" y="335" on="0"/>
        <pt x="43" y="483" on="1"/>
        <pt x="43" y="609" on="0"/>
        <pt x="73" y="795" on="0"/>
        <pt x="127" y="918" on="0"/>
        <pt x="203" y="979" on="0"/>
        <pt x="248" y="979" on="1"/>
        <pt x="288" y="979" on="0"/>
        <pt x="354" y="923" on="0"/>
        <pt x="377" y="881" on="1"/>
        <pt x="377" y="952" on="1"/>
        <pt x="584" y="952" on="1"/>
        <pt x="584" y="840" on="1"/>
        <pt x="502" y="840" on="1"/>
      </contour>
      <contour>
        <pt x="272" y="80" on="1"/>
        <pt x="306" y="80" on="0"/>
        <pt x="360" y="157" on="0"/>
        <pt x="377" y="223" on="1"/>
        <pt x="377" y="688" on="1"/>
        <pt x="369" y="723" on="0"/>
        <pt x="348" y="790" on="0"/>
        <pt x="322" y="841" on="0"/>
        <pt x="292" y="872" on="0"/>
        <pt x="276" y="872" on="1"/>
        <pt x="227" y="872" on="0"/>
        <pt x="166" y="669" on="0"/>
        <pt x="166" y="483" on="1"/>
        <pt x="166" y="288" on="0"/>
        <pt x="220" y="80" on="0"/>
      </contour>
      <contour>
        <pt x="367" y="1161" on="1"/>
        <pt x="367" y="1129" on="0"/>
        <pt x="321" y="1087" on="0"/>
        <pt x="289" y="1087" on="1"/>
        <pt x="252" y="1087" on="0"/>
        <pt x="205" y="1137" on="0"/>
        <pt x="205" y="1176" on="1"/>
        <pt x="205" y="1234" on="0"/>
        <pt x="251" y="1317" on="0"/>
        <pt x="293" y="1354" on="1"/>
        <pt x="338" y="1323" on="1"/>
        <pt x="326" y="1311" on="0"/>
        <pt x="310" y="1293" on="0"/>
        <pt x="298" y="1275" on="0"/>
        <pt x="289" y="1253" on="0"/>
        <pt x="285" y="1235" on="1"/>
        <pt x="308" y="1235" on="0"/>
        <pt x="339" y="1222" on="0"/>
        <pt x="359" y="1201" on="0"/>
        <pt x="367" y="1175" on="0"/>
      </contour>
    </TTGlyph>
    <TTGlyph name="gdotaccent" xMin="43" yMin="-414" xMax="584" yMax="1264">
      <component glyphName="g" x="0" y="0" flags="0x204"/>
      <component glyphName="dotaccent" x="2" y="0" flags="0x4"/>
    </TTGlyph>
    <TTGlyph name="germandbls" xMin="31" yMin="-27" xMax="580" yMax="1395">
      <contour>
        <pt x="113" y="1069" on="1"/>
        <pt x="113" y="1233" on="0"/>
        <pt x="225" y="1395" on="0"/>
        <pt x="332" y="1395" on="1"/>
        <pt x="368" y="1395" on="0"/>
        <pt x="441" y="1360" on="0"/>
        <pt x="500" y="1287" on="0"/>
        <pt x="537" y="1173" on="0"/>
        <pt x="537" y="1094" on="1"/>
        <pt x="537" y="1043" on="0"/>
        <pt x="523" y="950" on="0"/>
        <pt x="490" y="873" on="0"/>
        <pt x="436" y="814" on="0"/>
        <pt x="395" y="797" on="1"/>
        <pt x="483" y="777" on="0"/>
        <pt x="580" y="574" on="0"/>
        <pt x="580" y="397" on="1"/>
        <pt x="580" y="285" on="0"/>
        <pt x="550" y="124" on="0"/>
        <pt x="498" y="21" on="0"/>
        <pt x="428" y="-27" on="0"/>
        <pt x="387" y="-27" on="1"/>
        <pt x="352" y="-27" on="0"/>
        <pt x="293" y="-5" on="0"/>
        <pt x="262" y="12" on="1"/>
        <pt x="303" y="109" on="1"/>
        <pt x="314" y="101" on="0"/>
        <pt x="346" y="80" on="0"/>
        <pt x="369" y="80" on="1"/>
        <pt x="390" y="80" on="0"/>
        <pt x="422" y="116" on="0"/>
        <pt x="444" y="192" on="0"/>
        <pt x="455" y="313" on="0"/>
        <pt x="455" y="397" on="1"/>
        <pt x="455" y="466" on="0"/>
        <pt x="440" y="585" on="0"/>
        <pt x="402" y="673" on="0"/>
        <pt x="336" y="725" on="0"/>
        <pt x="285" y="727" on="1"/>
        <pt x="285" y="834" on="1"/>
        <pt x="324" y="834" on="0"/>
        <pt x="374" y="870" on="0"/>
        <pt x="403" y="938" on="0"/>
        <pt x="414" y="1034" on="0"/>
        <pt x="414" y="1094" on="1"/>
        <pt x="414" y="1135" on="0"/>
        <pt x="404" y="1206" on="0"/>
        <pt x="383" y="1257" on="0"/>
        <pt x="351" y="1286" on="0"/>
        <pt x="328" y="1286" on="1"/>
        <pt x="283" y="1286" on="0"/>
        <pt x="238" y="1187" on="0"/>
        <pt x="238" y="1067" on="1"/>
        <pt x="238" y="0" on="1"/>
        <pt x="31" y="0" on="1"/>
        <pt x="31" y="113" on="1"/>
        <pt x="113" y="113" on="1"/>
      </contour>
    </TTGlyph>
    <TTGlyph name="grave" xMin="98" yMin="1081" xMax="432" yMax="1356">
      <contour>
        <pt x="164" y="1356" on="1"/>
        <pt x="432" y="1147" on="1"/>
        <pt x="389" y="1081" on="1"/>
        <pt x="98" y="1257" on="1"/>
      </contour>
    </TTGlyph>
    <TTGlyph name="greater" xMin="123" yMin="322" xMax="823" yMax="1047">
      <contour>
        <pt x="123" y="1047" on="1"/>
        <pt x="823" y="731" on="1"/>
        <pt x="823" y="637" on="1"/>
        <pt x="123" y="322" on="1"/>
        <pt x="123" y="434" on="1"/>
        <pt x="678" y="684" on="1"/>
        <pt x="123" y="932" on="1"/>
      </contour>
    </TTGlyph>
    <TTGlyph name="greaterequal" xMin="133" yMin="98" xMax="803" yMax="1047">
      <contour>
        <pt x="133" y="98" on="1"/>
        <pt x="133" y="207" on="1"/>
        <pt x="803" y="207" on="1"/>
        <pt x="803" y="98" on="1"/>
      </contour>
      <contour>
        <pt x="133" y="436" on="1"/>
        <pt x="657" y="684" on="1"/>
        <pt x="133" y="934" on="1"/>
        <pt x="133" y="1047" on="1"/>
        <pt x="803" y="731" on="1"/>
        <pt x="803" y="637" on="1"/>
        <pt x="133" y="322" on="1"/>
      </contour>
    </TTGlyph>
    <TTGlyph name="guillemotleft" xMin="31" yMin="115" xMax="571" yMax="864">
      <contour>
        <pt x="31" y="444" on="1"/>
        <pt x="31" y="535" on="1"/>
        <pt x="240" y="864" on="1"/>
        <pt x="326" y="805" on="1"/>
        <pt x="125" y="489" on="1"/>
        <pt x="326" y="174" on="1"/>
        <pt x="240" y="115" on="1"/>
      </contour>
      <contour>
        <pt x="276" y="444" on="1"/>
        <pt x="276" y="535" on="1"/>
        <pt x="485" y="864" on="1"/>
        <pt x="571" y="805" on="1"/>
        <pt x="371" y="489" on="1"/>
        <pt x="571" y="174" on="1"/>
        <pt x="485" y="115" on="1"/>
      </contour>
    </TTGlyph>
    <TTGlyph name="guillemotright" xMin="31" yMin="115" xMax="571" yMax="864">
      <contour>
        <pt x="571" y="535" on="1"/>
        <pt x="571" y="444" on="1"/>
        <pt x="362" y="115" on="1"/>
        <pt x="276" y="174" on="1"/>
        <pt x="477" y="489" on="1"/>
        <pt x="276" y="805" on="1"/>
        <pt x="362" y="864" on="1"/>
      </contour>
      <contour>
        <pt x="326" y="535" on="1"/>
        <pt x="326" y="444" on="1"/>
        <pt x="117" y="115" on="1"/>
        <pt x="31" y="174" on="1"/>
        <pt x="231" y="489" on="1"/>
        <pt x="31" y="805" on="1"/>
        <pt x="117" y="864" on="1"/>
      </contour>
    </TTGlyph>
    <TTGlyph name="guilsinglleft" xMin="31" yMin="115" xMax="326" yMax="864">
      <contour>
        <pt x="31" y="444" on="1"/>
        <pt x="31" y="535" on="1"/>
        <pt x="240" y="864" on="1"/>
        <pt x="326" y="805" on="1"/>
        <pt x="125" y="489" on="1"/>
        <pt x="326" y="174" on="1"/>
        <pt x="240" y="115" on="1"/>
      </contour>
    </TTGlyph>
    <TTGlyph name="guilsinglright" xMin="31" yMin="115" xMax="326" yMax="864">
      <contour>
        <pt x="326" y="535" on="1"/>
        <pt x="326" y="444" on="1"/>
        <pt x="117" y="115" on="1"/>
        <pt x="31" y="174" on="1"/>
        <pt x="231" y="489" on="1"/>
        <pt x="31" y="805" on="1"/>
        <pt x="117" y="864" on="1"/>
      </contour>
    </TTGlyph>
    <TTGlyph name="h" xMin="25" yMin="0" xMax="616" yMax="1374">
      <contour>
        <pt x="25" y="1374" on="1"/>
        <pt x="231" y="1374" on="1"/>
        <pt x="231" y="850" on="1"/>
        <pt x="267" y="910" on="0"/>
        <pt x="346" y="979" on="0"/>
        <pt x="397" y="979" on="1"/>
        <pt x="471" y="979" on="0"/>
        <pt x="535" y="849" on="0"/>
        <pt x="535" y="729" on="1"/>
        <pt x="535" y="113" on="1"/>
        <pt x="616" y="113" on="1"/>
        <pt x="616" y="0" on="1"/>
        <pt x="348" y="0" on="1"/>
        <pt x="348" y="113" on="1"/>
        <pt x="410" y="113" on="1"/>
        <pt x="410" y="690" on="1"/>
        <pt x="410" y="745" on="0"/>
        <pt x="405" y="813" on="0"/>
        <pt x="393" y="852" on="0"/>
        <pt x="375" y="866" on="0"/>
        <pt x="362" y="866" on="1"/>
        <pt x="343" y="866" on="0"/>
        <pt x="302" y="827" on="0"/>
        <pt x="266" y="765" on="0"/>
        <pt x="237" y="688" on="0"/>
        <pt x="231" y="649" on="1"/>
        <pt x="231" y="113" on="1"/>
        <pt x="293" y="113" on="1"/>
        <pt x="293" y="0" on="1"/>
        <pt x="25" y="0" on="1"/>
        <pt x="25" y="113" on="1"/>
        <pt x="106" y="113" on="1"/>
        <pt x="106" y="1262" on="1"/>
        <pt x="25" y="1262" on="1"/>
      </contour>
    </TTGlyph>
    <TTGlyph name="hbar" xMin="25" yMin="0" xMax="616" yMax="1374">
      <contour>
        <pt x="231" y="1075" on="1"/>
        <pt x="231" y="850" on="1"/>
        <pt x="267" y="910" on="0"/>
        <pt x="346" y="979" on="0"/>
        <pt x="397" y="979" on="1"/>
        <pt x="471" y="979" on="0"/>
        <pt x="535" y="849" on="0"/>
        <pt x="535" y="729" on="1"/>
        <pt x="535" y="113" on="1"/>
        <pt x="616" y="113" on="1"/>
        <pt x="616" y="0" on="1"/>
        <pt x="348" y="0" on="1"/>
        <pt x="348" y="113" on="1"/>
        <pt x="410" y="113" on="1"/>
        <pt x="410" y="690" on="1"/>
        <pt x="410" y="745" on="0"/>
        <pt x="405" y="813" on="0"/>
        <pt x="393" y="852" on="0"/>
        <pt x="375" y="866" on="0"/>
        <pt x="362" y="866" on="1"/>
        <pt x="343" y="866" on="0"/>
        <pt x="302" y="827" on="0"/>
        <pt x="266" y="765" on="0"/>
        <pt x="237" y="688" on="0"/>
        <pt x="231" y="649" on="1"/>
        <pt x="231" y="113" on="1"/>
        <pt x="293" y="113" on="1"/>
        <pt x="293" y="0" on="1"/>
        <pt x="25" y="0" on="1"/>
        <pt x="25" y="113" on="1"/>
        <pt x="106" y="113" on="1"/>
        <pt x="106" y="1075" on="1"/>
        <pt x="25" y="1075" on="1"/>
        <pt x="25" y="1180" on="1"/>
        <pt x="106" y="1180" on="1"/>
        <pt x="106" y="1262" on="1"/>
        <pt x="25" y="1262" on="1"/>
        <pt x="25" y="1374" on="1"/>
        <pt x="231" y="1374" on="1"/>
        <pt x="231" y="1180" on="1"/>
        <pt x="369" y="1180" on="1"/>
        <pt x="369" y="1075" on="1"/>
      </contour>
    </TTGlyph>
    <TTGlyph name="hcircumflex" xMin="-122" yMin="0" xMax="616" yMax="1757">
      <component glyphName="h" x="0" y="0" flags="0x204"/>
      <component glyphName="circumflex" x="-173" y="395" flags="0x4"/>
    </TTGlyph>
    <TTGlyph name="hungarumlaut" xMin="51" yMin="1081" xMax="555" yMax="1356">
      <contour>
        <pt x="330" y="1270" on="1"/>
        <pt x="98" y="1081" on="1"/>
        <pt x="51" y="1141" on="1"/>
        <pt x="258" y="1356" on="1"/>
      </contour>
      <contour>
        <pt x="555" y="1270" on="1"/>
        <pt x="324" y="1081" on="1"/>
        <pt x="276" y="1141" on="1"/>
        <pt x="483" y="1356" on="1"/>
      </contour>
    </TTGlyph>
    <TTGlyph name="hyphen" xMin="66" yMin="424" xMax="397" yMax="547">
      <contour>
        <pt x="66" y="424" on="1"/>
        <pt x="66" y="547" on="1"/>
        <pt x="397" y="547" on="1"/>
        <pt x="397" y="424" on="1"/>
      </contour>
    </TTGlyph>
    <TTGlyph name="i" xMin="31" yMin="0" xMax="338" yMax="1317">
      <contour>
        <pt x="31" y="952" on="1"/>
        <pt x="238" y="952" on="1"/>
        <pt x="238" y="113" on="1"/>
        <pt x="338" y="113" on="1"/>
        <pt x="338" y="0" on="1"/>
        <pt x="31" y="0" on="1"/>
        <pt x="31" y="113" on="1"/>
        <pt x="113" y="113" on="1"/>
        <pt x="113" y="840" on="1"/>
        <pt x="31" y="840" on="1"/>
      </contour>
      <contour>
        <pt x="66" y="1221" on="1"/>
        <pt x="66" y="1261" on="0"/>
        <pt x="119" y="1317" on="0"/>
        <pt x="160" y="1317" on="1"/>
        <pt x="200" y="1317" on="0"/>
        <pt x="256" y="1261" on="0"/>
        <pt x="256" y="1221" on="1"/>
        <pt x="256" y="1180" on="0"/>
        <pt x="200" y="1126" on="0"/>
        <pt x="160" y="1126" on="1"/>
        <pt x="119" y="1126" on="0"/>
        <pt x="66" y="1180" on="0"/>
      </contour>
    </TTGlyph>
    <TTGlyph name="iacute" xMin="23" yMin="0" xMax="357" yMax="1356">
      <component glyphName="dotlessi" x="0" y="0" flags="0x204"/>
      <component glyphName="acute" x="-159" y="0" flags="0x4"/>
    </TTGlyph>
    <TTGlyph name="ibreve" xMin="-73" yMin="0" xMax="371" yMax="1311">
      <component glyphName="dotlessi" x="0" y="0" flags="0x204"/>
      <component glyphName="breve" x="-159" y="0" flags="0x4"/>
    </TTGlyph>
    <TTGlyph name="icircumflex" xMin="-108" yMin="0" xMax="404" yMax="1362">
      <component glyphName="dotlessi" x="0" y="0" flags="0x204"/>
      <component glyphName="circumflex" x="-159" y="0" flags="0x4"/>
    </TTGlyph>
    <TTGlyph name="idieresis" xMin="-61" yMin="0" xMax="357" yMax="1253">
      <component glyphName="dotlessi" x="0" y="0" flags="0x204"/>
      <component glyphName="dieresis" x="-159" y="0" flags="0x4"/>
    </TTGlyph>
    <TTGlyph name="igrave" xMin="-61" yMin="0" xMax="338" yMax="1356">
      <component glyphName="dotlessi" x="0" y="0" flags="0x204"/>
      <component glyphName="grave" x="-159" y="0" flags="0x4"/>
    </TTGlyph>
    <TTGlyph name="ij" xMin="31" yMin="-414" xMax="588" yMax="1317">
      <component glyphName="i" x="0" y="0" flags="0x4"/>
      <component glyphName="j" x="350" y="0" flags="0x4"/>
    </TTGlyph>
    <TTGlyph name="imacron" xMin="-44" yMin="0" xMax="341" yMax="1217">
      <component glyphName="dotlessi" x="0" y="0" flags="0x204"/>
      <component glyphName="macron" x="-159" y="0" flags="0x4"/>
    </TTGlyph>
    <TTGlyph name="iogonek" xMin="31" yMin="-356" xMax="338" yMax="1317">
      <contour>
        <pt x="31" y="952" on="1"/>
        <pt x="238" y="952" on="1"/>
        <pt x="238" y="113" on="1"/>
        <pt x="338" y="113" on="1"/>
        <pt x="338" y="0" on="1"/>
        <pt x="240" y="0" on="1"/>
        <pt x="205" y="-43" on="0"/>
        <pt x="156" y="-139" on="0"/>
        <pt x="156" y="-201" on="1"/>
        <pt x="156" y="-233" on="0"/>
        <pt x="186" y="-266" on="0"/>
        <pt x="211" y="-266" on="1"/>
        <pt x="230" y="-266" on="0"/>
        <pt x="258" y="-250" on="0"/>
        <pt x="270" y="-238" on="1"/>
        <pt x="303" y="-319" on="1"/>
        <pt x="277" y="-335" on="0"/>
        <pt x="215" y="-356" on="0"/>
        <pt x="180" y="-356" on="1"/>
        <pt x="115" y="-356" on="0"/>
        <pt x="47" y="-285" on="0"/>
        <pt x="47" y="-219" on="1"/>
        <pt x="47" y="-192" on="0"/>
        <pt x="62" y="-135" on="0"/>
        <pt x="87" y="-78" on="0"/>
        <pt x="122" y="-24" on="0"/>
        <pt x="143" y="0" on="1"/>
        <pt x="31" y="0" on="1"/>
        <pt x="31" y="113" on="1"/>
        <pt x="113" y="113" on="1"/>
        <pt x="113" y="840" on="1"/>
        <pt x="31" y="840" on="1"/>
      </contour>
      <contour>
        <pt x="66" y="1221" on="1"/>
        <pt x="66" y="1261" on="0"/>
        <pt x="119" y="1317" on="0"/>
        <pt x="160" y="1317" on="1"/>
        <pt x="200" y="1317" on="0"/>
        <pt x="256" y="1261" on="0"/>
        <pt x="256" y="1221" on="1"/>
        <pt x="256" y="1180" on="0"/>
        <pt x="200" y="1126" on="0"/>
        <pt x="160" y="1126" on="1"/>
        <pt x="119" y="1126" on="0"/>
        <pt x="66" y="1180" on="0"/>
      </contour>
    </TTGlyph>
    <TTGlyph name="itilde" xMin="-85" yMin="0" xMax="382" yMax="1311">
      <component glyphName="dotlessi" x="0" y="0" flags="0x204"/>
      <component glyphName="tilde" x="-159" y="0" flags="0x4"/>
    </TTGlyph>
    <TTGlyph name="j" xMin="-129" yMin="-414" xMax="238" yMax="1317">
      <contour>
        <pt x="47" y="1221" on="1"/>
        <pt x="47" y="1261" on="0"/>
        <pt x="101" y="1317" on="0"/>
        <pt x="141" y="1317" on="1"/>
        <pt x="182" y="1317" on="0"/>
        <pt x="238" y="1261" on="0"/>
        <pt x="238" y="1221" on="1"/>
        <pt x="238" y="1180" on="0"/>
        <pt x="182" y="1126" on="0"/>
        <pt x="141" y="1126" on="1"/>
        <pt x="101" y="1126" on="0"/>
        <pt x="47" y="1180" on="0"/>
      </contour>
      <contour>
        <pt x="-74" y="-250" on="1"/>
        <pt x="-55" y="-267" on="0"/>
        <pt x="-14" y="-295" on="0"/>
        <pt x="14" y="-295" on="1"/>
        <pt x="35" y="-295" on="0"/>
        <pt x="69" y="-277" on="0"/>
        <pt x="93" y="-234" on="0"/>
        <pt x="106" y="-164" on="0"/>
        <pt x="106" y="-113" on="1"/>
        <pt x="106" y="840" on="1"/>
        <pt x="12" y="840" on="1"/>
        <pt x="12" y="952" on="1"/>
        <pt x="231" y="952" on="1"/>
        <pt x="231" y="-109" on="1"/>
        <pt x="231" y="-196" on="0"/>
        <pt x="199" y="-313" on="0"/>
        <pt x="145" y="-384" on="0"/>
        <pt x="73" y="-414" on="0"/>
        <pt x="33" y="-414" on="1"/>
        <pt x="4" y="-414" on="0"/>
        <pt x="-45" y="-400" on="0"/>
        <pt x="-86" y="-380" on="0"/>
        <pt x="-118" y="-356" on="0"/>
        <pt x="-129" y="-346" on="1"/>
      </contour>
    </TTGlyph>
    <TTGlyph name="jcircumflex" xMin="-129" yMin="-414" xMax="400" yMax="1362">
      <component glyphName="dotlessj" x="0" y="0" flags="0x204"/>
      <component glyphName="circumflex" x="-163" y="0" flags="0x4"/>
    </TTGlyph>
    <TTGlyph name="k" xMin="25" yMin="0" xMax="635" yMax="1374">
      <contour>
        <pt x="25" y="1374" on="1"/>
        <pt x="231" y="1374" on="1"/>
        <pt x="231" y="600" on="1"/>
        <pt x="416" y="883" on="1"/>
        <pt x="442" y="925" on="0"/>
        <pt x="505" y="969" on="0"/>
        <pt x="547" y="969" on="1"/>
        <pt x="567" y="969" on="0"/>
        <pt x="605" y="957" on="0"/>
        <pt x="621" y="946" on="1"/>
        <pt x="584" y="848" on="1"/>
        <pt x="567" y="856" on="0"/>
        <pt x="553" y="856" on="1"/>
        <pt x="533" y="856" on="0"/>
        <pt x="500" y="817" on="0"/>
        <pt x="471" y="772" on="1"/>
        <pt x="367" y="612" on="1"/>
        <pt x="553" y="113" on="1"/>
        <pt x="635" y="113" on="1"/>
        <pt x="635" y="0" on="1"/>
        <pt x="358" y="0" on="1"/>
        <pt x="358" y="113" on="1"/>
        <pt x="424" y="113" on="1"/>
        <pt x="285" y="494" on="1"/>
        <pt x="231" y="414" on="1"/>
        <pt x="231" y="113" on="1"/>
        <pt x="313" y="113" on="1"/>
        <pt x="313" y="0" on="1"/>
        <pt x="25" y="0" on="1"/>
        <pt x="25" y="113" on="1"/>
        <pt x="106" y="113" on="1"/>
        <pt x="106" y="1262" on="1"/>
        <pt x="25" y="1262" on="1"/>
      </contour>
    </TTGlyph>
    <TTGlyph name="kcommaaccent" xMin="25" yMin="-416" xMax="635" yMax="1374">
      <component glyphName="k" x="0" y="0" flags="0x204"/>
      <component glyphName="commaaccent" x="6" y="0" flags="0x4"/>
    </TTGlyph>
    <TTGlyph name="kgreenlandic" xMin="25" yMin="0" xMax="635" yMax="969">
      <contour>
        <pt x="25" y="952" on="1"/>
        <pt x="313" y="952" on="1"/>
        <pt x="313" y="840" on="1"/>
        <pt x="231" y="840" on="1"/>
        <pt x="231" y="600" on="1"/>
        <pt x="416" y="883" on="1"/>
        <pt x="442" y="925" on="0"/>
        <pt x="505" y="969" on="0"/>
        <pt x="547" y="969" on="1"/>
        <pt x="567" y="969" on="0"/>
        <pt x="605" y="957" on="0"/>
        <pt x="621" y="946" on="1"/>
        <pt x="584" y="848" on="1"/>
        <pt x="567" y="856" on="0"/>
        <pt x="553" y="856" on="1"/>
        <pt x="533" y="856" on="0"/>
        <pt x="500" y="817" on="0"/>
        <pt x="471" y="772" on="1"/>
        <pt x="367" y="612" on="1"/>
        <pt x="553" y="113" on="1"/>
        <pt x="635" y="113" on="1"/>
        <pt x="635" y="0" on="1"/>
        <pt x="358" y="0" on="1"/>
        <pt x="358" y="113" on="1"/>
        <pt x="424" y="113" on="1"/>
        <pt x="285" y="494" on="1"/>
        <pt x="231" y="414" on="1"/>
        <pt x="231" y="113" on="1"/>
        <pt x="313" y="113" on="1"/>
        <pt x="313" y="0" on="1"/>
        <pt x="25" y="0" on="1"/>
        <pt x="25" y="113" on="1"/>
        <pt x="106" y="113" on="1"/>
        <pt x="106" y="840" on="1"/>
        <pt x="25" y="840" on="1"/>
      </contour>
    </TTGlyph>
    <TTGlyph name="l" xMin="4" yMin="0" xMax="336" yMax="1374">
      <contour>
        <pt x="4" y="1374" on="1"/>
        <pt x="211" y="1374" on="1"/>
        <pt x="211" y="221" on="1"/>
        <pt x="211" y="183" on="0"/>
        <pt x="223" y="140" on="0"/>
        <pt x="247" y="119" on="0"/>
        <pt x="284" y="113" on="0"/>
        <pt x="309" y="113" on="1"/>
        <pt x="336" y="113" on="1"/>
        <pt x="336" y="0" on="1"/>
        <pt x="311" y="0" on="1"/>
        <pt x="254" y="0" on="0"/>
        <pt x="170" y="20" on="0"/>
        <pt x="114" y="73" on="0"/>
        <pt x="86" y="163" on="0"/>
        <pt x="86" y="233" on="1"/>
        <pt x="86" y="1262" on="1"/>
        <pt x="4" y="1262" on="1"/>
      </contour>
    </TTGlyph>
    <TTGlyph name="lacute" xMin="-10" yMin="0" xMax="336" yMax="1751">
      <component glyphName="l" x="0" y="0" flags="0x204"/>
      <component glyphName="acute" x="-192" y="395" flags="0x4"/>
    </TTGlyph>
    <TTGlyph name="lcaron" xMin="4" yMin="0" xMax="452" yMax="1374">
      <component glyphName="l" x="0" y="0" flags="0x4"/>
      <component glyphName="uni0315" x="270" y="20" flags="0x4"/>
    </TTGlyph>
    <TTGlyph name="lcommaaccent" xMin="4" yMin="-416" xMax="336" yMax="1374">
      <component glyphName="l" x="0" y="0" flags="0x204"/>
      <component glyphName="commaaccent" x="-105" y="0" flags="0x4"/>
    </TTGlyph>
    <TTGlyph name="ldotaccent" xMin="4" yMin="0" xMax="493" yMax="1374">
      <component glyphName="l" x="0" y="0" flags="0x4"/>
      <component glyphName="periodcentered" x="233" y="0" flags="0x4"/>
    </TTGlyph>
    <TTGlyph name="less" xMin="113" yMin="322" xMax="813" yMax="1047">
      <contour>
        <pt x="813" y="322" on="1"/>
        <pt x="113" y="637" on="1"/>
        <pt x="113" y="731" on="1"/>
        <pt x="813" y="1047" on="1"/>
        <pt x="813" y="934" on="1"/>
        <pt x="258" y="684" on="1"/>
        <pt x="813" y="436" on="1"/>
      </contour>
    </TTGlyph>
    <TTGlyph name="lessequal" xMin="133" yMin="98" xMax="803" yMax="1047">
      <contour>
        <pt x="133" y="98" on="1"/>
        <pt x="133" y="207" on="1"/>
        <pt x="803" y="207" on="1"/>
        <pt x="803" y="98" on="1"/>
      </contour>
      <contour>
        <pt x="803" y="322" on="1"/>
        <pt x="133" y="637" on="1"/>
        <pt x="133" y="731" on="1"/>
        <pt x="803" y="1047" on="1"/>
        <pt x="803" y="934" on="1"/>
        <pt x="279" y="684" on="1"/>
        <pt x="803" y="436" on="1"/>
      </contour>
    </TTGlyph>
    <TTGlyph name="logicalnot" xMin="133" yMin="508" xMax="803" yMax="862">
      <contour>
        <pt x="694" y="508" on="1"/>
        <pt x="694" y="754" on="1"/>
        <pt x="133" y="754" on="1"/>
        <pt x="133" y="862" on="1"/>
        <pt x="803" y="862" on="1"/>
        <pt x="803" y="508" on="1"/>
      </contour>
    </TTGlyph>
    <TTGlyph name="lslash" xMin="-43" yMin="0" xMax="358" yMax="1374">
      <contour>
        <pt x="211" y="682" on="1"/>
        <pt x="211" y="221" on="1"/>
        <pt x="211" y="183" on="0"/>
        <pt x="223" y="140" on="0"/>
        <pt x="247" y="119" on="0"/>
        <pt x="284" y="113" on="0"/>
        <pt x="309" y="113" on="1"/>
        <pt x="336" y="113" on="1"/>
        <pt x="336" y="0" on="1"/>
        <pt x="311" y="0" on="1"/>
        <pt x="254" y="0" on="0"/>
        <pt x="170" y="20" on="0"/>
        <pt x="114" y="73" on="0"/>
        <pt x="86" y="163" on="0"/>
        <pt x="86" y="233" on="1"/>
        <pt x="86" y="606" on="1"/>
        <pt x="12" y="563" on="1"/>
        <pt x="-43" y="659" on="1"/>
        <pt x="86" y="735" on="1"/>
        <pt x="86" y="1262" on="1"/>
        <pt x="4" y="1262" on="1"/>
        <pt x="4" y="1374" on="1"/>
        <pt x="211" y="1374" on="1"/>
        <pt x="211" y="811" on="1"/>
        <pt x="303" y="866" on="1"/>
        <pt x="358" y="770" on="1"/>
      </contour>
    </TTGlyph>
</ttFont>
